<?xml version="1.0" encoding="UTF-8"?>
<!--Generator: Apple Native CoreSVG 123-->
<!DOCTYPE svg
PUBLIC "-//W3C//DTD SVG 1.1//EN"
       "http://www.w3.org/Graphics/SVG/1.1/DTD/svg11.dtd">
<svg version="1.1" xmlns="http://www.w3.org/2000/svg" xmlns:xlink="http://www.w3.org/1999/xlink" width="3300" height="2200">
 <!--glyph: "uni100659.medium", point size: 100.000000, font version: "Version 15.0d7e11", template writer version: "5"-->
 <g id="Notes">
  <rect height="2200" id="artboard" style="fill:white;opacity:1" width="3300" x="0" y="0"/>
  <line id="" style="fill:none;stroke:black;opacity:1;stroke-width:0.5;" x1="263" x2="3036" y1="292" y2="292"/>
  <text style="stroke:none;fill:black;font-family:-apple-system,&quot;SF Pro Display&quot;,&quot;SF Pro Text&quot;,Helvetica,sans-serif;font-weight:bold;" transform="matrix(1 0 0 1 263 322)">Weight/Scale Variations</text>
  <text style="stroke:none;fill:black;font-family:-apple-system,&quot;SF Pro Display&quot;,&quot;SF Pro Text&quot;,Helvetica,sans-serif;text-anchor:middle;" transform="matrix(1 0 0 1 559.711 322)">Ultralight</text>
  <text style="stroke:none;fill:black;font-family:-apple-system,&quot;SF Pro Display&quot;,&quot;SF Pro Text&quot;,Helvetica,sans-serif;text-anchor:middle;" transform="matrix(1 0 0 1 856.422 322)">Thin</text>
  <text style="stroke:none;fill:black;font-family:-apple-system,&quot;SF Pro Display&quot;,&quot;SF Pro Text&quot;,Helvetica,sans-serif;text-anchor:middle;" transform="matrix(1 0 0 1 1153.13 322)">Light</text>
  <text style="stroke:none;fill:black;font-family:-apple-system,&quot;SF Pro Display&quot;,&quot;SF Pro Text&quot;,Helvetica,sans-serif;text-anchor:middle;" transform="matrix(1 0 0 1 1449.84 322)">Regular</text>
  <text style="stroke:none;fill:black;font-family:-apple-system,&quot;SF Pro Display&quot;,&quot;SF Pro Text&quot;,Helvetica,sans-serif;text-anchor:middle;" transform="matrix(1 0 0 1 1746.56 322)">Medium</text>
  <text style="stroke:none;fill:black;font-family:-apple-system,&quot;SF Pro Display&quot;,&quot;SF Pro Text&quot;,Helvetica,sans-serif;text-anchor:middle;" transform="matrix(1 0 0 1 2043.27 322)">Semibold</text>
  <text style="stroke:none;fill:black;font-family:-apple-system,&quot;SF Pro Display&quot;,&quot;SF Pro Text&quot;,Helvetica,sans-serif;text-anchor:middle;" transform="matrix(1 0 0 1 2339.98 322)">Bold</text>
  <text style="stroke:none;fill:black;font-family:-apple-system,&quot;SF Pro Display&quot;,&quot;SF Pro Text&quot;,Helvetica,sans-serif;text-anchor:middle;" transform="matrix(1 0 0 1 2636.69 322)">Heavy</text>
  <text style="stroke:none;fill:black;font-family:-apple-system,&quot;SF Pro Display&quot;,&quot;SF Pro Text&quot;,Helvetica,sans-serif;text-anchor:middle;" transform="matrix(1 0 0 1 2933.4 322)">Black</text>
  <line id="" style="fill:none;stroke:black;opacity:1;stroke-width:0.5;" x1="263" x2="3036" y1="1903" y2="1903"/>
  <g id="" transform="matrix(1 0 0 1 263 1933)">
   <path d="M 9.24805 0.830078 C 13.5547 0.830078 17.1387 -2.74414 17.1387 -7.05078 C 17.1387 -11.3574 13.5449 -14.9316 9.23828 -14.9316 C 4.94141 -14.9316 1.36719 -11.3574 1.36719 -7.05078 C 1.36719 -2.74414 4.95117 0.830078 9.24805 0.830078 Z M 9.24805 -0.654297 C 5.70312 -0.654297 2.87109 -3.49609 2.87109 -7.05078 C 2.87109 -10.6055 5.69336 -13.4473 9.23828 -13.4473 C 12.793 -13.4473 15.6348 -10.6055 15.6445 -7.05078 C 15.6543 -3.49609 12.8027 -0.654297 9.24805 -0.654297 Z M 9.22852 -3.42773 C 9.69727 -3.42773 9.9707 -3.74023 9.9707 -4.25781 L 9.9707 -6.31836 L 12.1973 -6.31836 C 12.6953 -6.31836 13.0371 -6.57227 13.0371 -7.04102 C 13.0371 -7.51953 12.7148 -7.7832 12.1973 -7.7832 L 9.9707 -7.7832 L 9.9707 -10.0098 C 9.9707 -10.5273 9.69727 -10.8496 9.22852 -10.8496 C 8.75977 -10.8496 8.50586 -10.5078 8.50586 -10.0098 L 8.50586 -7.7832 L 6.29883 -7.7832 C 5.78125 -7.7832 5.44922 -7.51953 5.44922 -7.04102 C 5.44922 -6.57227 5.80078 -6.31836 6.29883 -6.31836 L 8.50586 -6.31836 L 8.50586 -4.25781 C 8.50586 -3.75977 8.75977 -3.42773 9.22852 -3.42773 Z"/>
  </g>
  <g id="" transform="matrix(1 0 0 1 281.506 1933)">
   <path d="M 11.709 2.91016 C 17.1582 2.91016 21.6699 -1.60156 21.6699 -7.05078 C 21.6699 -12.4902 17.1484 -17.0117 11.6992 -17.0117 C 6.25977 -17.0117 1.74805 -12.4902 1.74805 -7.05078 C 1.74805 -1.60156 6.26953 2.91016 11.709 2.91016 Z M 11.709 1.25 C 7.09961 1.25 3.41797 -2.44141 3.41797 -7.05078 C 3.41797 -11.6504 7.08984 -15.3516 11.6992 -15.3516 C 16.3086 -15.3516 20 -11.6504 20.0098 -7.05078 C 20.0195 -2.44141 16.3184 1.25 11.709 1.25 Z M 11.6895 -2.41211 C 12.207 -2.41211 12.5195 -2.77344 12.5195 -3.33984 L 12.5195 -6.23047 L 15.5762 -6.23047 C 16.123 -6.23047 16.5039 -6.51367 16.5039 -7.03125 C 16.5039 -7.55859 16.1426 -7.86133 15.5762 -7.86133 L 12.5195 -7.86133 L 12.5195 -10.9277 C 12.5195 -11.5039 12.207 -11.8555 11.6895 -11.8555 C 11.1719 -11.8555 10.8789 -11.4844 10.8789 -10.9277 L 10.8789 -7.86133 L 7.83203 -7.86133 C 7.26562 -7.86133 6.89453 -7.55859 6.89453 -7.03125 C 6.89453 -6.51367 7.28516 -6.23047 7.83203 -6.23047 L 10.8789 -6.23047 L 10.8789 -3.33984 C 10.8789 -2.79297 11.1719 -2.41211 11.6895 -2.41211 Z"/>
  </g>
  <g id="" transform="matrix(1 0 0 1 304.924 1933)">
   <path d="M 14.9707 5.67383 C 21.9336 5.67383 27.6953 -0.078125 27.6953 -7.04102 C 27.6953 -14.0039 21.9238 -19.7559 14.9609 -19.7559 C 8.00781 -19.7559 2.25586 -14.0039 2.25586 -7.04102 C 2.25586 -0.078125 8.01758 5.67383 14.9707 5.67383 Z M 14.9707 3.85742 C 8.93555 3.85742 4.08203 -1.00586 4.08203 -7.04102 C 4.08203 -13.0762 8.92578 -17.9395 14.9609 -17.9395 C 21.0059 -17.9395 25.8594 -13.0762 25.8691 -7.04102 C 25.8789 -1.00586 21.0156 3.85742 14.9707 3.85742 Z M 14.9512 -1.06445 C 15.5176 -1.06445 15.8691 -1.45508 15.8691 -2.06055 L 15.8691 -6.13281 L 20.1074 -6.13281 C 20.6934 -6.13281 21.1133 -6.46484 21.1133 -7.02148 C 21.1133 -7.59766 20.7227 -7.93945 20.1074 -7.93945 L 15.8691 -7.93945 L 15.8691 -12.1875 C 15.8691 -12.8027 15.5176 -13.1934 14.9512 -13.1934 C 14.3848 -13.1934 14.0625 -12.7832 14.0625 -12.1875 L 14.0625 -7.93945 L 9.83398 -7.93945 C 9.21875 -7.93945 8.80859 -7.59766 8.80859 -7.02148 C 8.80859 -6.46484 9.23828 -6.13281 9.83398 -6.13281 L 14.0625 -6.13281 L 14.0625 -2.06055 C 14.0625 -1.47461 14.3848 -1.06445 14.9512 -1.06445 Z"/>
  </g>
  <text style="stroke:none;fill:black;font-family:-apple-system,&quot;SF Pro Display&quot;,&quot;SF Pro Text&quot;,Helvetica,sans-serif;font-weight:bold;" transform="matrix(1 0 0 1 263 1953)">Design Variations</text>
  <text style="stroke:none;fill:black;font-family:-apple-system,&quot;SF Pro Display&quot;,&quot;SF Pro Text&quot;,Helvetica,sans-serif;" transform="matrix(1 0 0 1 263 1971)">Symbols are supported in up to nine weights and three scales.</text>
  <text style="stroke:none;fill:black;font-family:-apple-system,&quot;SF Pro Display&quot;,&quot;SF Pro Text&quot;,Helvetica,sans-serif;" transform="matrix(1 0 0 1 263 1989)">For optimal layout with text and other symbols, vertically align</text>
  <text style="stroke:none;fill:black;font-family:-apple-system,&quot;SF Pro Display&quot;,&quot;SF Pro Text&quot;,Helvetica,sans-serif;" transform="matrix(1 0 0 1 263 2007)">symbols with the adjacent text.</text>
  <rect height="14" id="" style="fill:#00AEEF;stroke:none;opacity:0.4;" width="3" x="776" y="1919"/>
  <g id="" transform="matrix(1 0 0 1 779 1933)">
   <path d="M 10.5273 0 L 12.373 0 L 7.17773 -14.0918 L 5.43945 -14.0918 L 0.244141 0 L 2.08984 0 L 3.50586 -4.0332 L 9.11133 -4.0332 Z M 6.2793 -11.9531 L 6.33789 -11.9531 L 8.59375 -5.52734 L 4.02344 -5.52734 Z"/>
  </g>
  <rect height="14" id="" style="fill:#00AEEF;stroke:none;opacity:0.4;" width="3" x="791.617" y="1919"/>
  <text style="stroke:none;fill:black;font-family:-apple-system,&quot;SF Pro Display&quot;,&quot;SF Pro Text&quot;,Helvetica,sans-serif;font-weight:bold;" transform="matrix(1 0 0 1 776 1953)">Margins</text>
  <text style="stroke:none;fill:black;font-family:-apple-system,&quot;SF Pro Display&quot;,&quot;SF Pro Text&quot;,Helvetica,sans-serif;" transform="matrix(1 0 0 1 776 1971)">Leading and trailing margins on the left and right side of each symbol</text>
  <text style="stroke:none;fill:black;font-family:-apple-system,&quot;SF Pro Display&quot;,&quot;SF Pro Text&quot;,Helvetica,sans-serif;" transform="matrix(1 0 0 1 776 1989)">can be adjusted by modifying the width of the blue rectangles.</text>
  <text style="stroke:none;fill:black;font-family:-apple-system,&quot;SF Pro Display&quot;,&quot;SF Pro Text&quot;,Helvetica,sans-serif;" transform="matrix(1 0 0 1 776 2007)">Modifications are automatically applied proportionally to all</text>
  <text style="stroke:none;fill:black;font-family:-apple-system,&quot;SF Pro Display&quot;,&quot;SF Pro Text&quot;,Helvetica,sans-serif;" transform="matrix(1 0 0 1 776 2025)">scales and weights.</text>
  <g id="" transform="matrix(1 0 0 1 1289 1933)">
   <path d="M 2.83203 3.11523 L 4.375 4.6582 C 5.22461 5.48828 6.19141 5.41992 7.06055 4.46289 L 17.2754 -6.66016 C 17.7051 -6.36719 18.0957 -6.37695 18.5645 -6.47461 L 19.6094 -6.68945 L 20.3027 -5.99609 L 20.2539 -5.47852 C 20.1855 -4.95117 20.3516 -4.53125 20.8496 -4.0332 L 21.6602 -3.22266 C 22.168 -2.71484 22.8223 -2.68555 23.3008 -3.16406 L 26.5527 -6.41602 C 27.0312 -6.89453 27.0117 -7.54883 26.5039 -8.05664 L 25.6836 -8.87695 C 25.1855 -9.375 24.7754 -9.55078 24.2383 -9.47266 L 23.7109 -9.41406 L 23.0566 -10.0781 L 23.3398 -11.2207 C 23.4863 -11.7871 23.3398 -12.2559 22.7148 -12.8613 L 20.3027 -15.2539 C 16.7578 -18.7793 12.2266 -18.6719 9.11133 -15.5371 C 8.69141 -15.1074 8.64258 -14.5215 8.91602 -14.0918 C 9.15039 -13.7207 9.62891 -13.4961 10.2734 -13.6621 C 11.7871 -14.043 13.3008 -13.9258 14.7852 -12.9199 L 14.1602 -11.3379 C 13.9258 -10.752 13.9453 -10.2734 14.1797 -9.83398 L 3.01758 0.439453 C 2.08008 1.30859 1.97266 2.25586 2.83203 3.11523 Z M 10.6738 -15.1465 C 13.3398 -17.1387 16.6504 -16.8262 19.0527 -14.4141 L 21.6797 -11.8066 C 21.9141 -11.5723 21.9434 -11.3867 21.8848 -11.0938 L 21.5039 -9.53125 L 23.0762 -7.95898 L 24.043 -8.04688 C 24.3262 -8.07617 24.4141 -8.05664 24.6387 -7.83203 L 25.2637 -7.20703 L 22.5098 -4.46289 L 21.8848 -5.07812 C 21.6602 -5.30273 21.6406 -5.40039 21.6699 -5.68359 L 21.7578 -6.64062 L 20.1953 -8.20312 L 18.5742 -7.89062 C 18.291 -7.83203 18.1445 -7.83203 17.9102 -8.07617 L 15.7324 -10.2539 C 15.5078 -10.4883 15.4785 -10.625 15.6055 -10.9473 L 16.5527 -13.2227 C 14.9512 -14.7559 12.8418 -15.6055 10.8008 -14.9512 C 10.7129 -14.9219 10.6445 -14.9414 10.6152 -14.9805 C 10.5859 -15.0293 10.5859 -15.0781 10.6738 -15.1465 Z M 4.10156 2.41211 C 3.61328 1.91406 3.78906 1.61133 4.12109 1.30859 L 15.0781 -8.80859 L 16.3086 -7.57812 L 6.15234 3.34961 C 5.84961 3.68164 5.46875 3.7793 5.06836 3.37891 Z"/>
  </g>
  <text style="stroke:none;fill:black;font-family:-apple-system,&quot;SF Pro Display&quot;,&quot;SF Pro Text&quot;,Helvetica,sans-serif;font-weight:bold;" transform="matrix(1 0 0 1 1289 1953)">Exporting</text>
  <text style="stroke:none;fill:black;font-family:-apple-system,&quot;SF Pro Display&quot;,&quot;SF Pro Text&quot;,Helvetica,sans-serif;" transform="matrix(1 0 0 1 1289 1971)">Symbols should be outlined when exporting to ensure the</text>
  <text style="stroke:none;fill:black;font-family:-apple-system,&quot;SF Pro Display&quot;,&quot;SF Pro Text&quot;,Helvetica,sans-serif;" transform="matrix(1 0 0 1 1289 1989)">design is preserved when submitting to Xcode.</text>
  <text id="template-version" style="stroke:none;fill:black;font-family:-apple-system,&quot;SF Pro Display&quot;,&quot;SF Pro Text&quot;,Helvetica,sans-serif;text-anchor:end;" transform="matrix(1 0 0 1 3036 1933)">Template v.1.0</text>
  <text style="stroke:none;fill:black;font-family:-apple-system,&quot;SF Pro Display&quot;,&quot;SF Pro Text&quot;,Helvetica,sans-serif;text-anchor:end;" transform="matrix(1 0 0 1 3036 1951)">Generated from car.fill</text>
  <text style="stroke:none;fill:black;font-family:-apple-system,&quot;SF Pro Display&quot;,&quot;SF Pro Text&quot;,Helvetica,sans-serif;text-anchor:end;" transform="matrix(1 0 0 1 3036 1969)">Typeset at 100 points</text>
  <text style="stroke:none;fill:black;font-family:-apple-system,&quot;SF Pro Display&quot;,&quot;SF Pro Text&quot;,Helvetica,sans-serif;" transform="matrix(1 0 0 1 263 726)">Small</text>
  <text style="stroke:none;fill:black;font-family:-apple-system,&quot;SF Pro Display&quot;,&quot;SF Pro Text&quot;,Helvetica,sans-serif;" transform="matrix(1 0 0 1 263 1156)">Medium</text>
  <text style="stroke:none;fill:black;font-family:-apple-system,&quot;SF Pro Display&quot;,&quot;SF Pro Text&quot;,Helvetica,sans-serif;" transform="matrix(1 0 0 1 263 1586)">Large</text>
 </g>
 <g id="Guides">
  <g id="H-reference" style="fill:#27AAE1;stroke:none;" transform="matrix(1 0 0 1 339 696)">
   <path d="M 54.9316 0 L 57.666 0 L 30.5664 -70.459 L 28.0762 -70.459 L 0.976562 0 L 3.66211 0 L 12.9395 -24.4629 L 45.7031 -24.4629 Z M 29.1992 -67.0898 L 29.4434 -67.0898 L 44.8242 -26.709 L 13.8184 -26.709 Z"/>
  </g>
  <line id="Baseline-S" style="fill:none;stroke:#27AAE1;opacity:1;stroke-width:0.577;" x1="263" x2="3036" y1="696" y2="696"/>
  <line id="Capline-S" style="fill:none;stroke:#27AAE1;opacity:1;stroke-width:0.577;" x1="263" x2="3036" y1="625.541" y2="625.541"/>
  <g id="H-reference" style="fill:#27AAE1;stroke:none;" transform="matrix(1 0 0 1 339 1126)">
   <path d="M 54.9316 0 L 57.666 0 L 30.5664 -70.459 L 28.0762 -70.459 L 0.976562 0 L 3.66211 0 L 12.9395 -24.4629 L 45.7031 -24.4629 Z M 29.1992 -67.0898 L 29.4434 -67.0898 L 44.8242 -26.709 L 13.8184 -26.709 Z"/>
  </g>
  <line id="Baseline-M" style="fill:none;stroke:#27AAE1;opacity:1;stroke-width:0.577;" x1="263" x2="3036" y1="1126" y2="1126"/>
  <line id="Capline-M" style="fill:none;stroke:#27AAE1;opacity:1;stroke-width:0.577;" x1="263" x2="3036" y1="1055.54" y2="1055.54"/>
  <g id="H-reference" style="fill:#27AAE1;stroke:none;" transform="matrix(1 0 0 1 339 1556)">
   <path d="M 54.9316 0 L 57.666 0 L 30.5664 -70.459 L 28.0762 -70.459 L 0.976562 0 L 3.66211 0 L 12.9395 -24.4629 L 45.7031 -24.4629 Z M 29.1992 -67.0898 L 29.4434 -67.0898 L 44.8242 -26.709 L 13.8184 -26.709 Z"/>
  </g>
  <line id="Baseline-L" style="fill:none;stroke:#27AAE1;opacity:1;stroke-width:0.577;" x1="263" x2="3036" y1="1556" y2="1556"/>
  <line id="Capline-L" style="fill:none;stroke:#27AAE1;opacity:1;stroke-width:0.577;" x1="263" x2="3036" y1="1485.54" y2="1485.54"/>
  <rect height="119.336" id="left-margin" style="fill:#00AEEF;stroke:none;opacity:0.4;" width="12.4512" x="1379.63" y="1030.79"/>
  <rect height="119.336" id="right-margin" style="fill:#00AEEF;stroke:none;opacity:0.4;" width="12.4512" x="1507.61" y="1030.79"/>
 </g>
 <g id="Symbols">
  <g id="Black-L" transform="matrix(1 0 0 1 2836.38 1556)">
   <path d="M 25.1953 27.002 L 33.3008 27.002 C 38.4277 27.002 42.4316 22.998 42.4316 17.9199 L 42.4316 5.76172 C 56.6406 6.78711 78.6621 7.51953 97.0215 7.51953 C 115.381 7.51953 137.451 6.83594 151.66 5.81055 L 151.66 17.9199 C 151.66 22.998 155.615 27.002 160.742 27.002 L 168.896 27.002 C 174.023 27.002 177.979 22.998 177.979 17.9199 L 177.979 -22.9492 C 177.979 -35.4004 176.318 -42.334 170.117 -50.3418 L 163.77 -57.7637 C 161.377 -69.1406 157.227 -80.957 154.98 -85.6934 C 151.074 -94.1406 143.408 -99.3164 133.545 -100.684 C 127.979 -101.416 115.381 -101.855 97.0215 -101.855 C 78.6621 -101.855 66.0645 -101.367 60.5469 -100.684 C 50.6348 -99.3652 43.0176 -94.1406 39.1113 -85.6934 C 36.8652 -80.957 32.666 -69.1406 30.2734 -57.7637 L 23.9746 -50.3418 C 17.7734 -42.334 16.0645 -35.4004 16.0645 -22.9492 L 16.0645 17.9199 C 16.0645 22.998 20.0684 27.002 25.1953 27.002 Z M 49.0234 -65.2832 C 50.0488 -69.5312 52.0996 -75.7812 53.3691 -78.2715 C 55.5664 -82.7148 58.3496 -84.3262 63.6719 -85.0098 C 67.1875 -85.5469 78.1738 -85.791 97.0215 -85.791 C 115.918 -85.791 126.855 -85.5957 130.469 -85.0098 C 135.693 -84.2773 138.477 -82.7148 140.723 -78.2715 C 141.992 -75.7812 144.043 -69.5312 145.02 -65.2832 C 145.947 -61.377 144.238 -59.082 140.039 -59.1797 C 132.812 -59.4238 121.191 -60.0098 97.0215 -60.0098 C 72.9492 -60.0098 61.2793 -59.4238 54.0039 -59.1797 C 49.8047 -59.082 48.0469 -61.377 49.0234 -65.2832 Z M 48.6816 -11.7676 C 41.8457 -11.7676 36.6699 -16.9922 36.6699 -23.7793 C 36.6699 -30.6152 41.8457 -35.791 48.6816 -35.791 C 55.4688 -35.791 60.6934 -30.6152 60.6934 -23.7793 C 60.6934 -16.9922 55.4688 -11.7676 48.6816 -11.7676 Z M 145.41 -11.7676 C 138.574 -11.7676 133.398 -16.9922 133.398 -23.7793 C 133.398 -30.6152 138.574 -35.791 145.41 -35.791 C 152.197 -35.791 157.373 -30.6152 157.373 -23.7793 C 157.373 -16.9922 152.197 -11.7676 145.41 -11.7676 Z M 78.8086 -14.9902 C 73.6816 -14.9902 70.0195 -18.7012 70.0195 -23.7793 C 70.0195 -28.9062 73.6816 -32.5684 78.8086 -32.5684 L 115.234 -32.5684 C 120.361 -32.5684 124.023 -28.9062 124.023 -23.7793 C 124.023 -18.7012 120.361 -14.9902 115.234 -14.9902 Z"/>
  </g>
  <g id="Heavy-L" transform="matrix(1 0 0 1 2541.35 1556)">
   <path d="M 24.9512 26.2695 L 32.9102 26.2695 C 37.8906 26.2695 41.7969 22.4121 41.7969 17.4316 L 41.7969 5.71289 C 55.957 6.68945 77.5391 7.37305 95.3125 7.37305 C 113.086 7.37305 134.717 6.68945 148.828 5.71289 L 148.828 17.4316 C 148.828 22.4121 152.734 26.2695 157.764 26.2695 L 165.674 26.2695 C 170.703 26.2695 174.609 22.4121 174.609 17.4316 L 174.609 -22.2168 C 174.609 -34.2773 172.754 -40.918 166.699 -48.7305 L 160.596 -56.1035 C 158.203 -67.4316 154.053 -79.2969 151.807 -83.9844 C 148.047 -92.1387 140.674 -97.0215 131.201 -98.291 C 125.977 -98.9746 113.086 -99.4141 95.3125 -99.4141 C 77.5879 -99.4141 64.6484 -98.9746 59.4238 -98.291 C 50 -97.0703 42.5781 -92.1387 38.8184 -83.9844 C 36.6211 -79.2969 32.4219 -67.4316 30.0781 -56.1035 L 23.9258 -48.7305 C 17.9199 -40.918 16.0645 -34.2773 16.0645 -22.2168 L 16.0645 17.4316 C 16.0645 22.4121 19.9707 26.2695 24.9512 26.2695 Z M 47.2168 -63.0371 C 48.3398 -68.0176 50.6348 -74.8535 52.0996 -77.5879 C 54.1504 -81.6895 56.8359 -83.3008 61.7676 -83.9355 C 65.625 -84.4727 76.5137 -84.7656 95.3125 -84.7656 C 114.111 -84.7656 125.049 -84.5703 128.955 -83.9355 C 133.838 -83.252 136.426 -81.6895 138.574 -77.5879 C 140.039 -74.8535 142.285 -68.0176 143.457 -63.0371 C 144.287 -59.5215 142.773 -57.5195 139.014 -57.666 C 130.957 -58.0078 119.141 -58.5938 95.3125 -58.5938 C 71.5332 -58.5938 59.7168 -58.0078 51.6602 -57.666 C 47.9004 -57.5195 46.3379 -59.5215 47.2168 -63.0371 Z M 47.4609 -11.1328 C 40.8691 -11.1328 35.8398 -16.1133 35.8398 -22.7051 C 35.8398 -29.2969 40.8691 -34.2773 47.4609 -34.2773 C 54.0039 -34.2773 59.0332 -29.2969 59.0332 -22.7051 C 59.0332 -16.1133 54.0039 -11.1328 47.4609 -11.1328 Z M 143.213 -11.1328 C 136.621 -11.1328 131.641 -16.1133 131.641 -22.7051 C 131.641 -29.2969 136.621 -34.2773 143.213 -34.2773 C 149.805 -34.2773 154.785 -29.2969 154.785 -22.7051 C 154.785 -16.1133 149.805 -11.1328 143.213 -11.1328 Z M 77.5391 -14.2578 C 72.6074 -14.2578 69.0918 -17.7734 69.0918 -22.7051 C 69.0918 -27.6367 72.6074 -31.1523 77.5391 -31.1523 L 113.135 -31.1523 C 118.066 -31.1523 121.582 -27.6367 121.582 -22.7051 C 121.582 -17.7734 118.066 -14.2578 113.135 -14.2578 Z"/>
  </g>
  <g id="Bold-L" transform="matrix(1 0 0 1 2246.57 1556)">
   <path d="M 24.707 25.4883 L 32.4707 25.4883 C 37.3535 25.4883 41.1133 21.7285 41.1133 16.8457 L 41.1133 5.61523 C 55.2246 6.54297 76.2695 7.22656 93.4082 7.22656 C 110.547 7.22656 131.641 6.54297 145.703 5.61523 L 145.703 16.8457 C 145.703 21.7285 149.512 25.4883 154.395 25.4883 L 162.109 25.4883 C 166.992 25.4883 170.752 21.7285 170.752 16.8457 L 170.752 -21.3867 C 170.752 -33.0078 168.75 -39.3555 162.891 -46.9727 L 157.031 -54.1992 C 154.688 -65.5273 150.488 -77.4414 148.291 -82.0801 C 144.678 -89.8438 137.598 -94.4336 128.662 -95.6543 C 123.779 -96.2891 110.498 -96.6797 93.4082 -96.6797 C 76.3672 -96.6797 63.0859 -96.2891 58.2031 -95.6543 C 49.2188 -94.5312 42.1387 -89.8438 38.5254 -82.0801 C 36.3281 -77.4414 32.1289 -65.5273 29.7852 -54.1992 L 23.9258 -46.9727 C 18.0664 -39.3555 16.0645 -33.0078 16.0645 -21.3867 L 16.0645 16.8457 C 16.0645 21.7285 19.8242 25.4883 24.707 25.4883 Z M 45.166 -60.498 C 46.4844 -66.3086 48.9746 -73.7793 50.6348 -76.8066 C 52.6367 -80.5664 55.0781 -82.1777 59.6191 -82.7637 C 63.8184 -83.3496 74.707 -83.6426 93.4082 -83.6426 C 112.109 -83.6426 123.047 -83.3984 127.246 -82.7637 C 131.738 -82.1289 134.18 -80.5664 136.182 -76.8066 C 137.891 -73.8281 140.332 -66.3086 141.699 -60.498 C 142.432 -57.4707 141.113 -55.8105 137.842 -55.9082 C 128.857 -56.3965 116.895 -56.9824 93.4082 -56.9824 C 69.9219 -56.9824 57.959 -56.3965 49.0234 -55.9082 C 45.7031 -55.8105 44.4336 -57.4707 45.166 -60.498 Z M 46.0449 -10.4004 C 39.7461 -10.4004 34.9609 -15.1855 34.9609 -21.4844 C 34.9609 -27.832 39.7461 -32.6172 46.0449 -32.6172 C 52.3926 -32.6172 57.1777 -27.832 57.1777 -21.4844 C 57.1777 -15.1855 52.3926 -10.4004 46.0449 -10.4004 Z M 140.771 -10.4004 C 134.473 -10.4004 129.688 -15.1855 129.688 -21.4844 C 129.688 -27.832 134.473 -32.6172 140.771 -32.6172 C 147.119 -32.6172 151.904 -27.832 151.904 -21.4844 C 151.904 -15.1855 147.119 -10.4004 140.771 -10.4004 Z M 76.0742 -13.4277 C 71.3867 -13.4277 68.0176 -16.7969 68.0176 -21.4844 C 68.0176 -26.2207 71.3867 -29.541 76.0742 -29.541 L 110.742 -29.541 C 115.479 -29.541 118.799 -26.2207 118.799 -21.4844 C 118.799 -16.7969 115.479 -13.4277 110.742 -13.4277 Z"/>
  </g>
  <g id="Semibold-L" transform="matrix(1 0 0 1 1951.18 1556)">
   <path d="M 24.5605 24.9512 L 32.1289 24.9512 C 36.9141 24.9512 40.625 21.2402 40.625 16.5039 L 40.625 5.51758 C 54.6875 6.44531 75.3906 7.08008 92.0898 7.08008 C 108.789 7.08008 129.541 6.44531 143.555 5.51758 L 143.555 16.5039 C 143.555 21.2402 147.266 24.9512 152.051 24.9512 L 159.619 24.9512 C 164.404 24.9512 168.115 21.2402 168.115 16.5039 L 168.115 -20.8008 C 168.115 -32.1289 166.016 -38.2812 160.254 -45.752 L 154.59 -52.8809 C 152.246 -64.209 148.047 -76.123 145.85 -80.8105 C 142.334 -88.3301 135.498 -92.6758 126.855 -93.8477 C 122.217 -94.4336 108.691 -94.8242 92.0898 -94.8242 C 75.4883 -94.8242 61.9629 -94.4336 57.3242 -93.8477 C 48.7305 -92.7734 41.8457 -88.3301 38.3301 -80.8105 C 36.1328 -76.123 31.9824 -64.209 29.6387 -52.8809 L 23.9258 -45.752 C 18.1641 -38.2812 16.0645 -32.1289 16.0645 -20.8008 L 16.0645 16.5039 C 16.0645 21.2402 19.7754 24.9512 24.5605 24.9512 Z M 43.75 -58.7402 C 45.166 -65.1367 47.8516 -73.0469 49.6582 -76.3184 C 51.5625 -79.7852 53.9062 -81.3477 58.1543 -81.9336 C 62.5488 -82.5195 73.4863 -82.8613 92.0898 -82.8613 C 110.742 -82.8613 121.631 -82.6172 126.074 -81.9336 C 130.322 -81.3477 132.568 -79.7852 134.521 -76.3184 C 136.377 -73.0957 138.965 -65.1367 140.479 -58.7402 C 141.113 -56.0059 139.99 -54.5898 137.012 -54.7363 C 127.441 -55.3223 115.381 -55.9082 92.0898 -55.9082 C 68.8477 -55.9082 56.7871 -55.3223 47.168 -54.7363 C 44.2383 -54.5898 43.1152 -56.0059 43.75 -58.7402 Z M 45.1172 -9.86328 C 38.9648 -9.86328 34.3262 -14.502 34.3262 -20.6543 C 34.3262 -26.8066 38.9648 -31.4453 45.1172 -31.4453 C 51.2207 -31.4453 55.8594 -26.8066 55.8594 -20.6543 C 55.8594 -14.502 51.2207 -9.86328 45.1172 -9.86328 Z M 139.111 -9.86328 C 132.959 -9.86328 128.32 -14.502 128.32 -20.6543 C 128.32 -26.8066 132.959 -31.4453 139.111 -31.4453 C 145.264 -31.4453 149.902 -26.8066 149.902 -20.6543 C 149.902 -14.502 145.264 -9.86328 139.111 -9.86328 Z M 75.0977 -12.8418 C 70.5078 -12.8418 67.2852 -16.0645 67.2852 -20.6543 C 67.2852 -25.2441 70.5078 -28.4668 75.0977 -28.4668 L 109.082 -28.4668 C 113.672 -28.4668 116.895 -25.2441 116.895 -20.6543 C 116.895 -16.0645 113.672 -12.8418 109.082 -12.8418 Z"/>
  </g>
  <g id="Medium-L" transform="matrix(1 0 0 1 1655.47 1556)">
   <path d="M 24.4629 24.5117 L 31.8848 24.5117 C 36.6211 24.5117 40.2832 20.8496 40.2832 16.2109 L 40.2832 5.46875 C 54.2969 6.39648 74.7559 7.03125 91.1133 7.03125 C 107.471 7.03125 127.93 6.39648 141.943 5.46875 L 141.943 16.2109 C 141.943 20.8496 145.557 24.5117 150.293 24.5117 L 157.764 24.5117 C 162.5 24.5117 166.113 20.8496 166.113 16.2109 L 166.113 -20.4102 C 166.113 -31.4941 163.965 -37.4512 158.252 -44.8242 L 152.686 -51.9043 C 150.391 -63.2324 146.191 -75.1465 144.043 -79.7852 C 140.576 -87.1094 133.887 -91.3086 125.537 -92.4316 C 121.045 -93.0664 107.324 -93.4082 91.1133 -93.4082 C 74.8535 -93.4082 61.1328 -93.0176 56.6895 -92.4316 C 48.3398 -91.4062 41.6016 -87.1094 38.1836 -79.7852 C 35.9863 -75.1465 31.8359 -63.2324 29.4922 -51.9043 L 23.9258 -44.8242 C 18.2617 -37.4512 16.0645 -31.4941 16.0645 -20.4102 L 16.0645 16.2109 C 16.0645 20.8496 19.7266 24.5117 24.4629 24.5117 Z M 42.6758 -57.373 C 44.1406 -64.2578 47.0215 -72.5098 48.9258 -75.8789 C 50.7812 -79.1992 52.9785 -80.7617 57.0312 -81.2988 C 61.6211 -81.9336 72.5098 -82.2754 91.1133 -82.2754 C 109.668 -82.2754 120.557 -82.0312 125.195 -81.2988 C 129.248 -80.7129 131.396 -79.1992 133.301 -75.8789 C 135.254 -72.5586 137.939 -64.2578 139.551 -57.373 C 140.137 -54.9316 139.111 -53.7109 136.377 -53.8574 C 126.367 -54.4922 114.209 -55.0781 91.1133 -55.0781 C 68.0176 -55.0781 55.8594 -54.4922 45.8008 -53.8574 C 43.0664 -53.7109 42.0898 -54.9316 42.6758 -57.373 Z M 44.3848 -9.47266 C 38.3789 -9.47266 33.8379 -14.0137 33.8379 -20.0195 C 33.8379 -26.0254 38.3789 -30.5664 44.3848 -30.5664 C 50.3906 -30.5664 54.9316 -26.0254 54.9316 -20.0195 C 54.9316 -14.0137 50.3906 -9.47266 44.3848 -9.47266 Z M 137.842 -9.47266 C 131.836 -9.47266 127.295 -14.0137 127.295 -20.0195 C 127.295 -26.0254 131.836 -30.5664 137.842 -30.5664 C 143.848 -30.5664 148.389 -26.0254 148.389 -20.0195 C 148.389 -14.0137 143.848 -9.47266 137.842 -9.47266 Z M 74.3652 -12.4512 C 69.873 -12.4512 66.748 -15.5762 66.748 -20.0195 C 66.748 -24.5117 69.873 -27.6367 74.3652 -27.6367 L 107.861 -27.6367 C 112.305 -27.6367 115.43 -24.5117 115.43 -20.0195 C 115.43 -15.5762 112.305 -12.4512 107.861 -12.4512 Z"/>
  </g>
  <g id="Regular-L" transform="matrix(1 0 0 1 1360.05 1556)">
   <path d="M 24.2676 23.9746 L 31.5918 23.9746 C 36.2305 23.9746 39.7949 20.4102 39.7949 15.8203 L 39.7949 5.41992 C 53.7598 6.29883 73.877 6.88477 89.7949 6.88477 C 105.713 6.88477 125.83 6.29883 139.795 5.41992 L 139.795 15.8203 C 139.795 20.4102 143.359 23.9746 147.998 23.9746 L 155.322 23.9746 C 159.961 23.9746 163.525 20.4102 163.525 15.8203 L 163.525 -19.8242 C 163.525 -30.6152 161.23 -36.4258 155.664 -43.6035 L 150.293 -50.5859 C 147.998 -61.9141 143.799 -73.877 141.602 -78.5156 C 138.281 -85.5957 131.787 -89.5508 123.779 -90.6738 C 119.531 -91.2109 105.566 -91.5527 89.7949 -91.5527 C 74.0234 -91.5527 60.0586 -91.1621 55.8105 -90.6738 C 47.8027 -89.6484 41.3086 -85.5957 37.9883 -78.5156 C 35.791 -73.877 31.6406 -61.9141 29.2969 -50.5859 L 23.9258 -43.6035 C 18.3594 -36.4258 16.0645 -30.6152 16.0645 -19.8242 L 16.0645 15.8203 C 16.0645 20.4102 19.6289 23.9746 24.2676 23.9746 Z M 41.2598 -55.6641 C 42.8711 -63.0859 45.8984 -71.7773 47.9492 -75.3906 C 49.707 -78.4668 51.8066 -79.9805 55.5664 -80.5176 C 60.4004 -81.1523 71.2891 -81.543 89.7949 -81.543 C 108.301 -81.543 119.189 -81.25 124.023 -80.5176 C 127.783 -79.9316 129.834 -78.4668 131.641 -75.3906 C 133.74 -71.8262 136.572 -63.0859 138.33 -55.6641 C 138.867 -53.5156 137.988 -52.5391 135.596 -52.6855 C 124.951 -53.3691 112.646 -54.0039 89.7949 -54.0039 C 66.9434 -54.0039 54.6387 -53.3691 43.9941 -52.6855 C 41.6016 -52.5391 40.7715 -53.5156 41.2598 -55.6641 Z M 43.4082 -8.98438 C 37.5977 -8.98438 33.2031 -13.3789 33.2031 -19.1895 C 33.2031 -25.0488 37.5977 -29.4434 43.4082 -29.4434 C 49.2676 -29.4434 53.6621 -25.0488 53.6621 -19.1895 C 53.6621 -13.3789 49.2676 -8.98438 43.4082 -8.98438 Z M 136.182 -8.98438 C 130.322 -8.98438 125.928 -13.3789 125.928 -19.1895 C 125.928 -25.0488 130.322 -29.4434 136.182 -29.4434 C 141.992 -29.4434 146.387 -25.0488 146.387 -19.1895 C 146.387 -13.3789 141.992 -8.98438 136.182 -8.98438 Z M 73.3887 -11.8652 C 69.043 -11.8652 66.0156 -14.8926 66.0156 -19.1895 C 66.0156 -23.5352 69.043 -26.5625 73.3887 -26.5625 L 106.25 -26.5625 C 110.547 -26.5625 113.574 -23.5352 113.574 -19.1895 C 113.574 -14.8926 110.547 -11.8652 106.25 -11.8652 Z"/>
  </g>
  <g id="Light-L" transform="matrix(1 0 0 1 1064.44 1556)">
   <path d="M 24.0723 23.5352 L 31.25 23.5352 C 35.791 23.5352 39.3066 20.0195 39.3066 15.5273 L 39.3066 5.32227 C 53.1738 6.25 73.0957 6.83594 88.6719 6.83594 C 104.248 6.83594 124.219 6.25 138.086 5.32227 L 138.086 15.5273 C 138.086 20.0195 141.602 23.5352 146.143 23.5352 L 153.271 23.5352 C 157.812 23.5352 161.328 20.0195 161.328 15.5273 L 161.328 -19.1895 C 161.328 -30.1758 158.789 -35.7422 153.564 -42.5293 L 148.096 -49.6094 C 145.85 -60.9375 141.65 -72.9004 139.453 -77.5391 C 136.133 -84.5703 129.688 -88.2324 122.217 -89.2578 C 117.92 -89.7949 103.711 -90.1367 88.6719 -90.1367 C 73.6328 -90.1367 59.4727 -89.7949 55.1758 -89.2578 C 47.6562 -88.2812 41.2109 -84.5703 37.8906 -77.5391 C 35.7422 -72.9004 31.543 -60.9375 29.248 -49.6094 L 23.7793 -42.5293 C 18.6035 -35.7422 16.0645 -30.1758 16.0645 -19.1895 L 16.0645 15.5273 C 16.0645 20.0195 19.5801 23.5352 24.0723 23.5352 Z M 40.1855 -54.4434 C 41.9434 -62.5488 44.873 -70.8008 46.9238 -74.3652 C 48.7793 -77.5879 51.1719 -79.4922 55.5176 -80.0293 C 60.4492 -80.6641 71.4844 -81.0059 88.6719 -81.0059 C 105.859 -81.0059 116.943 -80.7617 121.875 -80.0293 C 126.172 -79.4434 128.564 -77.5879 130.469 -74.3652 C 132.52 -70.8496 135.352 -62.5488 137.207 -54.4434 C 137.646 -52.5391 136.914 -51.3672 134.57 -51.5625 C 123.682 -52.2949 111.67 -52.832 88.6719 -52.832 C 65.7227 -52.832 53.7109 -52.2949 42.7734 -51.5625 C 40.4297 -51.3672 39.7461 -52.5391 40.1855 -54.4434 Z M 41.748 -8.44727 C 36.084 -8.44727 31.8848 -12.6953 31.8848 -18.3594 C 31.8848 -24.0234 36.084 -28.2227 41.748 -28.2227 C 47.4121 -28.2227 51.6602 -24.0234 51.6602 -18.3594 C 51.6602 -12.6953 47.4121 -8.44727 41.748 -8.44727 Z M 135.596 -8.44727 C 129.932 -8.44727 125.732 -12.6953 125.732 -18.3594 C 125.732 -24.0234 129.932 -28.2227 135.596 -28.2227 C 141.26 -28.2227 145.508 -24.0234 145.508 -18.3594 C 145.508 -12.6953 141.26 -8.44727 135.596 -8.44727 Z M 72.6074 -11.2793 C 68.457 -11.2793 65.5762 -14.1602 65.5762 -18.3594 C 65.5762 -22.5586 68.457 -25.3906 72.6074 -25.3906 L 104.736 -25.3906 C 108.936 -25.3906 111.816 -22.5586 111.816 -18.3594 C 111.816 -14.1602 108.936 -11.2793 104.736 -11.2793 Z"/>
  </g>
  <g id="Thin-L" transform="matrix(1 0 0 1 769.191 1556)">
   <path d="M 23.8281 22.9492 L 30.8105 22.9492 C 35.2051 22.9492 38.623 19.5312 38.623 15.1855 L 38.623 5.27344 C 52.4414 6.15234 72.1191 6.73828 87.207 6.73828 C 102.344 6.73828 122.021 6.15234 135.84 5.27344 L 135.84 15.1855 C 135.84 19.5312 139.258 22.9492 143.604 22.9492 L 150.586 22.9492 C 154.98 22.9492 158.398 19.5312 158.398 15.1855 L 158.398 -18.3105 C 158.398 -29.6387 155.566 -34.8633 150.83 -41.0645 L 145.264 -48.3398 C 143.018 -59.668 138.818 -71.6309 136.621 -76.2207 C 133.35 -83.252 126.953 -86.4746 120.117 -87.4023 C 115.771 -87.9395 101.318 -88.2812 87.207 -88.2812 C 73.1445 -88.2812 58.6426 -87.9395 54.3457 -87.4023 C 47.4609 -86.4746 41.1133 -83.252 37.793 -76.2207 C 35.6445 -71.6309 31.4453 -59.668 29.1992 -48.3398 L 23.584 -41.0645 C 18.8965 -34.8633 16.0645 -29.6387 16.0645 -18.3105 L 16.0645 15.1855 C 16.0645 19.5312 19.4824 22.9492 23.8281 22.9492 Z M 38.7207 -52.832 C 40.6738 -61.8164 43.5059 -69.5312 45.5566 -72.998 C 47.5098 -76.416 50.3906 -78.8086 55.4199 -79.4434 C 60.4492 -80.0781 71.7773 -80.3223 87.207 -80.3223 C 102.637 -80.3223 114.014 -80.0781 119.043 -79.4434 C 124.072 -78.8086 126.904 -76.416 128.906 -72.998 C 130.908 -69.5312 133.691 -61.8164 135.742 -52.832 C 136.084 -51.2695 135.547 -49.9023 133.252 -50.0488 C 122.021 -50.8301 110.352 -51.2695 87.207 -51.2695 C 64.1113 -51.2695 52.4414 -50.8301 41.1621 -50.0488 C 38.916 -49.9023 38.3789 -51.2695 38.7207 -52.832 Z M 39.5508 -7.76367 C 34.1309 -7.76367 30.127 -11.7676 30.127 -17.2363 C 30.127 -22.6562 34.1309 -26.6602 39.5508 -26.6602 C 45.0195 -26.6602 49.0234 -22.6562 49.0234 -17.2363 C 49.0234 -11.7676 45.0195 -7.76367 39.5508 -7.76367 Z M 134.863 -7.76367 C 129.443 -7.76367 125.439 -11.7676 125.439 -17.2363 C 125.439 -22.6562 129.443 -26.6602 134.863 -26.6602 C 140.332 -26.6602 144.336 -22.6562 144.336 -17.2363 C 144.336 -11.7676 140.332 -7.76367 134.863 -7.76367 Z M 71.6309 -10.5469 C 67.6758 -10.5469 64.9414 -13.2324 64.9414 -17.2363 C 64.9414 -21.2402 67.6758 -23.9258 71.6309 -23.9258 L 102.783 -23.9258 C 106.787 -23.9258 109.473 -21.2402 109.473 -17.2363 C 109.473 -13.2324 106.787 -10.5469 102.783 -10.5469 Z"/>
  </g>
  <g id="Ultralight-L" transform="matrix(1 0 0 1 473.237 1556)">
   <path d="M 23.7305 22.6562 L 30.6152 22.6562 C 34.9121 22.6562 38.2324 19.2871 38.2324 14.9902 L 38.2324 5.22461 C 52.0508 6.10352 71.582 6.68945 86.4746 6.68945 C 101.367 6.68945 120.898 6.10352 134.668 5.22461 L 134.668 14.9902 C 134.668 19.2871 138.037 22.6562 142.334 22.6562 L 149.219 22.6562 C 153.516 22.6562 156.885 19.2871 156.885 14.9902 L 156.885 -17.8223 C 156.885 -29.3457 153.906 -34.4238 149.463 -40.2832 L 143.799 -47.6562 C 141.553 -58.9844 137.354 -70.9961 135.205 -75.5371 C 131.885 -82.5684 125.586 -85.5957 119.043 -86.4258 C 114.697 -87.0117 100.049 -87.3047 86.4746 -87.3047 C 72.8516 -87.3047 58.252 -87.0117 53.9062 -86.4258 C 47.3633 -85.5469 41.0645 -82.5684 37.7441 -75.5371 C 35.5957 -70.9961 31.3965 -58.9844 29.1504 -47.6562 L 23.4863 -40.2832 C 19.043 -34.4238 16.0645 -29.3457 16.0645 -17.8223 L 16.0645 14.9902 C 16.0645 19.2871 19.4336 22.6562 23.7305 22.6562 Z M 37.9883 -52.002 C 40.0391 -61.4746 42.8223 -68.8965 44.8242 -72.3145 C 46.875 -75.8301 49.9512 -78.4668 55.3711 -79.1016 C 60.4492 -79.7363 71.9727 -79.9805 86.4746 -79.9805 C 100.977 -79.9805 112.5 -79.7363 117.578 -79.1016 C 122.998 -78.4668 126.074 -75.8301 128.125 -72.3145 C 130.127 -68.8965 132.812 -61.4746 134.961 -52.002 C 135.254 -50.6348 134.814 -49.1211 132.568 -49.3164 C 121.143 -50.0977 109.668 -50.4883 86.4746 -50.4883 C 63.2812 -50.4883 51.7578 -50.0977 40.332 -49.3164 C 38.1348 -49.1211 37.6953 -50.6348 37.9883 -52.002 Z M 38.4277 -7.42188 C 33.1055 -7.42188 29.1992 -11.3281 29.1992 -16.6504 C 29.1992 -21.9727 33.1055 -25.8789 38.4277 -25.8789 C 43.75 -25.8789 47.6562 -21.9727 47.6562 -16.6504 C 47.6562 -11.3281 43.75 -7.42188 38.4277 -7.42188 Z M 134.521 -7.42188 C 129.15 -7.42188 125.293 -11.3281 125.293 -16.6504 C 125.293 -21.9727 129.15 -25.8789 134.521 -25.8789 C 139.844 -25.8789 143.701 -21.9727 143.701 -16.6504 C 143.701 -11.3281 139.844 -7.42188 134.521 -7.42188 Z M 71.1426 -10.1562 C 67.2363 -10.1562 64.6484 -12.7441 64.6484 -16.6504 C 64.6484 -20.5566 67.2363 -23.1445 71.1426 -23.1445 L 101.807 -23.1445 C 105.664 -23.1445 108.301 -20.5566 108.301 -16.6504 C 108.301 -12.7441 105.664 -10.1562 101.807 -10.1562 Z"/>
  </g>
  <g id="Black-M" transform="matrix(1 0 0 1 2856.5 1126)">
   <path d="M 19.6777 13.7207 L 26.1719 13.7207 C 30.2734 13.7207 33.4473 10.5469 33.4473 6.49414 L 33.4473 -3.36914 C 44.4824 -2.53906 62.0605 -1.95312 76.9043 -1.95312 C 91.748 -1.95312 109.375 -2.53906 120.361 -3.32031 L 120.361 6.49414 C 120.361 10.5469 123.584 13.7207 127.637 13.7207 L 134.131 13.7207 C 138.184 13.7207 141.357 10.5469 141.357 6.49414 L 141.357 -19.6289 L 141.357 -26.3184 C 141.357 -36.6699 140.137 -42.2363 135.352 -48.4863 L 130.078 -54.4922 C 128.174 -63.2812 124.951 -72.4121 123.193 -76.123 C 120.02 -83.0566 113.77 -87.3047 105.762 -88.3789 C 101.025 -89.0137 91.6016 -89.3555 76.9043 -89.3555 C 62.207 -89.3555 52.7832 -89.0137 48.0469 -88.3789 C 40.0879 -87.3047 33.7891 -83.0566 30.6152 -76.123 C 28.8574 -72.4121 25.6348 -63.2812 23.7305 -54.4922 L 18.5059 -48.4863 C 13.6719 -42.2363 12.4512 -36.6699 12.4512 -26.3184 L 12.4512 -19.6289 L 12.4512 6.49414 C 12.4512 10.5469 15.625 13.7207 19.6777 13.7207 Z M 39.8926 -60.9375 C 40.5762 -63.5742 41.7969 -67.4316 42.5293 -68.9453 C 44.4336 -72.9004 47.0215 -74.3652 51.8555 -75 C 54.248 -75.3906 62.8906 -75.4883 76.9043 -75.4883 C 90.9668 -75.4883 99.5605 -75.3418 102.002 -75 C 106.836 -74.3652 109.424 -72.9004 111.279 -68.9453 C 112.012 -67.4316 113.33 -63.5742 113.916 -60.9375 C 114.746 -57.4707 113.232 -55.2246 109.424 -55.2734 C 104.785 -55.3223 96.0938 -55.7617 76.9043 -55.7617 C 57.8125 -55.7617 49.1211 -55.3223 44.3848 -55.2734 C 40.5762 -55.2246 39.0137 -57.4707 39.8926 -60.9375 Z M 38.5254 -17.6758 C 33.0078 -17.6758 28.8086 -21.875 28.8086 -27.3438 C 28.8086 -32.8613 33.0078 -37.0605 38.5254 -37.0605 C 43.9941 -37.0605 48.1934 -32.8613 48.1934 -27.3438 C 48.1934 -21.875 43.9941 -17.6758 38.5254 -17.6758 Z M 115.332 -17.6758 C 109.814 -17.6758 105.615 -21.875 105.615 -27.3438 C 105.615 -32.8613 109.814 -37.0605 115.332 -37.0605 C 120.801 -37.0605 125 -32.8613 125 -27.3438 C 125 -21.875 120.801 -17.6758 115.332 -17.6758 Z M 62.4023 -20.2148 C 58.3008 -20.2148 55.2734 -23.2422 55.2734 -27.3438 C 55.2734 -31.4941 58.3008 -34.4727 62.4023 -34.4727 L 91.4062 -34.4727 C 95.5078 -34.4727 98.5352 -31.4941 98.5352 -27.3438 C 98.5352 -23.2422 95.5078 -20.2148 91.4062 -20.2148 Z"/>
  </g>
  <g id="Heavy-M" transform="matrix(1 0 0 1 2561.35 1126)">
   <path d="M 19.5312 13.0371 L 25.8301 13.0371 C 29.7852 13.0371 32.9102 9.96094 32.9102 6.00586 L 32.9102 -3.41797 C 43.8965 -2.68555 61.0352 -2.09961 75.3418 -2.09961 C 89.5996 -2.09961 106.787 -2.63672 117.773 -3.41797 L 117.773 6.00586 C 117.773 9.96094 120.85 13.0371 124.854 13.0371 L 131.152 13.0371 C 135.107 13.0371 138.232 9.96094 138.232 6.00586 L 138.232 -25.7324 C 138.232 -35.5469 136.865 -40.8691 132.129 -47.0215 L 127.148 -52.8809 C 125.293 -61.6699 122.07 -70.8496 120.312 -74.5117 C 117.285 -81.1035 111.279 -85.1562 103.662 -86.1328 C 99.2676 -86.7188 89.5508 -87.1094 75.3418 -87.1094 C 61.1328 -87.1094 51.416 -86.7188 47.0215 -86.1328 C 39.3555 -85.1562 33.3984 -81.1035 30.3223 -74.5117 C 28.6133 -70.8496 25.3906 -61.6699 23.5352 -52.8809 L 18.5059 -47.0215 C 13.7695 -40.8691 12.4512 -35.5469 12.4512 -25.7324 L 12.4512 6.00586 C 12.4512 9.96094 15.5273 13.0371 19.5312 13.0371 Z M 38.1836 -58.7891 C 38.9648 -62.0605 40.4785 -66.6504 41.4062 -68.457 C 43.1641 -72.0215 45.459 -73.3887 49.8047 -73.9746 C 52.4902 -74.3652 61.0352 -74.5117 75.3418 -74.5117 C 89.5996 -74.5117 98.1445 -74.3652 100.928 -73.9746 C 105.225 -73.3887 107.52 -72.0215 109.277 -68.457 C 110.205 -66.6504 111.719 -62.0605 112.5 -58.7891 C 113.232 -55.7129 111.865 -53.8086 108.545 -53.8574 C 103.076 -54.0527 94.1406 -54.4922 75.3418 -54.4922 C 56.543 -54.4922 47.6562 -54.0527 42.1387 -53.8574 C 38.7695 -53.8086 37.4023 -55.7129 38.1836 -58.7891 Z M 37.5977 -17.0898 C 32.2754 -17.0898 28.2715 -21.0938 28.2715 -26.416 C 28.2715 -31.6895 32.2754 -35.7422 37.5977 -35.7422 C 42.8711 -35.7422 46.9238 -31.6895 46.9238 -26.416 C 46.9238 -21.0938 42.8711 -17.0898 37.5977 -17.0898 Z M 113.086 -17.0898 C 107.764 -17.0898 103.76 -21.0938 103.76 -26.416 C 103.76 -31.6895 107.764 -35.7422 113.086 -35.7422 C 118.359 -35.7422 122.412 -31.6895 122.412 -26.416 C 122.412 -21.0938 118.359 -17.0898 113.086 -17.0898 Z M 61.2305 -19.5801 C 57.2266 -19.5801 54.3945 -22.4609 54.3945 -26.416 C 54.3945 -30.3711 57.2266 -33.252 61.2305 -33.252 L 89.4531 -33.252 C 93.4082 -33.252 96.2891 -30.3711 96.2891 -26.416 C 96.2891 -22.4609 93.4082 -19.5801 89.4531 -19.5801 Z"/>
  </g>
  <g id="Bold-M" transform="matrix(1 0 0 1 2266.42 1126)">
   <path d="M 19.2871 12.3047 L 25.4395 12.3047 C 29.2969 12.3047 32.2754 9.32617 32.2754 5.46875 L 32.2754 -3.51562 C 43.2617 -2.7832 59.9121 -2.24609 73.584 -2.24609 C 87.2559 -2.24609 103.906 -2.7832 114.844 -3.51562 L 114.844 5.46875 C 114.844 9.32617 117.822 12.3047 121.68 12.3047 L 127.832 12.3047 C 131.689 12.3047 134.668 9.32617 134.668 5.46875 L 134.668 -25 C 134.668 -34.2773 133.252 -39.4043 128.564 -45.4102 L 123.877 -51.0742 C 122.07 -59.8633 118.799 -69.0918 117.09 -72.7051 C 114.209 -78.9551 108.545 -82.7148 101.27 -83.6914 C 97.3145 -84.2285 87.207 -84.5215 73.584 -84.5215 C 59.9121 -84.5215 49.8535 -84.1797 45.8496 -83.6914 C 38.623 -82.7637 32.959 -78.9551 30.0293 -72.7051 C 28.3203 -69.0918 25.0977 -59.8633 23.2422 -51.0742 L 18.5547 -45.4102 C 13.916 -39.4043 12.4512 -34.2773 12.4512 -25 L 12.4512 5.46875 C 12.4512 9.32617 15.4297 12.3047 19.2871 12.3047 Z M 36.2305 -56.3477 C 37.1582 -60.3516 38.9648 -65.7715 40.1367 -67.9199 C 41.748 -71.0449 43.75 -72.3145 47.5098 -72.8027 C 50.5371 -73.2422 58.9844 -73.4375 73.584 -73.4375 C 88.1348 -73.4375 96.582 -73.2422 99.6582 -72.8027 C 103.369 -72.2656 105.371 -71.0449 106.982 -67.9199 C 108.203 -65.7715 109.961 -60.3516 110.889 -56.3477 C 111.523 -53.7109 110.4 -52.2461 107.52 -52.3438 C 101.172 -52.6367 91.9922 -53.0762 73.584 -53.0762 C 55.1758 -53.0762 45.9961 -52.6367 39.5996 -52.3438 C 36.7676 -52.2461 35.5957 -53.7109 36.2305 -56.3477 Z M 36.5723 -16.4062 C 31.4941 -16.4062 27.6367 -20.2637 27.6367 -25.3418 C 27.6367 -30.3711 31.4941 -34.2285 36.5723 -34.2285 C 41.6016 -34.2285 45.459 -30.3711 45.459 -25.3418 C 45.459 -20.2637 41.6016 -16.4062 36.5723 -16.4062 Z M 110.596 -16.4062 C 105.518 -16.4062 101.66 -20.2637 101.66 -25.3418 C 101.66 -30.3711 105.518 -34.2285 110.596 -34.2285 C 115.625 -34.2285 119.482 -30.3711 119.482 -25.3418 C 119.482 -20.2637 115.625 -16.4062 110.596 -16.4062 Z M 59.8633 -18.8477 C 56.0547 -18.8477 53.3691 -21.5332 53.3691 -25.3418 C 53.3691 -29.1016 56.0547 -31.8359 59.8633 -31.8359 L 87.3047 -31.8359 C 91.0645 -31.8359 93.75 -29.1016 93.75 -25.3418 C 93.75 -21.5332 91.0645 -18.8477 87.3047 -18.8477 Z"/>
  </g>
  <g id="Semibold-M" transform="matrix(1 0 0 1 1970.93 1126)">
   <path d="M 19.1895 11.8164 L 25.1465 11.8164 C 28.9551 11.8164 31.8848 8.88672 31.8848 5.12695 L 31.8848 -3.61328 C 42.7734 -2.88086 59.082 -2.34375 72.3633 -2.34375 C 85.5957 -2.34375 101.904 -2.83203 112.842 -3.56445 L 112.842 5.12695 C 112.842 8.88672 115.771 11.8164 119.531 11.8164 L 125.537 11.8164 C 129.297 11.8164 132.227 8.88672 132.227 5.12695 L 132.227 -24.5117 C 132.227 -33.3984 130.713 -38.3301 126.123 -44.2871 L 121.631 -49.8535 C 119.824 -58.6426 116.553 -67.8711 114.844 -71.4844 C 112.061 -77.4414 106.641 -81.0059 99.6582 -81.9824 C 95.9473 -82.4707 85.6445 -82.7637 72.3633 -82.7637 C 59.082 -82.7637 48.7793 -82.4219 45.0684 -81.9824 C 38.0859 -81.1035 32.6172 -77.4414 29.834 -71.4844 C 28.125 -67.8711 24.9023 -58.6426 23.0957 -49.8535 L 18.6035 -44.2871 C 13.9648 -38.3301 12.4512 -33.3984 12.4512 -24.5117 L 12.4512 5.12695 C 12.4512 8.88672 15.3809 11.8164 19.1895 11.8164 Z M 34.9121 -54.6875 C 35.9375 -59.1797 37.9395 -65.1367 39.2578 -67.5781 C 40.7715 -70.4102 42.5781 -71.5332 45.8984 -71.9727 C 49.1699 -72.4609 57.5684 -72.7051 72.3633 -72.7051 C 87.1094 -72.7051 95.5078 -72.5098 98.8281 -71.9727 C 102.148 -71.4844 103.906 -70.4102 105.42 -67.5781 C 106.787 -65.1855 108.74 -59.1797 109.766 -54.6875 C 110.352 -52.3438 109.326 -51.1719 106.836 -51.2695 C 99.8535 -51.6113 90.4785 -52.0996 72.3633 -52.0996 C 54.248 -52.0996 44.873 -51.6113 37.8418 -51.2695 C 35.3516 -51.1719 34.375 -52.3438 34.9121 -54.6875 Z M 35.8398 -15.9668 C 30.957 -15.9668 27.2461 -19.6777 27.2461 -24.6094 C 27.2461 -29.4922 30.957 -33.2031 35.8398 -33.2031 C 40.7227 -33.2031 44.4336 -29.4922 44.4336 -24.6094 C 44.4336 -19.6777 40.7227 -15.9668 35.8398 -15.9668 Z M 108.838 -15.9668 C 103.955 -15.9668 100.244 -19.6777 100.244 -24.6094 C 100.244 -29.4922 103.955 -33.2031 108.838 -33.2031 C 113.77 -33.2031 117.48 -29.4922 117.48 -24.6094 C 117.48 -19.6777 113.77 -15.9668 108.838 -15.9668 Z M 58.9355 -18.3594 C 55.2734 -18.3594 52.6855 -20.9473 52.6855 -24.6094 C 52.6855 -28.2715 55.2734 -30.8594 58.9355 -30.8594 L 85.791 -30.8594 C 89.4531 -30.8594 92.041 -28.2715 92.041 -24.6094 C 92.041 -20.9473 89.4531 -18.3594 85.791 -18.3594 Z"/>
  </g>
  <g id="Medium-M" transform="matrix(1 0 0 1 1675.12 1126)">
   <path d="M 19.043 11.4258 L 24.9512 11.4258 C 28.6621 11.4258 31.543 8.54492 31.543 4.83398 L 31.543 -3.66211 C 42.4316 -2.92969 58.4961 -2.44141 71.4355 -2.44141 C 84.375 -2.44141 100.439 -2.92969 111.279 -3.61328 L 111.279 4.83398 C 111.279 8.54492 114.16 11.4258 117.92 11.4258 L 123.779 11.4258 C 127.539 11.4258 130.42 8.54492 130.42 4.83398 L 130.42 -24.1699 C 130.42 -32.7637 128.809 -37.5488 124.268 -43.457 L 119.922 -48.9258 C 118.115 -57.7148 114.893 -66.9434 113.184 -70.5566 C 110.449 -76.3184 105.176 -79.7363 98.4375 -80.6641 C 94.873 -81.1523 84.4238 -81.3965 71.4355 -81.3965 C 58.4473 -81.3965 47.9492 -81.1035 44.4336 -80.6641 C 37.6953 -79.834 32.373 -76.3184 29.6875 -70.5566 C 27.9785 -66.9434 24.7559 -57.7148 22.9492 -48.9258 L 18.6035 -43.457 C 14.0137 -37.5488 12.4512 -32.7637 12.4512 -24.1699 L 12.4512 4.83398 C 12.4512 8.54492 15.332 11.4258 19.043 11.4258 Z M 33.8867 -53.418 C 35.0098 -58.3008 37.1582 -64.6973 38.623 -67.2852 C 40.0391 -69.873 41.6504 -70.9473 44.6777 -71.3867 C 48.1445 -71.8262 56.4941 -72.1191 71.4355 -72.1191 C 86.3281 -72.1191 94.7266 -71.9238 98.1934 -71.3867 C 101.221 -70.9473 102.783 -69.873 104.248 -67.2852 C 105.762 -64.7461 107.764 -58.3008 108.936 -53.418 C 109.473 -51.3184 108.545 -50.3418 106.348 -50.4395 C 98.8281 -50.8789 89.3555 -51.3672 71.4355 -51.3672 C 53.5156 -51.3672 44.043 -50.8789 36.5234 -50.4395 C 34.2773 -50.3418 33.4473 -51.3184 33.8867 -53.418 Z M 35.3027 -15.625 C 30.5176 -15.625 26.9043 -19.2383 26.9043 -24.0234 C 26.9043 -28.8086 30.5176 -32.4219 35.3027 -32.4219 C 40.0879 -32.4219 43.7012 -28.8086 43.7012 -24.0234 C 43.7012 -19.2383 40.0879 -15.625 35.3027 -15.625 Z M 107.568 -15.625 C 102.783 -15.625 99.1699 -19.2383 99.1699 -24.0234 C 99.1699 -28.8086 102.783 -32.4219 107.568 -32.4219 C 112.305 -32.4219 115.918 -28.8086 115.918 -24.0234 C 115.918 -19.2383 112.305 -15.625 107.568 -15.625 Z M 58.2031 -17.9688 C 54.6387 -17.9688 52.1484 -20.459 52.1484 -24.0234 C 52.1484 -27.5879 54.6387 -30.127 58.2031 -30.127 L 84.668 -30.127 C 88.2324 -30.127 90.7227 -27.5879 90.7227 -24.0234 C 90.7227 -20.459 88.2324 -17.9688 84.668 -17.9688 Z"/>
  </g>
  <g id="Regular-M" transform="matrix(1 0 0 1 1379.63 1126)">
   <path d="M 18.9453 10.8887 L 24.6582 10.8887 C 28.3203 10.8887 31.1523 8.10547 31.1523 4.49219 L 31.1523 -3.71094 C 41.9922 -3.02734 57.666 -2.53906 70.2148 -2.53906 C 82.7637 -2.53906 98.4863 -3.02734 109.326 -3.71094 L 109.326 4.49219 C 109.326 8.10547 112.109 10.8887 115.771 10.8887 L 121.533 10.8887 C 125.195 10.8887 127.979 8.10547 127.979 4.49219 L 127.979 -23.6816 C 127.979 -31.8848 126.318 -36.5234 121.826 -42.3828 L 117.676 -47.7051 C 115.918 -56.4941 112.646 -65.7227 110.986 -69.3359 C 108.35 -74.8535 103.32 -78.125 96.8262 -79.0039 C 93.5547 -79.3945 82.8613 -79.6875 70.2148 -79.6875 C 57.6172 -79.6875 46.9238 -79.3457 43.6523 -79.0039 C 37.1582 -78.2227 32.0801 -74.8535 29.4922 -69.3359 C 27.7832 -65.7227 24.5605 -56.4941 22.7539 -47.7051 L 18.6523 -42.3828 C 14.1113 -36.5234 12.4512 -31.8848 12.4512 -23.6816 L 12.4512 4.49219 C 12.4512 8.10547 15.2832 10.8887 18.9453 10.8887 Z M 32.6172 -51.7578 C 33.7402 -57.1289 36.1328 -64.1113 37.7441 -66.9434 C 39.0625 -69.2383 40.4785 -70.2148 43.1152 -70.5566 C 46.8262 -71.0938 55.127 -71.3867 70.2148 -71.3867 C 85.3516 -71.3867 93.6523 -71.1914 97.3145 -70.5566 C 99.9512 -70.166 101.318 -69.2383 102.686 -66.9434 C 104.346 -64.1602 106.592 -57.1289 107.861 -51.7578 C 108.301 -49.9512 107.52 -49.2676 105.664 -49.4141 C 97.5586 -49.9023 87.8906 -50.4395 70.2148 -50.4395 C 52.5879 -50.4395 42.9199 -49.9023 34.8145 -49.4141 C 32.9102 -49.2676 32.1777 -49.9512 32.6172 -51.7578 Z M 34.6191 -15.1855 C 29.9805 -15.1855 26.5137 -18.7012 26.5137 -23.291 C 26.5137 -27.9297 29.9805 -31.3965 34.6191 -31.3965 C 39.209 -31.3965 42.7246 -27.9297 42.7246 -23.291 C 42.7246 -18.7012 39.209 -15.1855 34.6191 -15.1855 Z M 105.859 -15.1855 C 101.221 -15.1855 97.7539 -18.7012 97.7539 -23.291 C 97.7539 -27.9297 101.221 -31.3965 105.859 -31.3965 C 110.449 -31.3965 113.965 -27.9297 113.965 -23.291 C 113.965 -18.7012 110.449 -15.1855 105.859 -15.1855 Z M 57.2754 -17.4316 C 53.8574 -17.4316 51.416 -19.873 51.416 -23.291 C 51.416 -26.7578 53.8574 -29.1504 57.2754 -29.1504 L 83.1543 -29.1504 C 86.6211 -29.1504 89.0137 -26.7578 89.0137 -23.291 C 89.0137 -19.873 86.6211 -17.4316 83.1543 -17.4316 Z"/>
  </g>
  <g id="Light-M" transform="matrix(1 0 0 1 1083.9 1126)">
   <path d="M 18.75 10.498 L 24.3652 10.498 C 27.9297 10.498 30.6641 7.76367 30.6641 4.24805 L 30.6641 -3.75977 C 41.4551 -3.07617 56.9824 -2.58789 69.2383 -2.58789 C 81.4453 -2.58789 96.9727 -3.07617 107.764 -3.75977 L 107.764 4.24805 C 107.764 7.76367 110.547 10.498 114.062 10.498 L 119.727 10.498 C 123.242 10.498 126.025 7.76367 126.025 4.24805 L 126.025 -23.0957 C 126.025 -31.4941 124.17 -35.9375 119.971 -41.3574 L 115.771 -46.8262 C 113.965 -55.6152 110.742 -64.8438 109.033 -68.457 C 106.445 -73.9258 101.465 -76.9043 95.4102 -77.7344 C 92.0898 -78.1738 81.2012 -78.418 69.2383 -78.418 C 57.2754 -78.418 46.3379 -78.125 43.0664 -77.7344 C 37.0117 -76.9531 31.9824 -73.9258 29.3945 -68.457 C 27.7344 -64.8438 24.4629 -55.6152 22.7051 -46.8262 L 18.5059 -41.3574 C 14.3066 -35.9375 12.4512 -31.4941 12.4512 -23.0957 L 12.4512 4.24805 C 12.4512 7.76367 15.1855 10.498 18.75 10.498 Z M 31.6406 -50.6836 C 32.9102 -56.6406 35.2051 -63.2324 36.8164 -66.0156 C 38.2324 -68.457 39.9414 -69.7754 43.0664 -70.166 C 46.8262 -70.6543 55.3223 -70.9473 69.2383 -70.9473 C 83.1543 -70.9473 91.6504 -70.7031 95.4102 -70.166 C 98.5352 -69.7266 100.195 -68.457 101.66 -66.0156 C 103.271 -63.2812 105.469 -56.6406 106.836 -50.6836 C 107.227 -49.0723 106.592 -48.2422 104.736 -48.3887 C 96.4355 -48.9258 86.9629 -49.3652 69.2383 -49.3652 C 51.4648 -49.3652 42.041 -48.9258 33.6914 -48.3887 C 31.8848 -48.2422 31.25 -49.0723 31.6406 -50.6836 Z M 33.1055 -14.7461 C 28.6621 -14.7461 25.293 -18.0664 25.293 -22.5098 C 25.293 -27.002 28.6621 -30.3223 33.1055 -30.3223 C 37.5977 -30.3223 40.918 -27.002 40.918 -22.5098 C 40.918 -18.0664 37.5977 -14.7461 33.1055 -14.7461 Z M 105.322 -14.7461 C 100.879 -14.7461 97.5586 -18.0664 97.5586 -22.5098 C 97.5586 -27.002 100.879 -30.3223 105.322 -30.3223 C 109.814 -30.3223 113.135 -27.002 113.135 -22.5098 C 113.135 -18.0664 109.814 -14.7461 105.322 -14.7461 Z M 56.6406 -16.9434 C 53.3203 -16.9434 51.0254 -19.2383 51.0254 -22.5098 C 51.0254 -25.8301 53.3203 -28.125 56.6406 -28.125 L 81.8359 -28.125 C 85.1562 -28.125 87.4512 -25.8301 87.4512 -22.5098 C 87.4512 -19.2383 85.1562 -16.9434 81.8359 -16.9434 Z"/>
  </g>
  <g id="Thin-M" transform="matrix(1 0 0 1 788.502 1126)">
   <path d="M 18.5547 9.96094 L 23.9746 9.96094 C 27.3926 9.96094 30.0781 7.32422 30.0781 3.90625 L 30.0781 -3.85742 C 40.7715 -3.17383 56.1035 -2.68555 67.9199 -2.68555 C 79.7363 -2.68555 95.0195 -3.17383 105.762 -3.85742 L 105.762 3.90625 C 105.762 7.32422 108.447 9.96094 111.865 9.96094 L 117.285 9.96094 C 120.703 9.96094 123.389 7.32422 123.389 3.90625 L 123.389 -22.3145 C 123.389 -31.0059 121.24 -35.1562 117.48 -40.0391 L 113.184 -45.6543 C 111.426 -54.4434 108.203 -63.7207 106.494 -67.2852 C 103.955 -72.7051 98.9746 -75.3418 93.5547 -76.0742 C 90.1855 -76.5137 79.0527 -76.7578 67.9199 -76.7578 C 56.7871 -76.7578 45.6543 -76.4648 42.2852 -76.0742 C 36.8164 -75.3418 31.8848 -72.7051 29.2969 -67.2852 C 27.6367 -63.7207 24.4141 -54.4434 22.6562 -45.6543 L 18.3105 -40.0391 C 14.5508 -35.1562 12.4512 -31.0059 12.4512 -22.3145 L 12.4512 3.90625 C 12.4512 7.32422 15.0879 9.96094 18.5547 9.96094 Z M 30.3223 -49.2188 C 31.7871 -56.0059 34.0332 -62.1094 35.5957 -64.7949 C 37.1094 -67.3828 39.209 -69.1406 42.9688 -69.6289 C 46.8262 -70.1172 55.5664 -70.3125 67.9199 -70.3125 C 80.2734 -70.3125 88.9648 -70.1172 92.8711 -69.6289 C 96.6309 -69.1406 98.7305 -67.3828 100.244 -64.7949 C 101.807 -62.1094 103.955 -56.0059 105.518 -49.2188 C 105.811 -47.9492 105.322 -46.9238 103.564 -47.0215 C 94.9219 -47.6562 85.791 -47.998 67.9199 -47.998 C 50.0488 -47.998 40.918 -47.6562 32.2754 -47.0215 C 30.4688 -46.9238 30.0293 -47.9492 30.3223 -49.2188 Z M 31.1523 -14.1113 C 26.8555 -14.1113 23.7305 -17.2363 23.7305 -21.5332 C 23.7305 -25.7812 26.8555 -28.9551 31.1523 -28.9551 C 35.4004 -28.9551 38.5742 -25.7812 38.5742 -21.5332 C 38.5742 -17.2363 35.4004 -14.1113 31.1523 -14.1113 Z M 104.688 -14.1113 C 100.439 -14.1113 97.2656 -17.2363 97.2656 -21.5332 C 97.2656 -25.7812 100.439 -28.9551 104.688 -28.9551 C 108.936 -28.9551 112.109 -25.7812 112.109 -21.5332 C 112.109 -17.2363 108.936 -14.1113 104.688 -14.1113 Z M 55.7617 -16.2598 C 52.5879 -16.2598 50.4883 -18.4082 50.4883 -21.5332 C 50.4883 -24.6582 52.5879 -26.8066 55.7617 -26.8066 L 80.0781 -26.8066 C 83.2031 -26.8066 85.3516 -24.6582 85.3516 -21.5332 C 85.3516 -18.4082 83.2031 -16.2598 80.0781 -16.2598 Z"/>
  </g>
  <g id="Ultralight-M" transform="matrix(1 0 0 1 492.475 1126)">
   <path d="M 18.4082 9.7168 L 23.7793 9.7168 C 27.1484 9.7168 29.7363 7.08008 29.7363 3.75977 L 29.7363 -3.85742 C 40.4297 -3.17383 55.6641 -2.73438 67.2363 -2.73438 C 78.8574 -2.73438 94.043 -3.17383 104.736 -3.85742 L 104.736 3.75977 C 104.736 7.08008 107.324 9.7168 110.693 9.7168 L 116.064 9.7168 C 119.434 9.7168 122.021 7.08008 122.021 3.75977 L 122.021 -21.875 C 122.021 -30.7617 119.775 -34.7168 116.26 -39.4043 L 111.865 -45.0684 C 110.156 -53.8574 106.885 -63.1348 105.225 -66.6992 C 102.637 -72.1191 97.7539 -74.5117 92.5781 -75.1953 C 89.209 -75.6348 77.9297 -75.8789 67.2363 -75.8789 C 56.543 -75.8789 45.2637 -75.6348 41.8945 -75.1953 C 36.7676 -74.5117 31.8359 -72.1191 29.2969 -66.6992 C 27.5879 -63.1348 24.3652 -53.8574 22.6074 -45.0684 L 18.2617 -39.4043 C 14.6973 -34.7168 12.4512 -30.7617 12.4512 -21.875 L 12.4512 3.75977 C 12.4512 7.08008 15.0879 9.7168 18.4082 9.7168 Z M 29.6387 -48.4863 C 31.25 -55.6641 33.3984 -61.5234 34.9609 -64.209 C 36.5234 -66.8945 38.8672 -68.8477 42.9199 -69.3359 C 46.875 -69.8242 55.7129 -70.0195 67.2363 -70.0195 C 78.7598 -70.0195 87.6465 -69.8242 91.5527 -69.3359 C 95.6543 -68.8477 97.9492 -66.8945 99.5117 -64.209 C 101.074 -61.5234 103.174 -55.6641 104.834 -48.4863 C 105.078 -47.3633 104.688 -46.2402 102.979 -46.3379 C 94.1406 -46.9727 85.2051 -47.3145 67.2363 -47.3145 C 49.2676 -47.3145 40.332 -46.9727 31.543 -46.3379 C 29.7852 -46.2402 29.3945 -47.3633 29.6387 -48.4863 Z M 30.127 -13.8184 C 25.9766 -13.8184 22.9004 -16.8457 22.9004 -20.9961 C 22.9004 -25.1953 25.9766 -28.2227 30.127 -28.2227 C 34.2773 -28.2227 37.3535 -25.1953 37.3535 -20.9961 C 37.3535 -16.8457 34.2773 -13.8184 30.127 -13.8184 Z M 104.346 -13.8184 C 100.195 -13.8184 97.1191 -16.8457 97.1191 -20.9961 C 97.1191 -25.1953 100.195 -28.2227 104.346 -28.2227 C 108.496 -28.2227 111.572 -25.1953 111.572 -20.9961 C 111.572 -16.8457 108.496 -13.8184 104.346 -13.8184 Z M 55.2734 -15.918 C 52.2461 -15.918 50.1953 -17.9688 50.1953 -20.9961 C 50.1953 -24.0723 52.2461 -26.123 55.2734 -26.123 L 79.1992 -26.123 C 82.2266 -26.123 84.2773 -24.0723 84.2773 -20.9961 C 84.2773 -17.9688 82.2266 -15.918 79.1992 -15.918 Z"/>
  </g>
  <g id="Black-S" transform="matrix(1 0 0 1 2873.24 696)">
   <path d="M 15.4297 3.07617 L 20.5078 3.07617 C 23.6816 3.07617 26.1719 0.585938 26.1719 -2.58789 L 26.1719 -10.2539 C 34.8145 -9.61914 48.584 -9.17969 60.1562 -9.17969 C 71.7285 -9.17969 85.498 -9.61914 94.1406 -10.2539 L 94.1406 -2.58789 C 94.1406 0.585938 96.6309 3.07617 99.8047 3.07617 L 104.883 3.07617 C 108.057 3.07617 110.547 0.585938 110.547 -2.58789 L 110.547 -28.2227 C 110.547 -36.2793 109.57 -40.625 105.811 -45.5078 L 101.709 -50.1953 C 100.244 -57.0801 97.7051 -64.2578 96.3379 -67.1387 C 93.8477 -72.5586 88.9648 -75.8789 82.7148 -76.709 C 79.0527 -77.1973 71.6309 -77.4902 60.1562 -77.4902 C 48.6816 -77.4902 41.2598 -77.1973 37.5977 -76.709 C 31.3477 -75.8789 26.4648 -72.5586 23.9746 -67.1387 C 22.6074 -64.2578 20.0684 -57.0801 18.6035 -50.1953 L 14.502 -45.5078 C 10.7422 -40.625 9.76562 -36.2793 9.76562 -28.2227 L 9.76562 -2.58789 C 9.76562 0.585938 12.2559 3.07617 15.4297 3.07617 Z M 31.1523 -55.2246 C 31.6895 -57.3242 32.666 -60.4004 33.252 -61.6211 C 34.7168 -64.6973 36.7188 -65.8203 40.4785 -66.3086 C 42.3828 -66.6016 49.1211 -66.6992 60.1562 -66.6992 C 71.1914 -66.6992 77.9297 -66.6016 79.8828 -66.3086 C 83.5938 -65.8203 85.5957 -64.6973 87.0605 -61.6211 C 87.6465 -60.4004 88.6719 -57.3242 89.1602 -55.2246 C 89.7949 -52.5391 88.623 -50.7812 85.6934 -50.8301 C 81.9824 -50.8789 75.1465 -51.2207 60.1562 -51.2207 C 45.2148 -51.2207 38.3789 -50.8789 34.6191 -50.8301 C 31.6895 -50.7812 30.4688 -52.5391 31.1523 -55.2246 Z M 30.127 -21.4355 C 25.8301 -21.4355 22.5586 -24.707 22.5586 -29.0039 C 22.5586 -33.3008 25.8301 -36.5723 30.127 -36.5723 C 34.4238 -36.5723 37.6953 -33.3008 37.6953 -29.0039 C 37.6953 -24.707 34.4238 -21.4355 30.127 -21.4355 Z M 90.1855 -21.4355 C 85.8887 -21.4355 82.6172 -24.707 82.6172 -29.0039 C 82.6172 -33.3008 85.8887 -36.5723 90.1855 -36.5723 C 94.4824 -36.5723 97.7539 -33.3008 97.7539 -29.0039 C 97.7539 -24.707 94.4824 -21.4355 90.1855 -21.4355 Z M 48.8281 -23.4375 C 45.6055 -23.4375 43.2617 -25.7812 43.2617 -29.0039 C 43.2617 -32.2266 45.6055 -34.5703 48.8281 -34.5703 L 71.4844 -34.5703 C 74.707 -34.5703 77.0508 -32.2266 77.0508 -29.0039 C 77.0508 -25.7812 74.707 -23.4375 71.4844 -23.4375 Z"/>
  </g>
  <g id="Heavy-S" transform="matrix(1 0 0 1 2577.63 696)">
   <path d="M 15.332 2.58789 L 20.2637 2.58789 C 23.3887 2.58789 25.8301 0.195312 25.8301 -2.92969 L 25.8301 -10.3027 C 34.4238 -9.7168 47.8516 -9.27734 59.082 -9.27734 C 70.2637 -9.27734 83.6914 -9.66797 92.334 -10.3027 L 92.334 -2.92969 C 92.334 0.195312 94.7266 2.58789 97.8516 2.58789 L 102.832 2.58789 C 105.908 2.58789 108.35 0.195312 108.35 -2.92969 L 108.35 -27.832 C 108.35 -35.4492 107.324 -39.6484 103.564 -44.5312 L 99.707 -49.0723 C 98.2422 -55.957 95.7031 -63.1348 94.3359 -66.0156 C 91.9434 -71.1914 87.3047 -74.3652 81.25 -75.1465 C 77.8809 -75.5859 70.2148 -75.8789 59.082 -75.8789 C 47.9004 -75.8789 40.2832 -75.5859 36.8652 -75.1465 C 30.8594 -74.3652 26.1719 -71.1914 23.7793 -66.0156 C 22.4121 -63.1348 19.873 -55.957 18.4082 -49.0723 L 14.5508 -44.5312 C 10.791 -39.6484 9.76562 -35.4492 9.76562 -27.832 L 9.76562 -2.92969 C 9.76562 0.195312 12.207 2.58789 15.332 2.58789 Z M 29.9316 -53.7109 C 30.5664 -56.2012 31.7383 -59.9121 32.4707 -61.377 C 33.8379 -64.1113 35.5957 -65.1367 38.916 -65.5762 C 41.0156 -65.8691 47.7051 -66.0156 59.082 -66.0156 C 70.4102 -66.0156 77.0996 -65.918 79.248 -65.5762 C 82.5195 -65.1367 84.2773 -64.1113 85.6445 -61.377 C 86.377 -59.9121 87.5977 -56.2012 88.1836 -53.7109 C 88.7695 -51.2695 87.6953 -49.8047 85.1074 -49.9023 C 80.8105 -50 73.7793 -50.3906 59.082 -50.3906 C 44.3848 -50.3906 37.3535 -50 33.0078 -49.9023 C 30.4199 -49.8047 29.3457 -51.2695 29.9316 -53.7109 Z M 29.5898 -21.0449 C 25.4395 -21.0449 22.2656 -24.2188 22.2656 -28.3691 C 22.2656 -32.5195 25.4395 -35.6934 29.5898 -35.6934 C 33.7402 -35.6934 36.9141 -32.5195 36.9141 -28.3691 C 36.9141 -24.2188 33.7402 -21.0449 29.5898 -21.0449 Z M 88.5254 -21.0449 C 84.375 -21.0449 81.2012 -24.2188 81.2012 -28.3691 C 81.2012 -32.5195 84.375 -35.6934 88.5254 -35.6934 C 92.6758 -35.6934 95.8496 -32.5195 95.8496 -28.3691 C 95.8496 -24.2188 92.6758 -21.0449 88.5254 -21.0449 Z M 47.998 -22.998 C 44.873 -22.998 42.627 -25.2441 42.627 -28.3691 C 42.627 -31.4453 44.873 -33.6914 47.998 -33.6914 L 70.166 -33.6914 C 73.2422 -33.6914 75.4883 -31.4453 75.4883 -28.3691 C 75.4883 -25.2441 73.2422 -22.998 70.166 -22.998 Z"/>
  </g>
  <g id="Bold-S" transform="matrix(1 0 0 1 2282.14 696)">
   <path d="M 15.1855 2.09961 L 20.0195 2.09961 C 23.0469 2.09961 25.3906 -0.292969 25.3906 -3.27148 L 25.3906 -10.4004 C 33.9844 -9.81445 47.0703 -9.375 57.8125 -9.375 C 68.6035 -9.375 81.6895 -9.76562 90.2832 -10.3516 L 90.2832 -3.27148 C 90.2832 -0.292969 92.627 2.09961 95.6543 2.09961 L 100.488 2.09961 C 103.516 2.09961 105.908 -0.292969 105.908 -3.27148 L 105.908 -27.3438 C 105.908 -34.5215 104.834 -38.5742 101.074 -43.4082 L 97.4121 -47.8027 C 95.9961 -54.6875 93.457 -61.9141 92.0898 -64.7461 C 89.8438 -69.6289 85.4004 -72.6562 79.6387 -73.4375 C 76.5137 -73.8281 68.6523 -74.0723 57.8125 -74.0723 C 46.9727 -74.0723 39.1602 -73.8281 36.0352 -73.4375 C 30.2734 -72.7051 25.8301 -69.6289 23.5352 -64.7461 C 22.2168 -61.9141 19.6777 -54.6875 18.2129 -47.8027 L 14.5996 -43.4082 C 10.8398 -38.5742 9.76562 -34.5215 9.76562 -27.3438 L 9.76562 -3.27148 C 9.76562 -0.292969 12.1094 2.09961 15.1855 2.09961 Z M 28.5645 -51.9531 C 29.2969 -54.9805 30.7129 -59.3262 31.6406 -61.084 C 32.8613 -63.4766 34.375 -64.3555 37.1582 -64.6973 C 39.5508 -65.0391 46.0938 -65.2344 57.8125 -65.2344 C 69.5801 -65.2344 76.123 -65.0879 78.5156 -64.6973 C 81.2988 -64.3066 82.7637 -63.4766 84.0332 -61.084 C 84.9609 -59.375 86.377 -54.9805 87.0605 -51.9531 C 87.5977 -49.8535 86.6699 -48.7305 84.4727 -48.8281 C 79.4922 -49.0234 72.2168 -49.4141 57.8125 -49.4141 C 43.457 -49.4141 36.2305 -49.0234 31.2012 -48.8281 C 29.0039 -48.7305 28.0762 -49.8535 28.5645 -51.9531 Z M 29.0039 -20.6055 C 25 -20.6055 21.9727 -23.6328 21.9727 -27.6367 C 21.9727 -31.6406 25 -34.668 29.0039 -34.668 C 32.959 -34.668 36.0352 -31.6406 36.0352 -27.6367 C 36.0352 -23.6328 32.959 -20.6055 29.0039 -20.6055 Z M 86.6699 -20.6055 C 82.666 -20.6055 79.6387 -23.6328 79.6387 -27.6367 C 79.6387 -31.6406 82.666 -34.668 86.6699 -34.668 C 90.6738 -34.668 93.7012 -31.6406 93.7012 -27.6367 C 93.7012 -23.6328 90.6738 -20.6055 86.6699 -20.6055 Z M 47.0215 -22.5098 C 44.043 -22.5098 41.8945 -24.6582 41.8945 -27.6367 C 41.8945 -30.6152 44.043 -32.7637 47.0215 -32.7637 L 68.6523 -32.7637 C 71.6309 -32.7637 73.7793 -30.6152 73.7793 -27.6367 C 73.7793 -24.6582 71.6309 -22.5098 68.6523 -22.5098 Z"/>
  </g>
  <g id="Semibold-S" transform="matrix(1 0 0 1 1986.28 696)">
   <path d="M 15.0879 1.75781 L 19.8242 1.75781 C 22.8027 1.75781 25.1465 -0.585938 25.1465 -3.56445 L 25.1465 -10.4492 C 33.6914 -9.86328 46.4844 -9.47266 56.9824 -9.47266 C 67.4805 -9.47266 80.2734 -9.86328 88.8672 -10.4004 L 88.8672 -3.56445 C 88.8672 -0.585938 91.1621 1.75781 94.1406 1.75781 L 98.877 1.75781 C 101.904 1.75781 104.199 -0.585938 104.199 -3.56445 L 104.199 -27.0508 C 104.199 -33.8867 103.076 -37.8418 99.3652 -42.627 L 95.8984 -46.9238 C 94.4336 -53.8086 91.8945 -61.0352 90.5762 -63.8672 C 88.3789 -68.5547 84.082 -71.4355 78.5156 -72.2168 C 75.5859 -72.6074 67.5781 -72.8516 56.9824 -72.8516 C 46.3867 -72.8516 38.3789 -72.5586 35.4492 -72.2168 C 29.8828 -71.5332 25.5859 -68.5547 23.3887 -63.8672 C 22.0703 -61.0352 19.5312 -53.8086 18.1152 -46.9238 L 14.5996 -42.627 C 10.8887 -37.8418 9.76562 -33.8867 9.76562 -27.0508 L 9.76562 -3.56445 C 9.76562 -0.585938 12.0605 1.75781 15.0879 1.75781 Z M 27.6367 -50.7812 C 28.418 -54.1016 30.0293 -58.9355 31.0547 -60.8398 C 32.1777 -63.0371 33.4961 -63.8184 35.9375 -64.1113 C 38.4766 -64.502 45.0195 -64.6973 56.9824 -64.6973 C 68.9453 -64.6973 75.4883 -64.5508 78.0273 -64.1113 C 80.4688 -63.7695 81.7383 -63.0371 82.9102 -60.8398 C 83.9844 -58.9844 85.498 -54.1016 86.3281 -50.7812 C 86.7676 -48.877 85.9375 -47.998 83.9844 -48.0957 C 78.5645 -48.3887 71.1426 -48.7793 56.9824 -48.7793 C 42.8223 -48.7793 35.4004 -48.3887 29.9805 -48.0957 C 28.0273 -47.998 27.1973 -48.877 27.6367 -50.7812 Z M 28.5645 -20.2637 C 24.707 -20.2637 21.7285 -23.2422 21.7285 -27.1484 C 21.7285 -31.0059 24.707 -33.9844 28.5645 -33.9844 C 32.4707 -33.9844 35.4004 -31.0059 35.4004 -27.1484 C 35.4004 -23.2422 32.4707 -20.2637 28.5645 -20.2637 Z M 85.4004 -20.2637 C 81.543 -20.2637 78.5645 -23.2422 78.5645 -27.1484 C 78.5645 -31.0059 81.543 -33.9844 85.4004 -33.9844 C 89.3066 -33.9844 92.2363 -31.0059 92.2363 -27.1484 C 92.2363 -23.2422 89.3066 -20.2637 85.4004 -20.2637 Z M 46.3379 -22.168 C 43.457 -22.168 41.4062 -24.2188 41.4062 -27.1484 C 41.4062 -30.0293 43.457 -32.0801 46.3379 -32.0801 L 67.627 -32.0801 C 70.5078 -32.0801 72.6074 -30.0293 72.6074 -27.1484 C 72.6074 -24.2188 70.5078 -22.168 67.627 -22.168 Z"/>
  </g>
  <g id="Medium-S" transform="matrix(1 0 0 1 1690.21 696)">
   <path d="M 14.9902 1.46484 L 19.6777 1.46484 C 22.6074 1.46484 24.9023 -0.830078 24.9023 -3.75977 L 24.9023 -10.4492 C 33.4473 -9.91211 46.0938 -9.52148 56.3477 -9.52148 C 66.6016 -9.52148 79.248 -9.91211 87.793 -10.4492 L 87.793 -3.75977 C 87.793 -0.830078 90.0391 1.46484 93.0176 1.46484 L 97.7051 1.46484 C 100.635 1.46484 102.93 -0.830078 102.93 -3.75977 L 102.93 -26.8066 C 102.93 -33.4473 101.758 -37.2559 98.0469 -42.041 L 94.6777 -46.2891 C 93.2617 -53.1738 90.7227 -60.4004 89.4043 -63.2324 C 87.2559 -67.7734 83.1055 -70.5566 77.6367 -71.2891 C 74.9023 -71.6797 66.7969 -71.875 56.3477 -71.875 C 45.8984 -71.875 37.793 -71.6309 35.0586 -71.2891 C 29.5898 -70.6543 25.3906 -67.7734 23.291 -63.2324 C 21.9727 -60.4004 19.4336 -53.1738 18.0176 -46.2891 L 14.6484 -42.041 C 10.9375 -37.2559 9.76562 -33.4473 9.76562 -26.8066 L 9.76562 -3.75977 C 9.76562 -0.830078 12.0605 1.46484 14.9902 1.46484 Z M 26.9531 -49.9023 C 27.7344 -53.4668 29.4434 -58.6426 30.6152 -60.6934 C 31.6895 -62.6953 32.8613 -63.3789 35.0098 -63.6719 C 37.6953 -64.0625 44.1895 -64.3066 56.3477 -64.3066 C 68.5059 -64.3066 75 -64.1602 77.6855 -63.6719 C 79.834 -63.3789 80.957 -62.6953 82.0801 -60.6934 C 83.252 -58.6914 84.8633 -53.4668 85.7422 -49.9023 C 86.1816 -48.1445 85.4004 -47.4609 83.6426 -47.5586 C 77.8809 -47.8516 70.3613 -48.291 56.3477 -48.291 C 42.334 -48.291 34.8145 -47.8516 29.0527 -47.5586 C 27.2949 -47.4609 26.5625 -48.1445 26.9531 -49.9023 Z M 28.2715 -20.0684 C 24.4629 -20.0684 21.582 -22.9492 21.582 -26.7578 C 21.582 -30.5664 24.4629 -33.4473 28.2715 -33.4473 C 32.0312 -33.4473 34.9609 -30.5664 34.9609 -26.7578 C 34.9609 -22.9492 32.0312 -20.0684 28.2715 -20.0684 Z M 84.4238 -20.0684 C 80.6152 -20.0684 77.7344 -22.9492 77.7344 -26.7578 C 77.7344 -30.5664 80.6152 -33.4473 84.4238 -33.4473 C 88.2324 -33.4473 91.1133 -30.5664 91.1133 -26.7578 C 91.1133 -22.9492 88.2324 -20.0684 84.4238 -20.0684 Z M 45.8496 -21.875 C 43.0176 -21.875 41.0156 -23.877 41.0156 -26.7578 C 41.0156 -29.5898 43.0176 -31.5918 45.8496 -31.5918 L 66.8457 -31.5918 C 69.6777 -31.5918 71.6797 -29.5898 71.6797 -26.7578 C 71.6797 -23.877 69.6777 -21.875 66.8457 -21.875 Z"/>
  </g>
  <g id="Regular-S" transform="matrix(1 0 0 1 1394.33 696)">
   <path d="M 14.8926 1.12305 L 19.4824 1.12305 C 22.4121 1.12305 24.6582 -1.12305 24.6582 -4.00391 L 24.6582 -10.498 C 33.1543 -9.96094 45.5078 -9.57031 55.5176 -9.57031 C 65.4785 -9.57031 77.8809 -9.96094 86.377 -10.498 L 86.377 -4.00391 C 86.377 -1.12305 88.623 1.12305 91.5527 1.12305 L 96.0938 1.12305 C 99.0234 1.12305 101.27 -1.12305 101.27 -4.00391 L 101.27 -26.4648 C 101.27 -32.8125 100.049 -36.5234 96.3379 -41.3086 L 93.1641 -45.4102 C 91.748 -52.2949 89.209 -59.5215 87.8906 -62.3535 C 85.8398 -66.6992 81.8359 -69.3848 76.5625 -70.1172 C 73.9746 -70.459 65.7227 -70.6543 55.5176 -70.6543 C 45.3125 -70.6543 37.0117 -70.4102 34.4727 -70.1172 C 29.1992 -69.4824 25.1953 -66.6992 23.1445 -62.3535 C 21.8262 -59.5215 19.2871 -52.2949 17.8711 -45.4102 L 14.6973 -41.3086 C 10.9863 -36.5234 9.76562 -32.8125 9.76562 -26.4648 L 9.76562 -4.00391 C 9.76562 -1.12305 12.0117 1.12305 14.8926 1.12305 Z M 26.0254 -48.7305 C 26.8555 -52.5879 28.7598 -58.252 30.0293 -60.498 C 31.0059 -62.2559 31.9824 -62.8906 33.8379 -63.1348 C 36.6699 -63.5254 43.1152 -63.8184 55.5176 -63.8184 C 67.9199 -63.8184 74.3652 -63.623 77.1973 -63.1348 C 79.0039 -62.8418 79.9316 -62.2559 81.0059 -60.498 C 82.3242 -58.3008 84.0332 -52.5879 85.0098 -48.7305 C 85.4004 -47.168 84.7168 -46.7285 83.2031 -46.8262 C 76.9531 -47.2168 69.2871 -47.6562 55.5176 -47.6562 C 41.748 -47.6562 34.0332 -47.2168 27.832 -46.8262 C 26.3184 -46.7285 25.6836 -47.168 26.0254 -48.7305 Z M 27.832 -19.7754 C 24.1699 -19.7754 21.3379 -22.5586 21.3379 -26.2695 C 21.3379 -29.9316 24.1699 -32.7637 27.832 -32.7637 C 31.543 -32.7637 34.3262 -29.9316 34.3262 -26.2695 C 34.3262 -22.5586 31.543 -19.7754 27.832 -19.7754 Z M 83.1543 -19.7754 C 79.4922 -19.7754 76.6602 -22.5586 76.6602 -26.2695 C 76.6602 -29.9316 79.4922 -32.7637 83.1543 -32.7637 C 86.8652 -32.7637 89.6484 -29.9316 89.6484 -26.2695 C 89.6484 -22.5586 86.8652 -19.7754 83.1543 -19.7754 Z M 45.2148 -21.5332 C 42.4316 -21.5332 40.5273 -23.4863 40.5273 -26.2695 C 40.5273 -29.0039 42.4316 -30.957 45.2148 -30.957 L 65.8203 -30.957 C 68.5547 -30.957 70.5078 -29.0039 70.5078 -26.2695 C 70.5078 -23.4863 68.5547 -21.5332 65.8203 -21.5332 Z"/>
  </g>
  <g id="Light-S" transform="matrix(1 0 0 1 1098.49 696)">
   <path d="M 14.7461 0.78125 L 19.2383 0.78125 C 22.0703 0.78125 24.2188 -1.41602 24.2188 -4.19922 L 24.2188 -10.5469 C 32.7148 -10.0098 44.9219 -9.61914 54.6387 -9.61914 C 64.3555 -9.61914 76.5625 -10.0098 85.0586 -10.5469 L 85.0586 -4.19922 C 85.0586 -1.41602 87.207 0.78125 90.0391 0.78125 L 94.4824 0.78125 C 97.3145 0.78125 99.5117 -1.41602 99.5117 -4.19922 L 99.5117 -25.9277 C 99.5117 -32.4707 98.0957 -35.9863 94.6777 -40.4297 L 91.4551 -44.6289 C 90.0391 -51.5137 87.5 -58.7891 86.1816 -61.5723 C 84.1309 -65.918 80.1758 -68.3594 75.293 -68.9941 C 72.7051 -69.3359 64.2578 -69.5312 54.6387 -69.5312 C 45.0195 -69.5312 36.5234 -69.3359 33.9844 -68.9941 C 29.0527 -68.4082 25.0977 -65.918 23.0957 -61.5723 C 21.7773 -58.7891 19.2383 -51.5137 17.8223 -44.6289 L 14.5508 -40.4297 C 11.1328 -35.9863 9.76562 -32.4707 9.76562 -25.9277 L 9.76562 -4.19922 C 9.76562 -1.41602 11.9629 0.78125 14.7461 0.78125 Z M 25.1465 -47.7539 C 26.123 -52.1973 27.9785 -57.5195 29.1992 -59.7168 C 30.2734 -61.5234 31.4941 -62.4512 33.7891 -62.7441 C 36.6699 -63.1348 43.2617 -63.3789 54.6387 -63.3789 C 65.9668 -63.3789 72.5586 -63.1836 75.4883 -62.7441 C 77.7344 -62.4023 78.9551 -61.5234 80.0293 -59.7168 C 81.3477 -57.5195 83.0566 -52.1973 84.082 -47.7539 C 84.4238 -46.4355 83.8867 -45.8008 82.4219 -45.8984 C 75.9766 -46.3379 68.5059 -46.7285 54.6387 -46.7285 C 40.7715 -46.7285 33.3008 -46.3379 26.8555 -45.8984 C 25.3906 -45.8008 24.8535 -46.4355 25.1465 -47.7539 Z M 26.5137 -19.3359 C 22.9492 -19.3359 20.3125 -22.0215 20.3125 -25.5859 C 20.3125 -29.1504 22.9492 -31.7871 26.5137 -31.7871 C 30.0781 -31.7871 32.7637 -29.1504 32.7637 -25.5859 C 32.7637 -22.0215 30.0781 -19.3359 26.5137 -19.3359 Z M 82.7148 -19.3359 C 79.1992 -19.3359 76.5137 -22.0215 76.5137 -25.5859 C 76.5137 -29.1504 79.1992 -31.7871 82.7148 -31.7871 C 86.2793 -31.7871 88.9648 -29.1504 88.9648 -25.5859 C 88.9648 -22.0215 86.2793 -19.3359 82.7148 -19.3359 Z M 44.6289 -21.0938 C 41.9922 -21.0938 40.1367 -22.9492 40.1367 -25.5859 C 40.1367 -28.2227 41.9922 -30.0293 44.6289 -30.0293 L 64.6484 -30.0293 C 67.2852 -30.0293 69.0918 -28.2227 69.0918 -25.5859 C 69.0918 -22.9492 67.2852 -21.0938 64.6484 -21.0938 Z"/>
  </g>
  <g id="Thin-S" transform="matrix(1 0 0 1 802.955 696)">
   <path d="M 14.5996 0.292969 L 18.8965 0.292969 C 21.582 0.292969 23.6816 -1.80664 23.6816 -4.49219 L 23.6816 -10.5957 C 32.0801 -10.0586 44.1406 -9.7168 53.4668 -9.7168 C 62.793 -9.7168 74.8535 -10.0586 83.252 -10.5957 L 83.252 -4.49219 C 83.252 -1.80664 85.3516 0.292969 88.0859 0.292969 L 92.3828 0.292969 C 95.0684 0.292969 97.168 -1.80664 97.168 -4.49219 L 97.168 -25.2441 C 97.168 -32.0312 95.5566 -35.3027 92.5293 -39.2578 L 89.1602 -43.6035 C 87.793 -50.4883 85.2539 -57.7637 83.9355 -60.5469 C 81.9336 -64.8438 78.0273 -66.9434 73.6328 -67.5293 C 71.0449 -67.8711 62.3535 -68.0664 53.4668 -68.0664 C 44.5801 -68.0664 35.8887 -67.8711 33.3008 -67.5293 C 28.9062 -66.9922 25 -64.8438 22.998 -60.5469 C 21.6797 -57.7637 19.1406 -50.4883 17.7734 -43.6035 L 14.4043 -39.2578 C 11.377 -35.3027 9.76562 -32.0312 9.76562 -25.2441 L 9.76562 -4.49219 C 9.76562 -1.80664 11.8652 0.292969 14.5996 0.292969 Z M 24.0234 -46.4844 C 25.1465 -51.6113 26.9043 -56.4941 28.125 -58.6426 C 29.2969 -60.6445 30.8594 -61.9141 33.6914 -62.2559 C 36.7188 -62.6465 43.5059 -62.8418 53.4668 -62.8418 C 63.4277 -62.8418 70.2148 -62.6953 73.2422 -62.2559 C 76.0742 -61.9141 77.6367 -60.6445 78.8086 -58.6426 C 80.0781 -56.4941 81.7383 -51.6113 82.9102 -46.4844 C 83.1543 -45.4102 82.7637 -44.6289 81.3965 -44.7266 C 74.6582 -45.2148 67.4805 -45.5078 53.4668 -45.5078 C 39.502 -45.5078 32.2754 -45.2148 25.5859 -44.7266 C 24.1699 -44.6289 23.7793 -45.4102 24.0234 -46.4844 Z M 24.8047 -18.7988 C 21.3867 -18.7988 18.8965 -21.2891 18.8965 -24.707 C 18.8965 -28.0762 21.3867 -30.5664 24.8047 -30.5664 C 28.1738 -30.5664 30.6641 -28.0762 30.6641 -24.707 C 30.6641 -21.2891 28.1738 -18.7988 24.8047 -18.7988 Z M 82.1777 -18.7988 C 78.7598 -18.7988 76.2695 -21.2891 76.2695 -24.707 C 76.2695 -28.0762 78.7598 -30.5664 82.1777 -30.5664 C 85.5469 -30.5664 88.0371 -28.0762 88.0371 -24.707 C 88.0371 -21.2891 85.5469 -18.7988 82.1777 -18.7988 Z M 43.8477 -20.5078 C 41.3574 -20.5078 39.6484 -22.2168 39.6484 -24.707 C 39.6484 -27.1973 41.3574 -28.8574 43.8477 -28.8574 L 63.0859 -28.8574 C 65.5762 -28.8574 67.2852 -27.1973 67.2852 -24.707 C 67.2852 -22.2168 65.5762 -20.5078 63.0859 -20.5078 Z"/>
  </g>
  <g id="Ultralight-S" transform="matrix(1 0 0 1 506.83 696)">
   <path d="M 14.4531 0.0488281 L 18.7012 0.0488281 C 21.3379 0.0488281 23.3887 -2.00195 23.3887 -4.63867 L 23.3887 -10.6445 C 31.7871 -10.1074 43.75 -9.76562 52.8809 -9.76562 C 62.0117 -9.76562 73.9746 -10.1074 82.3242 -10.6445 L 82.3242 -4.63867 C 82.3242 -2.00195 84.375 0.0488281 87.0605 0.0488281 L 91.2598 0.0488281 C 93.8965 0.0488281 95.9961 -2.00195 95.9961 -4.63867 L 95.9961 -24.9023 C 95.9961 -31.7871 94.2383 -34.9609 91.4062 -38.6719 L 87.9883 -43.0664 C 86.6211 -49.9512 84.082 -57.2266 82.7637 -60.0098 C 80.7617 -64.3066 76.9043 -66.2109 72.8027 -66.7969 C 70.166 -67.1387 61.377 -67.334 52.8809 -67.334 C 44.3848 -67.334 35.5957 -67.1387 32.959 -66.7969 C 28.8086 -66.2109 24.9512 -64.3066 22.9492 -60.0098 C 21.6309 -57.2266 19.0918 -49.9512 17.7246 -43.0664 L 14.3066 -38.6719 C 11.4746 -34.9609 9.76562 -31.7871 9.76562 -24.9023 L 9.76562 -4.63867 C 9.76562 -2.00195 11.8164 0.0488281 14.4531 0.0488281 Z M 23.4375 -45.8008 C 24.6094 -51.3184 26.3672 -55.957 27.5879 -58.1055 C 28.7598 -60.1562 30.5664 -61.6211 33.6426 -62.0117 C 36.7188 -62.4023 43.6035 -62.5488 52.8809 -62.5488 C 62.1094 -62.5488 69.043 -62.4023 72.0703 -62.0117 C 75.1953 -61.6211 76.9531 -60.1562 78.1738 -58.1055 C 79.3945 -55.957 81.0547 -51.3184 82.3242 -45.8008 C 82.5195 -44.873 82.2266 -44.043 80.8594 -44.1406 C 73.9746 -44.6289 66.9434 -44.873 52.8809 -44.873 C 38.8184 -44.873 31.7383 -44.6289 24.9023 -44.1406 C 23.5352 -44.043 23.2422 -44.873 23.4375 -45.8008 Z M 23.877 -18.5059 C 20.6055 -18.5059 18.1641 -20.9473 18.1641 -24.2188 C 18.1641 -27.5391 20.6055 -29.9316 23.877 -29.9316 C 27.1973 -29.9316 29.5898 -27.5391 29.5898 -24.2188 C 29.5898 -20.9473 27.1973 -18.5059 23.877 -18.5059 Z M 81.8359 -18.5059 C 78.5645 -18.5059 76.1719 -20.9473 76.1719 -24.2188 C 76.1719 -27.5391 78.5645 -29.9316 81.8359 -29.9316 C 85.1562 -29.9316 87.5488 -27.5391 87.5488 -24.2188 C 87.5488 -20.9473 85.1562 -18.5059 81.8359 -18.5059 Z M 43.457 -20.166 C 41.0156 -20.166 39.4043 -21.8262 39.4043 -24.2188 C 39.4043 -26.6602 41.0156 -28.2715 43.457 -28.2715 L 62.3047 -28.2715 C 64.6973 -28.2715 66.3086 -26.6602 66.3086 -24.2188 C 66.3086 -21.8262 64.6973 -20.166 62.3047 -20.166 Z"/>
  </g>
 </g>
</svg>
