<svg width="32" height="24" xmlns="http://www.w3.org/2000/svg"><g fill="none" fill-rule="evenodd"><path d="M2 0h28a2 2 0 0 1 2 2v20a2 2 0 0 1-2 2H2a2 2 0 0 1-2-2V2a2 2 0 0 1 2-2z" fill="#000"/><path fill="#FF5F00" fill-rule="nonzero" d="M12.094 5.24h7.702v12.795h-7.702z"/><path fill="#F79E1B" fill-rule="nonzero" d="M28.123 16.681v-.262h.111v-.054h-.264v.054h.104v.262zM28.637 16.681v-.316h-.08l-.094.226-.093-.226h-.08v.316h.058v-.24l.086.207h.06l.087-.206v.24z"/><path d="M12.888 11.639a8.175 8.175 0 0 1 3.055-6.397 7.904 7.904 0 0 0-10.82.878c-2.83 3.117-2.83 7.923 0 11.04a7.904 7.904 0 0 0 10.82.878 8.175 8.175 0 0 1-3.055-6.4z" fill="#EB001B" fill-rule="nonzero"/><path d="M28.888 11.639c0 3.115-1.75 5.957-4.504 7.318a7.89 7.89 0 0 1-8.44-.922A8.188 8.188 0 0 0 19 11.638a8.188 8.188 0 0 0-3.057-6.398 7.89 7.89 0 0 1 8.44-.922c2.756 1.361 4.505 4.203 4.505 7.319v.002z" fill="#F79E1B" fill-rule="nonzero"/></g></svg>
