<?xml version="1.0" encoding="UTF-8"?>
<!--Generator: Apple Native CoreSVG 123-->
<!DOCTYPE svg
PUBLIC "-//W3C//DTD SVG 1.1//EN"
       "http://www.w3.org/Graphics/SVG/1.1/DTD/svg11.dtd">
<svg version="1.1" xmlns="http://www.w3.org/2000/svg" xmlns:xlink="http://www.w3.org/1999/xlink" width="3300" height="2200">
 <!--glyph: "uni100598.medium", point size: 100.000000, font version: "Version 15.0d7e11", template writer version: "5"-->
 <g id="Notes">
  <rect height="2200" id="artboard" style="fill:white;opacity:1" width="3300" x="0" y="0"/>
  <line id="" style="fill:none;stroke:black;opacity:1;stroke-width:0.5;" x1="263" x2="3036" y1="292" y2="292"/>
  <text style="stroke:none;fill:black;font-family:-apple-system,&quot;SF Pro Display&quot;,&quot;SF Pro Text&quot;,Helvetica,sans-serif;font-weight:bold;" transform="matrix(1 0 0 1 263 322)">Weight/Scale Variations</text>
  <text style="stroke:none;fill:black;font-family:-apple-system,&quot;SF Pro Display&quot;,&quot;SF Pro Text&quot;,Helvetica,sans-serif;text-anchor:middle;" transform="matrix(1 0 0 1 559.711 322)">Ultralight</text>
  <text style="stroke:none;fill:black;font-family:-apple-system,&quot;SF Pro Display&quot;,&quot;SF Pro Text&quot;,Helvetica,sans-serif;text-anchor:middle;" transform="matrix(1 0 0 1 856.422 322)">Thin</text>
  <text style="stroke:none;fill:black;font-family:-apple-system,&quot;SF Pro Display&quot;,&quot;SF Pro Text&quot;,Helvetica,sans-serif;text-anchor:middle;" transform="matrix(1 0 0 1 1153.13 322)">Light</text>
  <text style="stroke:none;fill:black;font-family:-apple-system,&quot;SF Pro Display&quot;,&quot;SF Pro Text&quot;,Helvetica,sans-serif;text-anchor:middle;" transform="matrix(1 0 0 1 1449.84 322)">Regular</text>
  <text style="stroke:none;fill:black;font-family:-apple-system,&quot;SF Pro Display&quot;,&quot;SF Pro Text&quot;,Helvetica,sans-serif;text-anchor:middle;" transform="matrix(1 0 0 1 1746.56 322)">Medium</text>
  <text style="stroke:none;fill:black;font-family:-apple-system,&quot;SF Pro Display&quot;,&quot;SF Pro Text&quot;,Helvetica,sans-serif;text-anchor:middle;" transform="matrix(1 0 0 1 2043.27 322)">Semibold</text>
  <text style="stroke:none;fill:black;font-family:-apple-system,&quot;SF Pro Display&quot;,&quot;SF Pro Text&quot;,Helvetica,sans-serif;text-anchor:middle;" transform="matrix(1 0 0 1 2339.98 322)">Bold</text>
  <text style="stroke:none;fill:black;font-family:-apple-system,&quot;SF Pro Display&quot;,&quot;SF Pro Text&quot;,Helvetica,sans-serif;text-anchor:middle;" transform="matrix(1 0 0 1 2636.69 322)">Heavy</text>
  <text style="stroke:none;fill:black;font-family:-apple-system,&quot;SF Pro Display&quot;,&quot;SF Pro Text&quot;,Helvetica,sans-serif;text-anchor:middle;" transform="matrix(1 0 0 1 2933.4 322)">Black</text>
  <line id="" style="fill:none;stroke:black;opacity:1;stroke-width:0.5;" x1="263" x2="3036" y1="1903" y2="1903"/>
  <g id="" transform="matrix(1 0 0 1 263 1933)">
   <path d="M 9.24805 0.830078 C 13.5547 0.830078 17.1387 -2.74414 17.1387 -7.05078 C 17.1387 -11.3574 13.5449 -14.9316 9.23828 -14.9316 C 4.94141 -14.9316 1.36719 -11.3574 1.36719 -7.05078 C 1.36719 -2.74414 4.95117 0.830078 9.24805 0.830078 Z M 9.24805 -0.654297 C 5.70312 -0.654297 2.87109 -3.49609 2.87109 -7.05078 C 2.87109 -10.6055 5.69336 -13.4473 9.23828 -13.4473 C 12.793 -13.4473 15.6348 -10.6055 15.6445 -7.05078 C 15.6543 -3.49609 12.8027 -0.654297 9.24805 -0.654297 Z M 9.22852 -3.42773 C 9.69727 -3.42773 9.9707 -3.74023 9.9707 -4.25781 L 9.9707 -6.31836 L 12.1973 -6.31836 C 12.6953 -6.31836 13.0371 -6.57227 13.0371 -7.04102 C 13.0371 -7.51953 12.7148 -7.7832 12.1973 -7.7832 L 9.9707 -7.7832 L 9.9707 -10.0098 C 9.9707 -10.5273 9.69727 -10.8496 9.22852 -10.8496 C 8.75977 -10.8496 8.50586 -10.5078 8.50586 -10.0098 L 8.50586 -7.7832 L 6.29883 -7.7832 C 5.78125 -7.7832 5.44922 -7.51953 5.44922 -7.04102 C 5.44922 -6.57227 5.80078 -6.31836 6.29883 -6.31836 L 8.50586 -6.31836 L 8.50586 -4.25781 C 8.50586 -3.75977 8.75977 -3.42773 9.22852 -3.42773 Z"/>
  </g>
  <g id="" transform="matrix(1 0 0 1 281.506 1933)">
   <path d="M 11.709 2.91016 C 17.1582 2.91016 21.6699 -1.60156 21.6699 -7.05078 C 21.6699 -12.4902 17.1484 -17.0117 11.6992 -17.0117 C 6.25977 -17.0117 1.74805 -12.4902 1.74805 -7.05078 C 1.74805 -1.60156 6.26953 2.91016 11.709 2.91016 Z M 11.709 1.25 C 7.09961 1.25 3.41797 -2.44141 3.41797 -7.05078 C 3.41797 -11.6504 7.08984 -15.3516 11.6992 -15.3516 C 16.3086 -15.3516 20 -11.6504 20.0098 -7.05078 C 20.0195 -2.44141 16.3184 1.25 11.709 1.25 Z M 11.6895 -2.41211 C 12.207 -2.41211 12.5195 -2.77344 12.5195 -3.33984 L 12.5195 -6.23047 L 15.5762 -6.23047 C 16.123 -6.23047 16.5039 -6.51367 16.5039 -7.03125 C 16.5039 -7.55859 16.1426 -7.86133 15.5762 -7.86133 L 12.5195 -7.86133 L 12.5195 -10.9277 C 12.5195 -11.5039 12.207 -11.8555 11.6895 -11.8555 C 11.1719 -11.8555 10.8789 -11.4844 10.8789 -10.9277 L 10.8789 -7.86133 L 7.83203 -7.86133 C 7.26562 -7.86133 6.89453 -7.55859 6.89453 -7.03125 C 6.89453 -6.51367 7.28516 -6.23047 7.83203 -6.23047 L 10.8789 -6.23047 L 10.8789 -3.33984 C 10.8789 -2.79297 11.1719 -2.41211 11.6895 -2.41211 Z"/>
  </g>
  <g id="" transform="matrix(1 0 0 1 304.924 1933)">
   <path d="M 14.9707 5.67383 C 21.9336 5.67383 27.6953 -0.078125 27.6953 -7.04102 C 27.6953 -14.0039 21.9238 -19.7559 14.9609 -19.7559 C 8.00781 -19.7559 2.25586 -14.0039 2.25586 -7.04102 C 2.25586 -0.078125 8.01758 5.67383 14.9707 5.67383 Z M 14.9707 3.85742 C 8.93555 3.85742 4.08203 -1.00586 4.08203 -7.04102 C 4.08203 -13.0762 8.92578 -17.9395 14.9609 -17.9395 C 21.0059 -17.9395 25.8594 -13.0762 25.8691 -7.04102 C 25.8789 -1.00586 21.0156 3.85742 14.9707 3.85742 Z M 14.9512 -1.06445 C 15.5176 -1.06445 15.8691 -1.45508 15.8691 -2.06055 L 15.8691 -6.13281 L 20.1074 -6.13281 C 20.6934 -6.13281 21.1133 -6.46484 21.1133 -7.02148 C 21.1133 -7.59766 20.7227 -7.93945 20.1074 -7.93945 L 15.8691 -7.93945 L 15.8691 -12.1875 C 15.8691 -12.8027 15.5176 -13.1934 14.9512 -13.1934 C 14.3848 -13.1934 14.0625 -12.7832 14.0625 -12.1875 L 14.0625 -7.93945 L 9.83398 -7.93945 C 9.21875 -7.93945 8.80859 -7.59766 8.80859 -7.02148 C 8.80859 -6.46484 9.23828 -6.13281 9.83398 -6.13281 L 14.0625 -6.13281 L 14.0625 -2.06055 C 14.0625 -1.47461 14.3848 -1.06445 14.9512 -1.06445 Z"/>
  </g>
  <text style="stroke:none;fill:black;font-family:-apple-system,&quot;SF Pro Display&quot;,&quot;SF Pro Text&quot;,Helvetica,sans-serif;font-weight:bold;" transform="matrix(1 0 0 1 263 1953)">Design Variations</text>
  <text style="stroke:none;fill:black;font-family:-apple-system,&quot;SF Pro Display&quot;,&quot;SF Pro Text&quot;,Helvetica,sans-serif;" transform="matrix(1 0 0 1 263 1971)">Symbols are supported in up to nine weights and three scales.</text>
  <text style="stroke:none;fill:black;font-family:-apple-system,&quot;SF Pro Display&quot;,&quot;SF Pro Text&quot;,Helvetica,sans-serif;" transform="matrix(1 0 0 1 263 1989)">For optimal layout with text and other symbols, vertically align</text>
  <text style="stroke:none;fill:black;font-family:-apple-system,&quot;SF Pro Display&quot;,&quot;SF Pro Text&quot;,Helvetica,sans-serif;" transform="matrix(1 0 0 1 263 2007)">symbols with the adjacent text.</text>
  <rect height="14" id="" style="fill:#00AEEF;stroke:none;opacity:0.4;" width="3" x="776" y="1919"/>
  <g id="" transform="matrix(1 0 0 1 779 1933)">
   <path d="M 10.5273 0 L 12.373 0 L 7.17773 -14.0918 L 5.43945 -14.0918 L 0.244141 0 L 2.08984 0 L 3.50586 -4.0332 L 9.11133 -4.0332 Z M 6.2793 -11.9531 L 6.33789 -11.9531 L 8.59375 -5.52734 L 4.02344 -5.52734 Z"/>
  </g>
  <rect height="14" id="" style="fill:#00AEEF;stroke:none;opacity:0.4;" width="3" x="791.617" y="1919"/>
  <text style="stroke:none;fill:black;font-family:-apple-system,&quot;SF Pro Display&quot;,&quot;SF Pro Text&quot;,Helvetica,sans-serif;font-weight:bold;" transform="matrix(1 0 0 1 776 1953)">Margins</text>
  <text style="stroke:none;fill:black;font-family:-apple-system,&quot;SF Pro Display&quot;,&quot;SF Pro Text&quot;,Helvetica,sans-serif;" transform="matrix(1 0 0 1 776 1971)">Leading and trailing margins on the left and right side of each symbol</text>
  <text style="stroke:none;fill:black;font-family:-apple-system,&quot;SF Pro Display&quot;,&quot;SF Pro Text&quot;,Helvetica,sans-serif;" transform="matrix(1 0 0 1 776 1989)">can be adjusted by modifying the width of the blue rectangles.</text>
  <text style="stroke:none;fill:black;font-family:-apple-system,&quot;SF Pro Display&quot;,&quot;SF Pro Text&quot;,Helvetica,sans-serif;" transform="matrix(1 0 0 1 776 2007)">Modifications are automatically applied proportionally to all</text>
  <text style="stroke:none;fill:black;font-family:-apple-system,&quot;SF Pro Display&quot;,&quot;SF Pro Text&quot;,Helvetica,sans-serif;" transform="matrix(1 0 0 1 776 2025)">scales and weights.</text>
  <g id="" transform="matrix(1 0 0 1 1289 1933)">
   <path d="M 2.83203 3.11523 L 4.375 4.6582 C 5.22461 5.48828 6.19141 5.41992 7.06055 4.46289 L 17.2754 -6.66016 C 17.7051 -6.36719 18.0957 -6.37695 18.5645 -6.47461 L 19.6094 -6.68945 L 20.3027 -5.99609 L 20.2539 -5.47852 C 20.1855 -4.95117 20.3516 -4.53125 20.8496 -4.0332 L 21.6602 -3.22266 C 22.168 -2.71484 22.8223 -2.68555 23.3008 -3.16406 L 26.5527 -6.41602 C 27.0312 -6.89453 27.0117 -7.54883 26.5039 -8.05664 L 25.6836 -8.87695 C 25.1855 -9.375 24.7754 -9.55078 24.2383 -9.47266 L 23.7109 -9.41406 L 23.0566 -10.0781 L 23.3398 -11.2207 C 23.4863 -11.7871 23.3398 -12.2559 22.7148 -12.8613 L 20.3027 -15.2539 C 16.7578 -18.7793 12.2266 -18.6719 9.11133 -15.5371 C 8.69141 -15.1074 8.64258 -14.5215 8.91602 -14.0918 C 9.15039 -13.7207 9.62891 -13.4961 10.2734 -13.6621 C 11.7871 -14.043 13.3008 -13.9258 14.7852 -12.9199 L 14.1602 -11.3379 C 13.9258 -10.752 13.9453 -10.2734 14.1797 -9.83398 L 3.01758 0.439453 C 2.08008 1.30859 1.97266 2.25586 2.83203 3.11523 Z M 10.6738 -15.1465 C 13.3398 -17.1387 16.6504 -16.8262 19.0527 -14.4141 L 21.6797 -11.8066 C 21.9141 -11.5723 21.9434 -11.3867 21.8848 -11.0938 L 21.5039 -9.53125 L 23.0762 -7.95898 L 24.043 -8.04688 C 24.3262 -8.07617 24.4141 -8.05664 24.6387 -7.83203 L 25.2637 -7.20703 L 22.5098 -4.46289 L 21.8848 -5.07812 C 21.6602 -5.30273 21.6406 -5.40039 21.6699 -5.68359 L 21.7578 -6.64062 L 20.1953 -8.20312 L 18.5742 -7.89062 C 18.291 -7.83203 18.1445 -7.83203 17.9102 -8.07617 L 15.7324 -10.2539 C 15.5078 -10.4883 15.4785 -10.625 15.6055 -10.9473 L 16.5527 -13.2227 C 14.9512 -14.7559 12.8418 -15.6055 10.8008 -14.9512 C 10.7129 -14.9219 10.6445 -14.9414 10.6152 -14.9805 C 10.5859 -15.0293 10.5859 -15.0781 10.6738 -15.1465 Z M 4.10156 2.41211 C 3.61328 1.91406 3.78906 1.61133 4.12109 1.30859 L 15.0781 -8.80859 L 16.3086 -7.57812 L 6.15234 3.34961 C 5.84961 3.68164 5.46875 3.7793 5.06836 3.37891 Z"/>
  </g>
  <text style="stroke:none;fill:black;font-family:-apple-system,&quot;SF Pro Display&quot;,&quot;SF Pro Text&quot;,Helvetica,sans-serif;font-weight:bold;" transform="matrix(1 0 0 1 1289 1953)">Exporting</text>
  <text style="stroke:none;fill:black;font-family:-apple-system,&quot;SF Pro Display&quot;,&quot;SF Pro Text&quot;,Helvetica,sans-serif;" transform="matrix(1 0 0 1 1289 1971)">Symbols should be outlined when exporting to ensure the</text>
  <text style="stroke:none;fill:black;font-family:-apple-system,&quot;SF Pro Display&quot;,&quot;SF Pro Text&quot;,Helvetica,sans-serif;" transform="matrix(1 0 0 1 1289 1989)">design is preserved when submitting to Xcode.</text>
  <text id="template-version" style="stroke:none;fill:black;font-family:-apple-system,&quot;SF Pro Display&quot;,&quot;SF Pro Text&quot;,Helvetica,sans-serif;text-anchor:end;" transform="matrix(1 0 0 1 3036 1933)">Template v.1.0</text>
  <text style="stroke:none;fill:black;font-family:-apple-system,&quot;SF Pro Display&quot;,&quot;SF Pro Text&quot;,Helvetica,sans-serif;text-anchor:end;" transform="matrix(1 0 0 1 3036 1951)">Generated from dollarsign.circle.fill</text>
  <text style="stroke:none;fill:black;font-family:-apple-system,&quot;SF Pro Display&quot;,&quot;SF Pro Text&quot;,Helvetica,sans-serif;text-anchor:end;" transform="matrix(1 0 0 1 3036 1969)">Typeset at 100 points</text>
  <text style="stroke:none;fill:black;font-family:-apple-system,&quot;SF Pro Display&quot;,&quot;SF Pro Text&quot;,Helvetica,sans-serif;" transform="matrix(1 0 0 1 263 726)">Small</text>
  <text style="stroke:none;fill:black;font-family:-apple-system,&quot;SF Pro Display&quot;,&quot;SF Pro Text&quot;,Helvetica,sans-serif;" transform="matrix(1 0 0 1 263 1156)">Medium</text>
  <text style="stroke:none;fill:black;font-family:-apple-system,&quot;SF Pro Display&quot;,&quot;SF Pro Text&quot;,Helvetica,sans-serif;" transform="matrix(1 0 0 1 263 1586)">Large</text>
 </g>
 <g id="Guides">
  <g id="H-reference" style="fill:#27AAE1;stroke:none;" transform="matrix(1 0 0 1 339 696)">
   <path d="M 54.9316 0 L 57.666 0 L 30.5664 -70.459 L 28.0762 -70.459 L 0.976562 0 L 3.66211 0 L 12.9395 -24.4629 L 45.7031 -24.4629 Z M 29.1992 -67.0898 L 29.4434 -67.0898 L 44.8242 -26.709 L 13.8184 -26.709 Z"/>
  </g>
  <line id="Baseline-S" style="fill:none;stroke:#27AAE1;opacity:1;stroke-width:0.577;" x1="263" x2="3036" y1="696" y2="696"/>
  <line id="Capline-S" style="fill:none;stroke:#27AAE1;opacity:1;stroke-width:0.577;" x1="263" x2="3036" y1="625.541" y2="625.541"/>
  <g id="H-reference" style="fill:#27AAE1;stroke:none;" transform="matrix(1 0 0 1 339 1126)">
   <path d="M 54.9316 0 L 57.666 0 L 30.5664 -70.459 L 28.0762 -70.459 L 0.976562 0 L 3.66211 0 L 12.9395 -24.4629 L 45.7031 -24.4629 Z M 29.1992 -67.0898 L 29.4434 -67.0898 L 44.8242 -26.709 L 13.8184 -26.709 Z"/>
  </g>
  <line id="Baseline-M" style="fill:none;stroke:#27AAE1;opacity:1;stroke-width:0.577;" x1="263" x2="3036" y1="1126" y2="1126"/>
  <line id="Capline-M" style="fill:none;stroke:#27AAE1;opacity:1;stroke-width:0.577;" x1="263" x2="3036" y1="1055.54" y2="1055.54"/>
  <g id="H-reference" style="fill:#27AAE1;stroke:none;" transform="matrix(1 0 0 1 339 1556)">
   <path d="M 54.9316 0 L 57.666 0 L 30.5664 -70.459 L 28.0762 -70.459 L 0.976562 0 L 3.66211 0 L 12.9395 -24.4629 L 45.7031 -24.4629 Z M 29.1992 -67.0898 L 29.4434 -67.0898 L 44.8242 -26.709 L 13.8184 -26.709 Z"/>
  </g>
  <line id="Baseline-L" style="fill:none;stroke:#27AAE1;opacity:1;stroke-width:0.577;" x1="263" x2="3036" y1="1556" y2="1556"/>
  <line id="Capline-L" style="fill:none;stroke:#27AAE1;opacity:1;stroke-width:0.577;" x1="263" x2="3036" y1="1485.54" y2="1485.54"/>
  <rect height="119.336" id="left-margin" style="fill:#00AEEF;stroke:none;opacity:0.4;" width="8.74023" x="1391.3" y="1030.79"/>
  <rect height="119.336" id="right-margin" style="fill:#00AEEF;stroke:none;opacity:0.4;" width="8.74023" x="1499.65" y="1030.79"/>
 </g>
 <g id="Symbols">
  <g id="Black-L" transform="matrix(1 0 0 1 2854.05 1556)">
   <path d="M 79.3457 32.8613 C 116.748 32.8613 147.412 2.19727 147.412 -35.2051 C 147.412 -72.6074 116.748 -103.271 79.2969 -103.271 C 41.8945 -103.271 11.2793 -72.6074 11.2793 -35.2051 C 11.2793 2.19727 41.9434 32.8613 79.3457 32.8613 Z M 79.1504 2.53906 C 77.3926 2.53906 76.2207 1.31836 76.2207 -0.488281 L 76.2207 -4.49219 C 64.2578 -5.17578 57.7148 -10.6934 55.6641 -16.3086 C 55.127 -17.4805 54.9316 -18.7012 54.9316 -19.6777 C 54.9316 -23.6816 57.5684 -26.4648 62.3535 -26.4648 C 65.8203 -26.4648 68.0664 -24.8047 69.6289 -21.7285 C 70.6543 -19.4336 72.7051 -17.8223 76.2207 -17.2363 L 76.2207 -28.6133 L 72.998 -29.2969 C 61.1328 -31.8848 54.7852 -37.3047 54.7852 -47.2656 C 54.7852 -58.0566 63.623 -65.1855 76.2207 -65.9668 L 76.2207 -70.2637 C 76.2207 -72.1191 77.3926 -73.3398 79.1504 -73.3398 C 80.8594 -73.3398 82.0801 -72.1191 82.0801 -70.2637 L 82.0801 -65.9668 C 92.8711 -65.0879 99.707 -59.8633 101.758 -53.5645 C 102.051 -52.6367 102.295 -51.416 102.295 -50.3418 C 102.295 -46.6797 99.5605 -44.2383 95.2637 -44.2383 C 91.9434 -44.2383 89.6973 -45.6543 87.7441 -48.7793 C 86.5723 -50.9766 84.7168 -52.5391 82.0801 -53.0762 L 82.0801 -42.1387 L 85.4492 -41.5039 C 97.7539 -38.8184 103.955 -33.6914 103.955 -23.8281 C 103.955 -12.6465 95.2148 -5.56641 82.0801 -4.54102 L 82.0801 -0.488281 C 82.0801 1.31836 80.8594 2.53906 79.1504 2.53906 Z M 76.2207 -43.5547 L 76.2207 -53.2715 C 72.7051 -52.9297 70.459 -51.0254 70.459 -48.5352 C 70.459 -46.1426 72.1191 -44.4824 75.6836 -43.6523 Z M 82.0801 -27.2949 L 82.0801 -17.2363 C 86.084 -17.7734 88.3301 -19.4336 88.3301 -22.168 C 88.3301 -24.8535 86.7188 -26.1719 82.5195 -27.1973 Z"/>
  </g>
  <g id="Heavy-L" transform="matrix(1 0 0 1 2558.39 1556)">
   <path d="M 78.2715 31.7871 C 115.088 31.7871 145.312 1.61133 145.312 -35.2051 C 145.312 -72.0215 115.039 -102.197 78.2715 -102.197 C 41.4551 -102.197 11.2793 -72.0215 11.2793 -35.2051 C 11.2793 1.61133 41.5039 31.7871 78.2715 31.7871 Z M 78.125 2.58789 C 76.416 2.58789 75.1953 1.36719 75.1953 -0.439453 L 75.1953 -4.63867 C 63.916 -5.37109 57.1777 -10.791 55.1758 -16.8945 C 54.7363 -17.9688 54.541 -18.9941 54.541 -19.9219 C 54.541 -23.4863 56.9336 -25.9277 60.9863 -25.9277 C 64.1113 -25.9277 66.1133 -24.4141 67.4316 -21.6309 C 68.457 -18.7012 70.9961 -16.6016 75.1953 -15.9668 L 75.1953 -29.5898 L 72.6074 -30.127 C 60.9375 -32.7148 54.7363 -38.0371 54.7363 -47.6074 C 54.7363 -57.959 63.2324 -64.8926 75.1953 -65.7227 L 75.1953 -70.1172 C 75.1953 -71.9238 76.416 -73.1445 78.125 -73.1445 C 79.834 -73.1445 81.0547 -71.875 81.0547 -70.1172 L 81.0547 -65.7227 C 91.3086 -64.8438 98.1934 -59.668 100.146 -53.1738 C 100.391 -52.2949 100.635 -51.2207 100.635 -50.2441 C 100.635 -46.9727 98.1934 -44.7266 94.4336 -44.7266 C 91.4551 -44.7266 89.4531 -46.0938 87.8418 -48.9258 C 86.6699 -51.7578 84.3262 -53.6621 81.0547 -54.2969 L 81.0547 -41.3086 L 83.8867 -40.7227 C 95.9961 -38.0371 102.148 -32.959 102.148 -23.3398 C 102.148 -12.5 93.5547 -5.66406 81.0547 -4.63867 L 81.0547 -0.439453 C 81.0547 1.36719 79.834 2.58789 78.125 2.58789 Z M 75.1953 -42.7246 L 75.1953 -54.3945 C 71.0938 -53.9062 68.457 -51.6113 68.457 -48.6816 C 68.457 -45.8008 70.459 -43.8477 74.707 -42.8223 Z M 81.0547 -28.2227 L 81.0547 -15.9668 C 85.8398 -16.5527 88.4766 -18.7012 88.4766 -22.0215 C 88.4766 -25.1953 86.5723 -26.8066 81.5918 -28.125 Z"/>
  </g>
  <g id="Bold-L" transform="matrix(1 0 0 1 2262.88 1556)">
   <path d="M 77.0996 30.6152 C 113.232 30.6152 142.92 0.878906 142.92 -35.2051 C 142.92 -71.3379 113.184 -101.025 77.0508 -101.025 C 40.9668 -101.025 11.2793 -71.3379 11.2793 -35.2051 C 11.2793 0.878906 41.0156 30.6152 77.0996 30.6152 Z M 77.002 2.63672 C 75.293 2.63672 74.0723 1.41602 74.0723 -0.341797 L 74.0723 -4.83398 C 63.5254 -5.56641 56.543 -10.8398 54.6387 -17.5293 C 54.2969 -18.457 54.1504 -19.3848 54.1504 -20.2148 C 54.1504 -23.2422 56.1523 -25.3906 59.5215 -25.3906 C 62.207 -25.3906 63.916 -24.0234 64.9902 -21.4844 C 66.0156 -17.8711 69.0918 -15.2344 74.0723 -14.5508 L 74.0723 -30.6641 L 72.168 -31.0547 C 60.7422 -33.6914 54.6875 -38.8672 54.6875 -47.998 C 54.6875 -57.8613 62.793 -64.5508 74.0723 -65.4785 L 74.0723 -69.9219 C 74.0723 -71.6797 75.293 -72.9004 77.002 -72.9004 C 78.6621 -72.9004 79.9316 -71.6797 79.9316 -69.9219 L 79.9316 -65.4785 C 89.6484 -64.5508 96.4844 -59.4238 98.3398 -52.7344 C 98.5352 -51.9043 98.7793 -50.9766 98.7793 -50.0977 C 98.7793 -47.2656 96.6797 -45.3125 93.5059 -45.3125 C 90.918 -45.3125 89.1602 -46.582 87.9395 -49.0723 C 86.7188 -52.5879 83.8867 -54.9316 79.9316 -55.6152 L 79.9316 -40.332 L 82.1777 -39.8926 C 94.043 -37.1582 100.098 -32.1777 100.098 -22.8516 C 100.098 -12.3535 91.748 -5.76172 79.9316 -4.78516 L 79.9316 -0.341797 C 79.9316 1.41602 78.6621 2.63672 77.002 2.63672 Z M 74.0723 -41.748 L 74.0723 -55.7129 C 69.2871 -55.0781 66.2109 -52.2949 66.2109 -48.7793 C 66.2109 -45.4102 68.5059 -43.1641 73.584 -41.8945 Z M 79.9316 -29.2969 L 79.9316 -14.5508 C 85.5469 -15.1855 88.623 -17.9199 88.623 -21.8262 C 88.623 -25.5371 86.4258 -27.4902 80.5176 -29.1016 Z"/>
  </g>
  <g id="Semibold-L" transform="matrix(1 0 0 1 1966.97 1556)">
   <path d="M 76.2695 29.7852 C 111.914 29.7852 141.309 0.439453 141.309 -35.2051 C 141.309 -70.8496 111.865 -100.244 76.2695 -100.244 C 40.625 -100.244 11.2793 -70.8496 11.2793 -35.2051 C 11.2793 0.439453 40.6738 29.7852 76.2695 29.7852 Z M 76.1719 2.68555 C 74.5117 2.68555 73.291 1.46484 73.291 -0.244141 L 73.291 -4.93164 C 63.2812 -5.71289 56.1035 -10.9375 54.248 -17.9688 C 53.9551 -18.7988 53.8574 -19.6289 53.8574 -20.4102 C 53.8574 -23.0957 55.6641 -25 58.4961 -25 C 60.8887 -25 62.4023 -23.7793 63.3301 -21.3867 C 64.3555 -17.2852 67.7734 -14.3066 73.291 -13.5254 L 73.291 -31.3965 L 71.875 -31.6895 C 60.5469 -34.3262 54.6387 -39.4531 54.6387 -48.2422 C 54.6387 -57.7637 62.5 -64.3066 73.291 -65.2832 L 73.291 -69.8242 C 73.291 -71.5332 74.5117 -72.7539 76.1719 -72.7539 C 77.832 -72.7539 79.1016 -71.5332 79.1016 -69.8242 L 79.1016 -65.2832 C 88.4766 -64.3555 95.3125 -59.2773 97.1191 -52.3926 C 97.2656 -51.6602 97.4609 -50.8301 97.4609 -50.0488 C 97.4609 -47.4609 95.6055 -45.7031 92.8711 -45.7031 C 90.5273 -45.7031 89.0137 -46.9238 87.9883 -49.2188 C 86.7676 -53.1738 83.5938 -55.8105 79.1016 -56.4941 L 79.1016 -39.6484 L 80.957 -39.2578 C 92.6758 -36.5723 98.6816 -31.6406 98.6816 -22.5098 C 98.6816 -12.2559 90.4785 -5.81055 79.1016 -4.88281 L 79.1016 -0.244141 C 79.1016 1.46484 77.832 2.68555 76.1719 2.68555 Z M 73.291 -41.1133 L 73.291 -56.5918 C 68.0664 -55.8594 64.6484 -52.7344 64.6484 -48.877 C 64.6484 -45.166 67.1875 -42.6758 72.8027 -41.2598 Z M 79.1016 -29.9805 L 79.1016 -13.5254 C 85.3516 -14.209 88.7207 -17.334 88.7207 -21.7285 C 88.7207 -25.7812 86.2793 -27.9785 79.834 -29.7852 Z"/>
  </g>
  <g id="Medium-L" transform="matrix(1 0 0 1 1670.87 1556)">
   <path d="M 75.6836 29.1992 C 110.938 29.1992 140.088 0.0488281 140.088 -35.2051 C 140.088 -70.459 110.889 -99.6094 75.6348 -99.6094 C 40.3809 -99.6094 11.2793 -70.459 11.2793 -35.2051 C 11.2793 0.0488281 40.3809 29.1992 75.6836 29.1992 Z M 75.5859 2.68555 C 73.9746 2.68555 72.7051 1.51367 72.7051 -0.195312 L 72.7051 -5.0293 C 63.0859 -5.81055 55.8105 -10.9863 53.9551 -18.3105 C 53.7598 -19.0918 53.6133 -19.8242 53.6133 -20.5566 C 53.6133 -22.998 55.2734 -24.6582 57.7148 -24.6582 C 59.9121 -24.6582 61.2793 -23.584 62.0605 -21.3379 C 63.0371 -16.8457 66.7969 -13.5742 72.7051 -12.793 L 72.7051 -31.9336 L 71.6309 -32.1777 C 60.4492 -34.8145 54.6387 -39.8926 54.6387 -48.4375 C 54.6387 -57.7148 62.2559 -64.1602 72.7051 -65.1367 L 72.7051 -69.7266 C 72.7051 -71.4355 73.9258 -72.6074 75.5859 -72.6074 C 77.2461 -72.6074 78.5156 -71.3867 78.5156 -69.7266 L 78.5156 -65.1367 C 87.5488 -64.209 94.3848 -59.1797 96.1914 -52.1484 C 96.3379 -51.4648 96.4844 -50.7324 96.4844 -49.9512 C 96.4844 -47.6562 94.8242 -45.9961 92.3828 -45.9961 C 90.2344 -45.9961 88.8672 -47.2168 88.0371 -49.2676 C 86.8164 -53.6133 83.3984 -56.4941 78.5156 -57.2266 L 78.5156 -39.1602 L 80.0781 -38.8184 C 91.6504 -36.1328 97.6074 -31.25 97.6074 -22.2656 C 97.6074 -12.1582 89.5508 -5.9082 78.5156 -4.98047 L 78.5156 -0.195312 C 78.5156 1.46484 77.2461 2.68555 75.5859 2.68555 Z M 72.7051 -40.625 L 72.7051 -57.2266 C 67.1387 -56.4453 63.4766 -53.0762 63.4766 -48.9258 C 63.4766 -44.9707 66.2109 -42.2852 72.2168 -40.7227 Z M 78.5156 -30.5176 L 78.5156 -12.793 C 85.2051 -13.4766 88.8184 -16.9434 88.8184 -21.6309 C 88.8184 -25.9766 86.1816 -28.3691 79.2969 -30.3223 Z"/>
  </g>
  <g id="Regular-L" transform="matrix(1 0 0 1 1374.97 1556)">
   <path d="M 74.8535 28.3691 C 109.668 28.3691 138.477 -0.390625 138.477 -35.2051 C 138.477 -70.0195 109.619 -98.7793 74.8047 -98.7793 C 40.0391 -98.7793 11.2793 -70.0195 11.2793 -35.2051 C 11.2793 -0.390625 40.0879 28.3691 74.8535 28.3691 Z M 74.8047 2.73438 C 73.1934 2.73438 71.9238 1.5625 71.9238 -0.146484 L 71.9238 -5.12695 C 62.793 -5.95703 55.3711 -11.0352 53.5645 -18.7988 C 53.4668 -19.4336 53.3203 -20.0684 53.3203 -20.752 C 53.3203 -22.8516 54.7363 -24.2676 56.7383 -24.2676 C 58.5938 -24.2676 59.7656 -23.291 60.4004 -21.2402 C 61.377 -16.2598 65.4785 -12.6465 71.9238 -11.8164 L 71.9238 -32.666 L 71.3379 -32.8125 C 60.3027 -35.4492 54.5898 -40.4297 54.5898 -48.7305 C 54.5898 -57.666 61.9141 -63.916 71.9238 -64.9414 L 71.9238 -69.5801 C 71.9238 -71.2891 73.1445 -72.4609 74.8047 -72.4609 C 76.4648 -72.4609 77.7344 -71.2402 77.7344 -69.5801 L 77.7344 -64.9414 C 86.4258 -64.0625 93.2129 -59.0332 94.9219 -51.8555 C 95.0684 -51.2207 95.2148 -50.5859 95.2148 -49.9023 C 95.2148 -47.8516 93.75 -46.3867 91.748 -46.3867 C 89.8438 -46.3867 88.6719 -47.5098 88.1348 -49.4141 C 86.8652 -54.1992 83.1055 -57.3242 77.7344 -58.1055 L 77.7344 -38.4766 L 78.9062 -38.2324 C 90.332 -35.5469 96.1914 -30.7129 96.1914 -21.9238 C 96.1914 -12.0605 88.2812 -5.95703 77.7344 -5.07812 L 77.7344 -0.146484 C 77.7344 1.51367 76.4648 2.73438 74.8047 2.73438 Z M 71.9238 -39.9902 L 71.9238 -58.1055 C 65.918 -57.2266 61.9141 -53.5645 61.9141 -49.0234 C 61.9141 -44.7266 64.8926 -41.7969 71.4355 -40.0879 Z M 77.7344 -31.25 L 77.7344 -11.8164 C 85.0098 -12.5488 88.916 -16.3574 88.916 -21.5332 C 88.916 -26.2695 86.084 -28.8574 78.5645 -31.0059 Z"/>
  </g>
  <g id="Light-L" transform="matrix(1 0 0 1 1079.18 1556)">
   <path d="M 73.9258 27.4902 C 108.301 27.4902 136.621 -0.830078 136.621 -35.1562 C 136.621 -69.5312 108.252 -97.8516 73.9258 -97.8516 C 39.5508 -97.8516 11.2793 -69.5312 11.2793 -35.1562 C 11.2793 -0.830078 39.5996 27.4902 73.9258 27.4902 Z M 73.9258 1.9043 C 72.5586 1.9043 71.4844 0.927734 71.4844 -0.488281 L 71.4844 -5.71289 C 62.207 -6.44531 54.9805 -11.6699 53.3203 -19.3359 C 53.2227 -19.9707 53.125 -20.5566 53.125 -21.1426 C 53.125 -22.9004 54.248 -24.0723 55.8105 -24.0723 C 57.4219 -24.0723 58.3008 -23.1934 58.7402 -21.4844 C 59.6191 -15.918 64.4531 -11.8652 71.4844 -11.1328 L 71.4844 -33.2031 L 70.7031 -33.3984 C 59.9121 -35.9863 54.3945 -40.7715 54.3945 -48.584 C 54.3945 -57.1289 61.7676 -63.2324 71.4844 -64.1113 L 71.4844 -68.75 C 71.4844 -70.166 72.5098 -71.1426 73.9258 -71.1426 C 75.2441 -71.1426 76.3672 -70.1172 76.3672 -68.75 L 76.3672 -64.1113 C 85.0586 -63.3301 91.8457 -58.3008 93.4082 -51.416 C 93.5547 -50.8301 93.6523 -50.1953 93.6523 -49.6094 C 93.6523 -47.9492 92.5293 -46.7285 90.8691 -46.7285 C 89.3066 -46.7285 88.3789 -47.7051 87.9395 -49.2676 C 86.8652 -54.3945 82.4707 -57.9102 76.3672 -58.5938 L 76.3672 -37.8418 L 77.9297 -37.5 C 89.1113 -34.9121 94.6777 -30.1758 94.6777 -21.875 C 94.6777 -12.6465 87.0605 -6.44531 76.3672 -5.66406 L 76.3672 -0.488281 C 76.3672 0.878906 75.2441 1.9043 73.9258 1.9043 Z M 71.4844 -39.0625 L 71.4844 -58.5938 C 64.9902 -57.8613 60.2539 -53.9062 60.2539 -48.7793 C 60.2539 -43.9941 63.8184 -41.0156 71.0938 -39.209 Z M 76.3672 -32.0801 L 76.3672 -11.1328 C 84.2285 -11.7676 88.916 -15.9668 88.916 -21.582 C 88.916 -26.7578 85.5469 -29.6387 77.3926 -31.7383 Z"/>
  </g>
  <g id="Thin-L" transform="matrix(1 0 0 1 783.693 1556)">
   <path d="M 72.7051 26.3184 C 106.494 26.3184 134.18 -1.36719 134.18 -35.1074 C 134.18 -68.8965 106.494 -96.582 72.7051 -96.582 C 38.9648 -96.582 11.2793 -68.8965 11.2793 -35.1074 C 11.2793 -1.36719 38.9648 26.3184 72.7051 26.3184 Z M 72.7051 0.830078 C 71.7285 0.830078 70.9473 0.0976562 70.9473 -0.976562 L 70.9473 -6.49414 C 61.4258 -7.03125 54.4434 -12.5488 53.0273 -20.1172 C 52.9297 -20.7031 52.832 -21.1914 52.832 -21.6797 C 52.832 -22.998 53.6133 -23.7793 54.6387 -23.7793 C 55.8594 -23.7793 56.3965 -23.0957 56.5918 -21.8262 C 57.2754 -15.3809 63.0371 -10.8398 70.9473 -10.2051 L 70.9473 -33.9355 L 69.873 -34.1797 C 59.375 -36.6211 54.1504 -41.2598 54.1504 -48.4375 C 54.1504 -56.4453 61.5723 -62.3535 70.9473 -63.0371 L 70.9473 -67.627 C 70.9473 -68.7012 71.6797 -69.4336 72.7051 -69.4336 C 73.6816 -69.4336 74.5605 -68.6523 74.5605 -67.627 L 74.5605 -63.0371 C 83.3008 -62.4512 89.9902 -57.373 91.4062 -50.7812 C 91.5039 -50.293 91.6016 -49.707 91.6016 -49.2188 C 91.6016 -48.0469 90.8691 -47.2168 89.6973 -47.2168 C 88.5742 -47.2168 87.9395 -47.9004 87.7441 -49.1211 C 86.8652 -54.6387 81.6406 -58.6914 74.5605 -59.2285 L 74.5605 -37.0117 L 76.6602 -36.5723 C 87.5488 -34.0332 92.627 -29.4922 92.627 -21.7773 C 92.627 -13.3789 85.4004 -7.03125 74.5605 -6.44531 L 74.5605 -0.976562 C 74.5605 0 73.6816 0.830078 72.7051 0.830078 Z M 70.9473 -37.8906 L 70.9473 -59.2285 C 63.7207 -58.6914 58.0078 -54.3457 58.0078 -48.4863 C 58.0078 -43.0176 62.3535 -39.9902 70.6055 -37.9883 Z M 74.5605 -33.1543 L 74.5605 -10.2051 C 83.1543 -10.6934 88.8672 -15.3809 88.8672 -21.7285 C 88.8672 -27.4414 84.8633 -30.6641 75.8789 -32.7637 Z"/>
  </g>
  <g id="Ultralight-L" transform="matrix(1 0 0 1 487.616 1556)">
   <path d="M 72.1191 25.7324 C 105.566 25.7324 132.91 -1.61133 132.91 -35.1074 C 132.91 -68.5547 105.566 -95.8984 72.1191 -95.8984 C 38.623 -95.8984 11.2793 -68.5547 11.2793 -35.1074 C 11.2793 -1.61133 38.623 25.7324 72.1191 25.7324 Z M 72.1191 0.244141 C 71.2891 0.244141 70.6543 -0.341797 70.6543 -1.2207 L 70.6543 -6.93359 C 61.0352 -7.37305 54.1504 -12.9395 52.8809 -20.5078 C 52.7832 -21.0449 52.6855 -21.5332 52.6855 -21.9727 C 52.6855 -23.0469 53.2715 -23.6328 54.0039 -23.6328 C 55.0293 -23.6328 55.4199 -22.998 55.4688 -22.0215 C 56.0547 -15.1367 62.3047 -10.3027 70.6543 -9.7168 L 70.6543 -34.3262 L 69.4824 -34.5703 C 59.082 -36.9629 54.0039 -41.5039 54.0039 -48.3398 C 54.0039 -56.1035 61.4746 -61.9141 70.6543 -62.5 L 70.6543 -67.0898 C 70.6543 -67.9688 71.2402 -68.5547 72.1191 -68.5547 C 72.9004 -68.5547 73.6328 -67.8711 73.6328 -67.0898 L 73.6328 -62.5 C 82.4219 -61.9629 89.0625 -56.9336 90.3809 -50.4883 C 90.4785 -50 90.5273 -49.4629 90.5273 -49.0234 C 90.5273 -48.0957 89.9902 -47.4609 89.0625 -47.4609 C 88.2324 -47.4609 87.7441 -48.0469 87.6465 -49.0723 C 86.8652 -54.7852 81.2012 -59.1309 73.6328 -59.5703 L 73.6328 -36.5723 L 76.0254 -36.084 C 86.7188 -33.5938 91.6016 -29.1504 91.6016 -21.7285 C 91.6016 -13.7207 84.5215 -7.37305 73.6328 -6.83594 L 73.6328 -1.2207 C 73.6328 -0.439453 72.9004 0.244141 72.1191 0.244141 Z M 70.6543 -37.3047 L 70.6543 -59.5703 C 63.0859 -59.1309 56.8848 -54.5898 56.8848 -48.291 C 56.8848 -42.5293 61.5723 -39.4531 70.3613 -37.4023 Z M 73.6328 -33.6914 L 73.6328 -9.7168 C 82.5684 -10.1562 88.8672 -15.0879 88.8672 -21.7773 C 88.8672 -27.7832 84.5215 -31.2012 75.0977 -33.252 Z"/>
  </g>
  <g id="Black-M" transform="matrix(1 0 0 1 2870.97 1126)">
   <path d="M 62.4023 18.457 C 91.9922 18.457 116.113 -5.61523 116.113 -35.2051 C 116.113 -64.7949 91.9922 -88.8672 62.4023 -88.8672 C 32.8125 -88.8672 8.74023 -64.7949 8.74023 -35.2051 C 8.74023 -5.61523 32.8125 18.457 62.4023 18.457 Z M 62.207 -6.44531 C 60.9863 -6.44531 60.2051 -7.32422 60.2051 -8.59375 L 60.2051 -11.5234 C 49.9512 -11.9629 45.2637 -16.4551 43.7012 -20.0684 C 43.1152 -21.1426 42.9688 -22.2168 42.9688 -23.0469 C 42.9688 -26.5625 45.2637 -29.0039 49.6094 -29.0039 C 52.6855 -29.0039 54.6387 -27.5879 56.0059 -25.0488 C 56.7871 -23.7793 58.0566 -22.9492 60.2051 -22.6562 L 60.2051 -29.1504 L 56.7383 -29.834 C 47.4609 -31.7383 42.3828 -35.9863 42.3828 -43.9941 C 42.3828 -52.7832 49.8047 -58.4961 60.2051 -58.9355 L 60.2051 -62.1582 C 60.2051 -63.4766 60.9863 -64.3066 62.207 -64.3066 C 63.4766 -64.3066 64.2578 -63.4766 64.2578 -62.1582 L 64.2578 -58.9355 C 73.291 -58.3008 78.6133 -54.1992 80.2246 -49.7559 C 80.4688 -48.9258 80.7129 -47.8516 80.7129 -46.9238 C 80.7129 -43.75 78.3203 -41.6992 74.4629 -41.6992 C 71.6797 -41.6992 69.6289 -42.8223 67.8223 -45.459 C 66.9922 -46.5332 65.8203 -47.4609 64.2578 -47.7539 L 64.2578 -41.4551 L 67.7734 -40.7227 C 77.4902 -38.6719 82.2266 -34.668 82.2266 -26.9531 C 82.2266 -18.2129 75.293 -12.3535 64.2578 -11.5723 L 64.2578 -8.59375 C 64.2578 -7.32422 63.4766 -6.44531 62.207 -6.44531 Z M 60.2051 -42.334 L 60.2051 -47.9492 C 58.0078 -47.9004 56.4453 -46.875 56.4453 -45.2637 C 56.4453 -43.75 57.6172 -42.8223 59.8145 -42.4316 Z M 64.2578 -28.2715 L 64.2578 -22.6562 C 66.6504 -22.9492 68.2617 -23.7305 68.2617 -25.3906 C 68.2617 -27.002 67.1387 -27.7344 64.5508 -28.2227 Z"/>
  </g>
  <g id="Heavy-M" transform="matrix(1 0 0 1 2575.19 1126)">
   <path d="M 61.5234 17.5781 C 90.5273 17.5781 114.258 -6.15234 114.258 -35.2051 C 114.258 -64.2578 90.5273 -87.9883 61.4746 -87.9883 C 32.4707 -87.9883 8.74023 -64.2578 8.74023 -35.2051 C 8.74023 -6.15234 32.4707 17.5781 61.5234 17.5781 Z M 61.3281 -6.20117 C 60.0586 -6.20117 59.1797 -7.08008 59.1797 -8.44727 L 59.1797 -11.5234 C 49.707 -12.0117 44.7266 -16.3574 43.2129 -20.5566 C 42.7246 -21.5332 42.627 -22.4609 42.627 -23.1934 C 42.627 -26.3184 44.6289 -28.5156 48.3887 -28.5156 C 51.123 -28.5156 52.8809 -27.1973 54.0527 -24.8535 C 54.834 -23.0957 56.4941 -21.8262 59.1797 -21.4355 L 59.1797 -30.0293 L 56.4941 -30.5664 C 47.3145 -32.5684 42.3828 -36.7188 42.3828 -44.4336 C 42.3828 -52.7832 49.3652 -58.3496 59.1797 -58.8867 L 59.1797 -62.207 C 59.1797 -63.5254 60.0586 -64.4531 61.3281 -64.4531 C 62.6465 -64.4531 63.4766 -63.5254 63.4766 -62.207 L 63.4766 -58.8867 C 71.9727 -58.252 77.2949 -54.1504 78.8574 -49.4141 C 79.0527 -48.6816 79.2969 -47.7539 79.2969 -46.875 C 79.2969 -44.043 77.1484 -42.1875 73.7793 -42.1875 C 71.2402 -42.1875 69.4824 -43.2617 67.9199 -45.6543 C 67.0898 -47.3145 65.5762 -48.5352 63.4766 -48.9258 L 63.4766 -40.6738 L 66.3086 -40.0879 C 75.8789 -38.0371 80.6152 -34.082 80.6152 -26.4648 C 80.6152 -17.9199 73.8281 -12.3047 63.4766 -11.5723 L 63.4766 -8.44727 C 63.4766 -7.08008 62.6465 -6.20117 61.3281 -6.20117 Z M 59.1797 -41.6504 L 59.1797 -49.0723 C 56.4941 -48.8281 54.6875 -47.4121 54.6875 -45.459 C 54.6875 -43.5547 56.0547 -42.334 58.8379 -41.748 Z M 63.4766 -29.1016 L 63.4766 -21.4355 C 66.5527 -21.8262 68.4082 -23.0469 68.4082 -25.1953 C 68.4082 -27.2461 67.0898 -28.2227 63.8672 -29.0039 Z"/>
  </g>
  <g id="Bold-M" transform="matrix(1 0 0 1 2279.5 1126)">
   <path d="M 60.498 16.5039 C 88.8672 16.5039 112.207 -6.78711 112.207 -35.2051 C 112.207 -63.623 88.8672 -86.9629 60.4492 -86.9629 C 32.0312 -86.9629 8.74023 -63.623 8.74023 -35.2051 C 8.74023 -6.78711 32.0801 16.5039 60.498 16.5039 Z M 60.3516 -5.9082 C 59.0332 -5.9082 58.1055 -6.83594 58.1055 -8.25195 L 58.1055 -11.5723 C 49.4629 -12.1094 44.1895 -16.2598 42.6758 -21.0938 C 42.334 -21.9238 42.2363 -22.7051 42.2363 -23.3887 C 42.2363 -26.0742 43.9941 -27.9297 47.0215 -27.9297 C 49.3652 -27.9297 50.8789 -26.8066 51.9043 -24.6582 C 52.6855 -22.2656 54.6875 -20.5566 58.1055 -20.0684 L 58.1055 -31.0059 L 56.2012 -31.4453 C 47.2168 -33.4473 42.4316 -37.5488 42.4316 -44.873 C 42.4316 -52.832 48.9258 -58.1543 58.1055 -58.8379 L 58.1055 -62.2559 C 58.1055 -63.623 59.0332 -64.5996 60.3516 -64.5996 C 61.6699 -64.5996 62.6465 -63.623 62.6465 -62.2559 L 62.6465 -58.8379 C 70.5078 -58.1543 75.8301 -54.1504 77.3438 -49.0723 C 77.4902 -48.3887 77.6855 -47.6074 77.6855 -46.8262 C 77.6855 -44.3848 75.8789 -42.6758 73.0469 -42.6758 C 70.8008 -42.6758 69.2871 -43.75 68.1152 -45.8496 C 67.1875 -48.1445 65.2832 -49.707 62.6465 -50.1953 L 62.6465 -39.7949 L 64.7461 -39.3555 C 74.0723 -37.2559 78.8086 -33.3496 78.8086 -25.9277 C 78.8086 -17.5781 72.2168 -12.3047 62.6465 -11.5723 L 62.6465 -8.25195 C 62.6465 -6.83594 61.6699 -5.9082 60.3516 -5.9082 Z M 58.1055 -40.8691 L 58.1055 -50.293 C 54.7852 -49.9023 52.6855 -48.0469 52.6855 -45.6543 C 52.6855 -43.3594 54.2969 -41.7969 57.7148 -40.9668 Z M 62.6465 -29.9805 L 62.6465 -20.0684 C 66.5039 -20.5078 68.6035 -22.3145 68.6035 -24.9512 C 68.6035 -27.4902 67.0898 -28.8086 63.0371 -29.8828 Z"/>
  </g>
  <g id="Semibold-M" transform="matrix(1 0 0 1 1983.5 1126)">
   <path d="M 59.7656 15.8203 C 87.7441 15.8203 110.791 -7.22656 110.791 -35.2051 C 110.791 -63.1836 87.6953 -86.2793 59.7656 -86.2793 C 31.7871 -86.2793 8.74023 -63.1836 8.74023 -35.2051 C 8.74023 -7.22656 31.7871 15.8203 59.7656 15.8203 Z M 59.668 -5.66406 C 58.3008 -5.66406 57.3242 -6.68945 57.3242 -8.10547 L 57.3242 -11.5723 C 49.3164 -12.1582 43.7988 -16.2109 42.2852 -21.4844 C 42.041 -22.2168 41.9434 -22.9004 41.9434 -23.5352 C 41.9434 -25.8789 43.5059 -27.5391 46.0938 -27.5391 C 48.1934 -27.5391 49.5117 -26.5137 50.3906 -24.5117 C 51.1719 -21.7285 53.4668 -19.6777 57.3242 -19.1406 L 57.3242 -31.7383 L 56.0059 -31.9824 C 47.1191 -34.0332 42.4316 -38.0859 42.4316 -45.2148 C 42.4316 -52.832 48.6328 -58.0566 57.3242 -58.7891 L 57.3242 -62.2559 C 57.3242 -63.7207 58.3008 -64.6973 59.668 -64.6973 C 61.0352 -64.6973 62.0605 -63.6719 62.0605 -62.2559 L 62.0605 -58.7891 C 69.4824 -58.0566 74.8047 -54.1016 76.2695 -48.8281 C 76.416 -48.1934 76.6113 -47.5098 76.6113 -46.8262 C 76.6113 -44.5801 74.9512 -43.0664 72.5098 -43.0664 C 70.459 -43.0664 69.1406 -44.0918 68.2129 -45.9961 C 67.2363 -48.7793 65.0879 -50.5859 62.0605 -51.123 L 62.0605 -39.1602 L 63.623 -38.8672 C 72.8516 -36.7676 77.5879 -32.8613 77.5879 -25.5859 C 77.5879 -17.3828 71.0938 -12.3047 62.0605 -11.5234 L 62.0605 -8.10547 C 62.0605 -6.68945 61.0352 -5.66406 59.668 -5.66406 Z M 57.3242 -40.332 L 57.3242 -51.1719 C 53.6621 -50.6348 51.3184 -48.4863 51.3184 -45.8008 C 51.3184 -43.2617 53.0762 -41.4551 56.9336 -40.4297 Z M 62.0605 -30.6152 L 62.0605 -19.1406 C 66.4551 -19.6289 68.7012 -21.7773 68.7012 -24.8047 C 68.7012 -27.6855 67.041 -29.1992 62.5 -30.4688 Z"/>
  </g>
  <g id="Medium-M" transform="matrix(1 0 0 1 1687.3 1126)">
   <path d="M 59.2285 15.2832 C 86.9141 15.2832 109.766 -7.56836 109.766 -35.2051 C 109.766 -62.8906 86.8652 -85.7422 59.1797 -85.7422 C 31.543 -85.7422 8.74023 -62.8906 8.74023 -35.2051 C 8.74023 -7.56836 31.5918 15.2832 59.2285 15.2832 Z M 59.1797 -5.51758 C 57.7637 -5.51758 56.7383 -6.54297 56.7383 -7.95898 L 56.7383 -11.5723 C 49.1699 -12.207 43.5547 -16.1621 42.041 -21.7773 C 41.8457 -22.4121 41.6992 -23.0469 41.6992 -23.6328 C 41.6992 -25.7812 43.1641 -27.2461 45.4102 -27.2461 C 47.2656 -27.2461 48.4863 -26.3184 49.2188 -24.3652 C 50.0488 -21.2891 52.5391 -19.043 56.7383 -18.4082 L 56.7383 -32.2266 L 55.8594 -32.4219 C 47.0703 -34.5215 42.4316 -38.5254 42.4316 -45.459 C 42.4316 -52.8809 48.3887 -57.959 56.7383 -58.7402 L 56.7383 -62.3047 C 56.7383 -63.7207 57.7637 -64.7461 59.1797 -64.7461 C 60.5469 -64.7461 61.6211 -63.7207 61.6211 -62.3047 L 61.6211 -58.7402 C 68.7012 -58.0078 74.0234 -54.1016 75.4883 -48.6328 C 75.6348 -48.0469 75.7324 -47.4121 75.7324 -46.7773 C 75.7324 -44.7754 74.2676 -43.3105 72.1191 -43.3105 C 70.2148 -43.3105 69.043 -44.3359 68.2617 -46.1426 C 67.2852 -49.2188 64.9414 -51.2207 61.6211 -51.8066 L 61.6211 -38.7207 L 62.793 -38.4766 C 71.9238 -36.377 76.6602 -32.5195 76.6602 -25.293 C 76.6602 -17.1875 70.2637 -12.3047 61.6211 -11.5234 L 61.6211 -7.95898 C 61.6211 -6.54297 60.5469 -5.51758 59.1797 -5.51758 Z M 56.7383 -39.9414 L 56.7383 -51.8555 C 52.7832 -51.2207 50.293 -48.7793 50.293 -45.8984 C 50.293 -43.1641 52.1484 -41.1621 56.3477 -40.0391 Z M 61.6211 -31.0547 L 61.6211 -18.4082 C 66.4062 -18.9941 68.7988 -21.3867 68.7988 -24.707 C 68.7988 -27.7832 67.041 -29.4434 62.1094 -30.9082 Z"/>
  </g>
  <g id="Regular-M" transform="matrix(1 0 0 1 1391.3 1126)">
   <path d="M 58.5449 14.5508 C 85.791 14.5508 108.35 -8.00781 108.35 -35.2539 C 108.35 -62.4512 85.7422 -85.0586 58.4961 -85.0586 C 31.2988 -85.0586 8.74023 -62.4512 8.74023 -35.2539 C 8.74023 -8.00781 31.3477 14.5508 58.5449 14.5508 Z M 58.4961 -5.32227 C 57.0801 -5.32227 56.0059 -6.34766 56.0059 -7.86133 L 56.0059 -11.5723 C 49.0234 -12.3047 43.1641 -16.1133 41.6504 -22.168 C 41.5527 -22.7051 41.4551 -23.1934 41.4551 -23.7793 C 41.4551 -25.5859 42.7246 -26.8555 44.4824 -26.8555 C 46.0938 -26.8555 47.1191 -26.0254 47.7539 -24.2188 C 48.584 -20.752 51.3672 -18.1641 56.0059 -17.4805 L 56.0059 -32.9102 L 55.6641 -33.0078 C 46.9727 -35.1074 42.4316 -39.0625 42.4316 -45.752 C 42.4316 -52.8809 48.0957 -57.8125 56.0059 -58.7402 L 56.0059 -62.3047 C 56.0059 -63.8184 57.0801 -64.8438 58.4961 -64.8438 C 59.9121 -64.8438 61.0352 -63.7695 61.0352 -62.3047 L 61.0352 -58.7402 C 67.7246 -57.959 73.0469 -54.0527 74.4629 -48.3887 C 74.5605 -47.8516 74.6582 -47.3145 74.6582 -46.7773 C 74.6582 -44.9707 73.3887 -43.7012 71.582 -43.7012 C 69.9219 -43.7012 68.8965 -44.6777 68.4082 -46.2891 C 67.334 -49.8047 64.7461 -52.002 61.0352 -52.6855 L 61.0352 -38.0859 L 61.7188 -37.9883 C 70.7031 -35.8398 75.4395 -32.0312 75.4395 -24.9512 C 75.4395 -16.9922 69.1406 -12.3047 61.0352 -11.5234 L 61.0352 -7.86133 C 61.0352 -6.39648 59.9121 -5.32227 58.4961 -5.32227 Z M 56.0059 -39.4043 L 56.0059 -52.6855 C 51.6113 -51.9043 48.9746 -49.2188 48.9746 -46.0449 C 48.9746 -43.0176 50.9277 -40.7715 55.5664 -39.502 Z M 61.0352 -31.6895 L 61.0352 -17.4805 C 66.3574 -18.1152 68.9453 -20.8496 68.9453 -24.5605 C 68.9453 -27.9785 66.9922 -29.834 61.5723 -31.4941 Z"/>
  </g>
  <g id="Light-M" transform="matrix(1 0 0 1 1095.42 1126)">
   <path d="M 57.7148 13.7695 C 84.5215 13.7695 106.689 -8.39844 106.689 -35.2051 C 106.689 -62.0117 84.5215 -84.1797 57.666 -84.1797 C 30.8594 -84.1797 8.74023 -62.0117 8.74023 -35.2051 C 8.74023 -8.39844 30.9082 13.7695 57.7148 13.7695 Z M 57.666 -6.05469 C 56.4941 -6.05469 55.6152 -6.93359 55.6152 -8.1543 L 55.6152 -12.1094 C 48.4863 -12.6953 42.7734 -16.6992 41.4551 -22.6562 C 41.3574 -23.1934 41.2598 -23.6328 41.2598 -24.1211 C 41.2598 -25.6348 42.2852 -26.6602 43.6523 -26.6602 C 45.0195 -26.6602 45.8496 -25.9277 46.2402 -24.4629 C 46.9727 -20.4102 50.3906 -17.4805 55.6152 -16.8457 L 55.6152 -33.3984 L 55.0781 -33.5449 C 46.582 -35.5957 42.2363 -39.4043 42.2363 -45.6543 C 42.2363 -52.4414 47.9492 -57.2266 55.6152 -58.0078 L 55.6152 -61.5723 C 55.6152 -62.793 56.4941 -63.6719 57.666 -63.6719 C 58.8379 -63.6719 59.8145 -62.793 59.8145 -61.5723 L 59.8145 -58.0078 C 66.5527 -57.3242 71.7773 -53.418 73.0957 -47.9492 C 73.1934 -47.5098 73.291 -47.0215 73.291 -46.4844 C 73.291 -45.0195 72.2656 -43.9941 70.8008 -43.9941 C 69.4336 -43.9941 68.6035 -44.8242 68.2617 -46.1914 C 67.334 -50 64.1602 -52.5391 59.8145 -53.125 L 59.8145 -37.5488 L 60.8398 -37.3047 C 69.6289 -35.2539 74.0723 -31.543 74.0723 -24.9023 C 74.0723 -17.4805 68.0176 -12.6953 59.8145 -12.0605 L 59.8145 -8.1543 C 59.8145 -6.98242 58.8379 -6.05469 57.666 -6.05469 Z M 55.6152 -38.623 L 55.6152 -53.125 C 50.7812 -52.4902 47.4609 -49.5605 47.4609 -45.8496 C 47.4609 -42.334 49.9512 -40.0879 55.2734 -38.7207 Z M 59.8145 -32.4219 L 59.8145 -16.8457 C 65.625 -17.3828 68.8965 -20.459 68.8965 -24.6094 C 68.8965 -28.418 66.5527 -30.5176 60.498 -32.1777 Z"/>
  </g>
  <g id="Thin-M" transform="matrix(1 0 0 1 799.806 1126)">
   <path d="M 56.6406 12.7441 C 82.9102 12.7441 104.492 -8.83789 104.492 -35.1562 C 104.492 -61.4746 82.9102 -83.0566 56.5918 -83.0566 C 30.3223 -83.0566 8.74023 -61.4746 8.74023 -35.1562 C 8.74023 -8.83789 30.3223 12.7441 56.6406 12.7441 Z M 56.5918 -7.08008 C 55.7617 -7.08008 55.0781 -7.66602 55.0781 -8.59375 L 55.0781 -12.793 C 47.7539 -13.2324 42.334 -17.4316 41.1621 -23.3398 C 41.0645 -23.8281 41.0156 -24.2188 41.0156 -24.6094 C 41.0156 -25.7324 41.6992 -26.416 42.5781 -26.416 C 43.6035 -26.416 44.1406 -25.8301 44.2871 -24.7559 C 44.873 -19.9707 49.1699 -16.5527 55.0781 -16.0156 L 55.0781 -34.082 L 54.3457 -34.2285 C 46.0938 -36.1816 41.9922 -39.7949 41.9922 -45.5078 C 41.9922 -51.8066 47.7539 -56.4453 55.0781 -57.0312 L 55.0781 -60.5957 C 55.0781 -61.4746 55.7129 -62.1094 56.5918 -62.1094 C 57.4707 -62.1094 58.1543 -61.4258 58.1543 -60.5957 L 58.1543 -57.0312 C 64.9414 -56.543 70.166 -52.5879 71.2891 -47.4121 C 71.3379 -47.0215 71.4355 -46.582 71.4355 -46.1426 C 71.4355 -45.1172 70.752 -44.4336 69.7754 -44.4336 C 68.7988 -44.4336 68.2617 -45.0195 68.0176 -46.0449 C 67.334 -50.2441 63.4277 -53.2715 58.1543 -53.7109 L 58.1543 -36.8164 L 59.7168 -36.4746 C 68.1641 -34.5215 72.2168 -30.957 72.2168 -24.8047 C 72.2168 -18.1152 66.5527 -13.2324 58.1543 -12.7441 L 58.1543 -8.59375 C 58.1543 -7.71484 57.4707 -7.08008 56.5918 -7.08008 Z M 55.0781 -37.5488 L 55.0781 -53.7109 C 49.6582 -53.2227 45.459 -49.9512 45.459 -45.5566 C 45.459 -41.4551 48.6328 -39.1113 54.834 -37.6465 Z M 58.1543 -33.3496 L 58.1543 -16.0156 C 64.6484 -16.4551 68.8965 -19.9707 68.8965 -24.7559 C 68.8965 -29.0527 65.918 -31.4453 59.1309 -33.1055 Z"/>
  </g>
  <g id="Ultralight-M" transform="matrix(1 0 0 1 503.656 1126)">
   <path d="M 56.0547 12.207 C 82.0801 12.207 103.369 -9.08203 103.369 -35.1562 C 103.369 -61.1816 82.0801 -82.4707 56.0547 -82.4707 C 30.0293 -82.4707 8.74023 -61.1816 8.74023 -35.1562 C 8.74023 -9.08203 30.0293 12.207 56.0547 12.207 Z M 56.0547 -7.56836 C 55.3711 -7.56836 54.834 -8.05664 54.834 -8.78906 L 54.834 -13.1836 C 47.4121 -13.5254 42.041 -17.8223 41.0156 -23.6816 C 40.9668 -24.1211 40.8691 -24.5117 40.8691 -24.8535 C 40.8691 -25.7812 41.3574 -26.2695 42.041 -26.2695 C 42.9199 -26.2695 43.2617 -25.7812 43.3105 -24.9512 C 43.7988 -19.7266 48.5352 -16.0645 54.834 -15.5762 L 54.834 -34.4238 L 53.9551 -34.6191 C 45.8496 -36.4746 41.8945 -39.9902 41.8945 -45.4102 C 41.8945 -51.5137 47.7051 -56.0547 54.834 -56.543 L 54.834 -60.1074 C 54.834 -60.8398 55.3223 -61.3281 56.0547 -61.3281 C 56.7383 -61.3281 57.3242 -60.7422 57.3242 -60.1074 L 57.3242 -56.543 C 64.1602 -56.1035 69.3359 -52.1973 70.3613 -47.1191 C 70.4102 -46.7773 70.5078 -46.3379 70.5078 -45.9473 C 70.5078 -45.166 70.0195 -44.6289 69.1895 -44.6289 C 68.5059 -44.6289 68.0664 -45.1172 67.9199 -45.9961 C 67.334 -50.3418 63.0371 -53.6133 57.3242 -54.0039 L 57.3242 -36.4258 L 59.1309 -36.0352 C 67.4316 -34.1309 71.2891 -30.6152 71.2891 -24.8047 C 71.2891 -18.457 65.7715 -13.5254 57.3242 -13.0859 L 57.3242 -8.78906 C 57.3242 -8.10547 56.7383 -7.56836 56.0547 -7.56836 Z M 54.834 -37.0117 L 54.834 -54.0039 C 49.0723 -53.6133 44.4336 -50.1953 44.4336 -45.4102 C 44.4336 -41.0156 47.9492 -38.6719 54.5898 -37.1094 Z M 57.3242 -33.8867 L 57.3242 -15.5762 C 64.1602 -15.9668 68.8965 -19.7266 68.8965 -24.8047 C 68.8965 -29.3457 65.625 -31.9336 58.3984 -33.5449 Z"/>
  </g>
  <g id="Black-S" transform="matrix(1 0 0 1 2884.57 696)">
   <path d="M 48.8281 6.78711 C 71.9727 6.78711 90.8203 -12.0605 90.8203 -35.2051 C 90.8203 -58.3496 71.9727 -77.1973 48.8281 -77.1973 C 25.6836 -77.1973 6.83594 -58.3496 6.83594 -35.2051 C 6.83594 -12.0605 25.6836 6.78711 48.8281 6.78711 Z M 48.6816 -12.6465 C 47.7051 -12.6465 47.0703 -13.3301 47.0703 -14.3555 L 47.0703 -16.6504 C 39.1113 -16.9922 35.4004 -20.5078 34.1797 -23.3887 C 33.7402 -24.2188 33.6426 -25.0488 33.6426 -25.6836 C 33.6426 -28.418 35.4004 -30.3223 38.7695 -30.3223 C 41.1621 -30.3223 42.6758 -29.1992 43.75 -27.2461 C 44.3359 -26.2207 45.3613 -25.5371 47.0703 -25.293 L 47.0703 -30.5176 L 44.4336 -31.0547 C 37.1582 -32.5684 33.2031 -35.8887 33.2031 -42.1387 C 33.2031 -48.9746 38.9648 -53.4668 47.0703 -53.8086 L 47.0703 -56.3477 C 47.0703 -57.373 47.7051 -58.0566 48.6816 -58.0566 C 49.6582 -58.0566 50.293 -57.373 50.293 -56.3477 L 50.293 -53.8086 C 57.3242 -53.3203 61.4746 -50.0977 62.7441 -46.582 C 62.9395 -45.9473 63.1348 -45.1172 63.1348 -44.3848 C 63.1348 -41.9434 61.2793 -40.332 58.3008 -40.332 C 56.1035 -40.332 54.541 -41.2109 53.125 -43.2617 C 52.4902 -44.1406 51.5625 -44.873 50.293 -45.1172 L 50.293 -40.0391 L 52.9785 -39.502 C 60.5957 -37.8906 64.3066 -34.7656 64.3066 -28.7109 C 64.3066 -21.875 58.8867 -17.2852 50.293 -16.6992 L 50.293 -14.3555 C 50.293 -13.3301 49.6582 -12.6465 48.6816 -12.6465 Z M 47.0703 -40.7715 L 47.0703 -45.2637 C 45.3125 -45.2148 44.0918 -44.3848 44.0918 -43.1152 C 44.0918 -41.8945 45.0195 -41.1621 46.7773 -40.8203 Z M 50.293 -29.834 L 50.293 -25.293 C 52.1973 -25.5371 53.4668 -26.1719 53.4668 -27.4902 C 53.4668 -28.8086 52.5879 -29.3945 50.5371 -29.7852 Z"/>
  </g>
  <g id="Heavy-S" transform="matrix(1 0 0 1 2588.47 696)">
   <path d="M 48.2422 6.15234 C 70.9961 6.15234 89.5996 -12.4512 89.5996 -35.2051 C 89.5996 -57.959 70.9961 -76.6113 48.1934 -76.6113 C 25.4395 -76.6113 6.83594 -57.959 6.83594 -35.2051 C 6.83594 -12.4512 25.4395 6.15234 48.2422 6.15234 Z M 48.0957 -12.3535 C 47.0703 -12.3535 46.3379 -13.0859 46.3379 -14.1602 L 46.3379 -16.6016 C 39.0137 -16.9922 35.0586 -20.3613 33.8379 -23.7305 C 33.4961 -24.4629 33.3984 -25.1953 33.3984 -25.7812 C 33.3984 -28.2227 35.0098 -29.9805 37.9395 -29.9805 C 40.0879 -29.9805 41.4551 -28.9551 42.4316 -27.0508 C 43.0176 -25.7324 44.2383 -24.7559 46.3379 -24.4141 L 46.3379 -31.1523 L 44.2871 -31.5918 C 37.1094 -33.1055 33.252 -36.4258 33.252 -42.4805 C 33.252 -49.0723 38.6719 -53.418 46.3379 -53.8574 L 46.3379 -56.4453 C 46.3379 -57.5684 47.0703 -58.3008 48.0957 -58.3008 C 49.1211 -58.3008 49.8535 -57.5195 49.8535 -56.4453 L 49.8535 -53.8574 C 56.4453 -53.3203 60.5957 -50.1465 61.8652 -46.3867 C 62.0117 -45.8008 62.207 -45.0684 62.207 -44.3848 C 62.207 -42.1387 60.498 -40.6738 57.8613 -40.6738 C 55.8594 -40.6738 54.4434 -41.5039 53.2227 -43.4082 C 52.5391 -44.7266 51.416 -45.6543 49.8535 -45.9473 L 49.8535 -39.502 L 52.002 -39.0625 C 59.4727 -37.4512 63.2324 -34.3262 63.2324 -28.3691 C 63.2324 -21.582 57.9102 -17.2363 49.8535 -16.6504 L 49.8535 -14.1602 C 49.8535 -13.0859 49.1211 -12.3535 48.0957 -12.3535 Z M 46.3379 -40.332 L 46.3379 -46.0938 C 44.2383 -45.8984 42.9199 -44.7754 42.9199 -43.2617 C 42.9199 -41.8457 43.9453 -40.8691 46.0449 -40.3809 Z M 49.8535 -30.3711 L 49.8535 -24.4141 C 52.2461 -24.7559 53.6133 -25.6836 53.6133 -27.3438 C 53.6133 -28.9062 52.6367 -29.6875 50.0977 -30.3223 Z"/>
  </g>
  <g id="Bold-S" transform="matrix(1 0 0 1 2292.44 696)">
   <path d="M 47.5586 5.46875 C 69.873 5.46875 88.2324 -12.8906 88.2324 -35.2051 C 88.2324 -57.5684 69.873 -75.9277 47.5098 -75.9277 C 25.1953 -75.9277 6.83594 -57.5684 6.83594 -35.2051 C 6.83594 -12.8906 25.1953 5.46875 47.5586 5.46875 Z M 47.4609 -12.0605 C 46.3379 -12.0605 45.5566 -12.8418 45.5566 -14.0137 L 45.5566 -16.5527 C 38.8672 -17.041 34.668 -20.2148 33.4473 -24.0723 C 33.2031 -24.707 33.1055 -25.3418 33.1055 -25.8789 C 33.1055 -28.0273 34.5215 -29.541 37.0117 -29.541 C 38.8672 -29.541 40.0879 -28.6133 40.918 -26.8555 C 41.5527 -25.1465 43.0176 -23.877 45.5566 -23.4863 L 45.5566 -31.8359 L 44.1406 -32.1289 C 37.0605 -33.7402 33.252 -37.0117 33.252 -42.8223 C 33.252 -49.1211 38.3301 -53.3691 45.5566 -53.9062 L 45.5566 -56.5918 C 45.5566 -57.7148 46.3379 -58.5449 47.4609 -58.5449 C 48.5352 -58.5449 49.3652 -57.7148 49.3652 -56.5918 L 49.3652 -53.9062 C 55.4688 -53.3203 59.668 -50.1953 60.8398 -46.1426 C 60.9863 -45.6055 61.1328 -44.9707 61.1328 -44.3848 C 61.1328 -42.3828 59.668 -41.0156 57.373 -41.0156 C 55.5664 -41.0156 54.3457 -41.8945 53.3691 -43.6035 C 52.6367 -45.3613 51.2695 -46.4844 49.3652 -46.9238 L 49.3652 -38.916 L 50.8789 -38.5742 C 58.252 -36.9629 62.0117 -33.8379 62.0117 -27.9297 C 62.0117 -21.2891 56.7871 -17.1875 49.3652 -16.5527 L 49.3652 -14.0137 C 49.3652 -12.8418 48.5352 -12.0605 47.4609 -12.0605 Z M 45.5566 -39.8438 L 45.5566 -46.9727 C 43.0664 -46.6309 41.6016 -45.2148 41.6016 -43.457 C 41.6016 -41.748 42.6758 -40.5273 45.2148 -39.8926 Z M 49.3652 -30.957 L 49.3652 -23.4863 C 52.2461 -23.8281 53.7109 -25.1465 53.7109 -27.1484 C 53.7109 -29.0527 52.6367 -30.0293 49.6094 -30.9082 Z"/>
  </g>
  <g id="Semibold-S" transform="matrix(1 0 0 1 1996.2 696)">
   <path d="M 47.0703 4.98047 C 69.0918 4.98047 87.3047 -13.1836 87.3047 -35.2539 C 87.3047 -57.2754 69.0918 -75.4883 47.0215 -75.4883 C 25 -75.4883 6.83594 -57.2754 6.83594 -35.2539 C 6.83594 -13.1836 25.0488 4.98047 47.0703 4.98047 Z M 47.0215 -11.8164 C 45.8496 -11.8164 45.0195 -12.6465 45.0195 -13.8672 L 45.0195 -16.5039 C 38.7695 -17.041 34.4238 -20.1172 33.2031 -24.3164 C 33.0078 -24.8535 32.9102 -25.4395 32.9102 -25.9766 C 32.9102 -27.8809 34.2285 -29.248 36.377 -29.248 C 38.0371 -29.248 39.1602 -28.418 39.8926 -26.7578 C 40.5762 -24.7559 42.1875 -23.2422 45.0195 -22.8027 L 45.0195 -32.3242 L 44.043 -32.5195 C 37.0117 -34.1797 33.3008 -37.4023 33.3008 -43.1152 C 33.3008 -49.1699 38.1348 -53.3203 45.0195 -53.9551 L 45.0195 -56.6895 C 45.0195 -57.8613 45.8496 -58.6914 47.0215 -58.6914 C 48.1445 -58.6914 48.9746 -57.8613 48.9746 -56.6895 L 48.9746 -53.9551 C 54.7852 -53.3203 58.9844 -50.2441 60.1562 -45.9961 C 60.3027 -45.5078 60.4004 -44.9707 60.4004 -44.3848 C 60.4004 -42.5293 59.082 -41.2598 57.0312 -41.2598 C 55.3711 -41.2598 54.248 -42.1387 53.4668 -43.7012 C 52.6367 -45.8008 51.1719 -47.0703 48.9746 -47.5586 L 48.9746 -38.4766 L 50.0977 -38.2812 C 57.373 -36.6211 61.1816 -33.4961 61.1816 -27.6855 C 61.1816 -21.0449 56.0547 -17.1387 48.9746 -16.5039 L 48.9746 -13.8672 C 48.9746 -12.6465 48.1445 -11.8164 47.0215 -11.8164 Z M 45.0195 -39.502 L 45.0195 -47.6074 C 42.2363 -47.1191 40.6738 -45.5078 40.6738 -43.6035 C 40.6738 -41.748 41.8457 -40.332 44.6777 -39.5508 Z M 48.9746 -31.3965 L 48.9746 -22.8027 C 52.2949 -23.2422 53.8086 -24.8047 53.8086 -27.0508 C 53.8086 -29.1504 52.6855 -30.2734 49.3164 -31.2988 Z"/>
  </g>
  <g id="Medium-S" transform="matrix(1 0 0 1 1699.83 696)">
   <path d="M 46.7285 4.63867 C 68.5547 4.63867 86.6211 -13.4277 86.6211 -35.2539 C 86.6211 -57.0312 68.5059 -75.1465 46.6797 -75.1465 C 24.8535 -75.1465 6.83594 -57.0312 6.83594 -35.2539 C 6.83594 -13.4277 24.9023 4.63867 46.7285 4.63867 Z M 46.6797 -11.6699 C 45.459 -11.6699 44.5801 -12.5 44.5801 -13.7695 L 44.5801 -16.4551 C 38.7207 -17.041 34.2285 -20.0684 33.0078 -24.5117 C 32.8125 -25 32.7148 -25.4883 32.7148 -26.0254 C 32.7148 -27.7832 33.9844 -29.0527 35.8398 -29.0527 C 37.4023 -29.0527 38.4766 -28.2715 39.1113 -26.6113 C 39.7949 -24.4629 41.5039 -22.8027 44.5801 -22.3145 L 44.5801 -32.7148 L 43.9453 -32.8613 C 37.0117 -34.5215 33.3008 -37.6953 33.3008 -43.2617 C 33.3008 -49.2188 37.9395 -53.2715 44.5801 -53.9551 L 44.5801 -56.7383 C 44.5801 -57.959 45.459 -58.8379 46.6797 -58.8379 C 47.8516 -58.8379 48.7305 -57.959 48.7305 -56.7383 L 48.7305 -53.9551 C 54.2969 -53.3203 58.4961 -50.2441 59.668 -45.8984 C 59.7656 -45.4102 59.8633 -44.9219 59.8633 -44.3848 C 59.8633 -42.6758 58.5938 -41.4551 56.7871 -41.4551 C 55.2246 -41.4551 54.1992 -42.334 53.5645 -43.7988 C 52.6855 -46.1426 51.0742 -47.5586 48.7305 -48.0469 L 48.7305 -38.1836 L 49.5117 -38.0371 C 56.7383 -36.3281 60.5469 -33.252 60.5469 -27.4414 C 60.5469 -20.8984 55.4688 -17.0898 48.7305 -16.4551 L 48.7305 -13.7695 C 48.7305 -12.5 47.8516 -11.6699 46.6797 -11.6699 Z M 44.5801 -39.209 L 44.5801 -48.0957 C 41.6504 -47.5098 39.9902 -45.752 39.9902 -43.7012 C 39.9902 -41.6992 41.2109 -40.1367 44.2383 -39.3066 Z M 48.7305 -31.6895 L 48.7305 -22.3145 C 52.2949 -22.7539 53.9062 -24.5117 53.9062 -26.9531 C 53.9062 -29.248 52.6855 -30.4199 49.0234 -31.5918 Z"/>
  </g>
  <g id="Regular-S" transform="matrix(1 0 0 1 1403.58 696)">
   <path d="M 46.2402 4.15039 C 67.7734 4.15039 85.6934 -13.7207 85.6934 -35.2539 C 85.6934 -56.7871 67.7246 -74.6582 46.1914 -74.6582 C 24.707 -74.6582 6.83594 -56.7871 6.83594 -35.2539 C 6.83594 -13.7207 24.7559 4.15039 46.2402 4.15039 Z M 46.1914 -11.4258 C 44.9707 -11.4258 44.043 -12.3535 44.043 -13.623 L 44.043 -16.4551 C 38.623 -17.041 33.9844 -19.9707 32.7148 -24.7559 C 32.6172 -25.1953 32.5195 -25.5859 32.5195 -26.0742 C 32.5195 -27.6367 33.6914 -28.7598 35.2051 -28.7598 C 36.6211 -28.7598 37.5488 -28.0762 38.0859 -26.5137 C 38.8184 -24.0723 40.6738 -22.2168 44.043 -21.6309 L 44.043 -33.2031 L 43.8477 -33.252 C 36.9629 -34.9121 33.3008 -38.0859 33.3008 -43.5547 C 33.3008 -49.3164 37.7441 -53.2227 44.043 -54.0039 L 44.043 -56.8359 C 44.043 -58.1055 44.9707 -58.9844 46.1914 -58.9844 C 47.4609 -58.9844 48.3887 -58.1055 48.3887 -56.8359 L 48.3887 -54.0039 C 53.6133 -53.3203 57.8125 -50.293 58.9844 -45.752 C 59.082 -45.3125 59.1797 -44.873 59.1797 -44.3848 C 59.1797 -42.8223 58.0078 -41.6992 56.4453 -41.6992 C 54.9805 -41.6992 54.1016 -42.5293 53.6621 -43.9453 C 52.7344 -46.582 50.9766 -48.1445 48.3887 -48.6816 L 48.3887 -37.7441 L 48.7305 -37.6953 C 55.9082 -35.9863 59.7656 -32.959 59.7656 -27.1973 C 59.7656 -20.7031 54.6875 -17.041 48.3887 -16.4062 L 48.3887 -13.623 C 48.3887 -12.3535 47.4609 -11.4258 46.1914 -11.4258 Z M 44.043 -38.8672 L 44.043 -48.6816 C 40.8203 -48.0469 39.0625 -46.0449 39.0625 -43.7988 C 39.0625 -41.6504 40.3809 -39.9414 43.7012 -38.9648 Z M 48.3887 -32.0801 L 48.3887 -21.6309 C 52.3438 -22.168 54.0039 -24.1699 54.0039 -26.8066 C 54.0039 -29.2969 52.7344 -30.6641 48.7305 -31.9824 Z"/>
  </g>
  <g id="Light-S" transform="matrix(1 0 0 1 1107.6 696)">
   <path d="M 45.5078 3.4668 C 66.6992 3.4668 84.2285 -14.0625 84.2285 -35.2051 C 84.2285 -56.3965 66.6504 -73.9258 45.5078 -73.9258 C 24.3164 -73.9258 6.83594 -56.3965 6.83594 -35.2051 C 6.83594 -14.0625 24.3652 3.4668 45.5078 3.4668 Z M 45.5078 -12.1094 C 44.4824 -12.1094 43.7012 -12.8418 43.7012 -13.916 L 43.7012 -16.8945 C 38.1836 -17.4316 33.6426 -20.459 32.5195 -25.1953 C 32.4707 -25.5859 32.373 -25.9766 32.373 -26.416 C 32.373 -27.6855 33.252 -28.6133 34.5215 -28.6133 C 35.6445 -28.6133 36.377 -27.9785 36.8164 -26.709 C 37.4023 -23.7793 39.8438 -21.582 43.7012 -21.0938 L 43.7012 -33.6426 L 43.3594 -33.6914 C 36.6211 -35.3516 33.1543 -38.3789 33.1543 -43.457 C 33.1543 -48.877 37.5977 -52.6855 43.7012 -53.3203 L 43.7012 -56.1523 C 43.7012 -57.2266 44.4824 -57.959 45.5078 -57.959 C 46.4844 -57.959 47.3145 -57.1777 47.3145 -56.1523 L 47.3145 -53.3203 C 52.5879 -52.7832 56.7383 -49.7559 57.7637 -45.3613 C 57.8613 -44.9707 57.9102 -44.5801 57.9102 -44.1406 C 57.9102 -42.8711 57.0312 -41.9922 55.7617 -41.9922 C 54.5898 -41.9922 53.8574 -42.6758 53.5156 -43.8477 C 52.7344 -46.7285 50.4883 -48.584 47.3145 -49.0723 L 47.3145 -37.2559 L 47.998 -37.1094 C 54.9316 -35.498 58.5449 -32.5195 58.5449 -27.1484 C 58.5449 -21.1426 53.7109 -17.4316 47.3145 -16.8457 L 47.3145 -13.916 C 47.3145 -12.8418 46.4844 -12.1094 45.5078 -12.1094 Z M 43.7012 -38.1836 L 43.7012 -49.0723 C 40.0879 -48.5352 37.7441 -46.3379 37.7441 -43.6035 C 37.7441 -41.0645 39.502 -39.3066 43.4082 -38.2812 Z M 47.3145 -32.7637 L 47.3145 -21.0938 C 51.6602 -21.5332 54.0039 -23.8281 54.0039 -26.9043 C 54.0039 -29.7363 52.2949 -31.2988 47.8027 -32.5684 Z"/>
  </g>
  <g id="Thin-S" transform="matrix(1 0 0 1 811.867 696)">
   <path d="M 44.5801 2.53906 C 65.2832 2.53906 82.2754 -14.4531 82.2754 -35.2051 C 82.2754 -55.9082 65.2344 -72.9004 44.5312 -72.9004 C 23.8281 -72.9004 6.83594 -55.9082 6.83594 -35.2051 C 6.83594 -14.4531 23.877 2.53906 44.5801 2.53906 Z M 44.5312 -12.9883 C 43.8477 -12.9883 43.2617 -13.4766 43.2617 -14.2578 L 43.2617 -17.5293 C 37.5488 -17.9199 33.252 -21.1426 32.2754 -25.7812 C 32.2266 -26.1719 32.1777 -26.4648 32.1777 -26.8066 C 32.1777 -27.7832 32.7637 -28.3691 33.5449 -28.3691 C 34.4238 -28.3691 34.9121 -27.8809 35.0586 -26.9531 C 35.5469 -23.3398 38.7207 -20.8008 43.2617 -20.3613 L 43.2617 -34.1797 L 42.7246 -34.3262 C 36.2305 -35.8398 32.959 -38.7207 32.959 -43.3105 C 32.959 -48.3398 37.4512 -52.002 43.2617 -52.4902 L 43.2617 -55.2734 C 43.2617 -56.0547 43.7988 -56.5918 44.5312 -56.5918 C 45.2637 -56.5918 45.8984 -56.0059 45.8984 -55.2734 L 45.8984 -52.4902 C 51.1719 -52.0508 55.2734 -49.0234 56.2012 -44.873 C 56.25 -44.5801 56.2988 -44.1895 56.2988 -43.8477 C 56.2988 -42.9688 55.7129 -42.334 54.834 -42.334 C 54.0039 -42.334 53.5156 -42.8711 53.3203 -43.75 C 52.7344 -46.9238 49.8535 -49.2188 45.8984 -49.5605 L 45.8984 -36.6211 L 46.9727 -36.377 C 53.6621 -34.8145 56.9336 -31.9824 56.9336 -27.0996 C 56.9336 -21.6797 52.3926 -17.9199 45.8984 -17.4805 L 45.8984 -14.2578 C 45.8984 -13.5254 45.2637 -12.9883 44.5312 -12.9883 Z M 43.2617 -37.2559 L 43.2617 -49.5605 C 39.1113 -49.1699 35.9863 -46.6797 35.9863 -43.3594 C 35.9863 -40.2832 38.3301 -38.4766 43.0176 -37.3047 Z M 45.8984 -33.5938 L 45.8984 -20.3613 C 50.8301 -20.7031 53.9551 -23.3887 53.9551 -27.002 C 53.9551 -30.2734 51.7578 -32.0801 46.582 -33.3984 Z"/>
  </g>
  <g id="Ultralight-S" transform="matrix(1 0 0 1 515.644 696)">
   <path d="M 44.043 2.05078 C 64.502 2.05078 81.2988 -14.6973 81.2988 -35.1562 C 81.2988 -55.6152 64.502 -72.3633 44.043 -72.3633 C 23.584 -72.3633 6.83594 -55.6152 6.83594 -35.1562 C 6.83594 -14.6973 23.584 2.05078 44.043 2.05078 Z M 44.043 -13.4277 C 43.5059 -13.4277 43.0176 -13.8184 43.0176 -14.4531 L 43.0176 -17.8711 C 37.207 -18.1641 33.0078 -21.4844 32.1777 -26.123 C 32.1289 -26.4648 32.0801 -26.7578 32.0801 -27.0508 C 32.0801 -27.832 32.4707 -28.2715 33.0566 -28.2715 C 33.7891 -28.2715 34.1309 -27.832 34.1797 -27.0996 C 34.5703 -23.1445 38.1836 -20.3613 43.0176 -19.9707 L 43.0176 -34.5215 L 42.3828 -34.668 C 35.9863 -36.1328 32.8613 -38.916 32.8613 -43.2129 C 32.8613 -48.0469 37.3535 -51.6602 43.0176 -52.0508 L 43.0176 -54.834 C 43.0176 -55.4688 43.457 -55.8594 44.043 -55.8594 C 44.6289 -55.8594 45.1172 -55.4199 45.1172 -54.834 L 45.1172 -52.0508 C 50.4395 -51.709 54.541 -48.6328 55.3711 -44.6289 C 55.4199 -44.3359 55.4688 -43.9941 55.4688 -43.7012 C 55.4688 -43.0176 55.0293 -42.5293 54.3457 -42.5293 C 53.7109 -42.5293 53.3691 -42.9688 53.2227 -43.6523 C 52.7344 -47.0215 49.5117 -49.5605 45.1172 -49.8535 L 45.1172 -36.2793 L 46.4355 -35.9863 C 53.0273 -34.4727 56.1035 -31.6895 56.1035 -27.0508 C 56.1035 -22.0215 51.709 -18.1641 45.1172 -17.8223 L 45.1172 -14.4531 C 45.1172 -13.8672 44.6289 -13.4277 44.043 -13.4277 Z M 43.0176 -36.7676 L 43.0176 -49.8535 C 38.5742 -49.5117 35.0586 -46.875 35.0586 -43.2617 C 35.0586 -39.8926 37.7441 -38.0371 42.8223 -36.8164 Z M 45.1172 -34.0332 L 45.1172 -19.9707 C 50.3906 -20.2637 53.9551 -23.1445 53.9551 -27.0508 C 53.9551 -30.5664 51.4648 -32.5195 45.9473 -33.7891 Z"/>
  </g>
 </g>
</svg>
